<?xml version="1.0" encoding="UTF-8"?>
<svg width="18px" height="18px" viewBox="0 0 18 18" version="1.1" xmlns="http://www.w3.org/2000/svg" xmlns:xlink="http://www.w3.org/1999/xlink">
    <title>211DB459-1A94-4B07-ABC1-BC1DD8386D88@1.5x</title>
    <g id="Design" stroke="none" stroke-width="1" fill="none" fill-rule="evenodd">
        <g id="08.2_VirtualLearn_Home_categories_design_course" transform="translate(-24.000000, -744.000000)">
            <g id="includes" transform="translate(24.000000, 678.000000)">
                <g id="icn_includes_supportfiles" transform="translate(0.000000, 66.000000)">
                    <rect id="Rectangle-Copy" fill="#2BB5F4" x="0" y="0" width="18" height="18" rx="2"></rect>
                    <g id="noun_File_3764857" transform="translate(5.000000, 3.000000)" fill="#FFFFFF">
                        <path d="M8,3.79310345 C8,3.69258621 7.9578,3.59605172 7.8828,3.52493103 L4.2828,0.111137931 C4.2078,0.0400172414 4.106,0 4,0 L1.2,0 C0.8818,0 0.5766,0.119862069 0.3516,0.333224138 C0.1266,0.546775862 0,0.836189655 0,1.13793103 C0,3.03448276 0,7.96551724 0,9.86206897 C0,10.1638103 0.1266,10.4532241 0.3516,10.6667759 C0.5766,10.8801379 0.8818,11 1.2,11 L6.8,11 C7.4628,11 8,10.4905862 8,9.86206897 C8,8.0832931 8,3.79310345 8,3.79310345 Z M4,0.915655172 L4,3.4137931 C4,3.51431034 4.0422,3.61084483 4.1172,3.68196552 C4.1922,3.75308621 4.294,3.79310345 4.4,3.79310345 L7.0344,3.79310345 L4,0.915655172 Z" id="Shape"></path>
                    </g>
                </g>
            </g>
        </g>
    </g>
</svg>