<?xml version="1.0" encoding="UTF-8"?>
<svg width="12px" height="12px" viewBox="0 0 12 12" version="1.1" xmlns="http://www.w3.org/2000/svg" xmlns:xlink="http://www.w3.org/1999/xlink">
    <title>577C923D-4DD4-4B89-8122-F02E4502DF82@1.5x</title>
    <defs>
        <path d="M5.70391727,5 L9.85422825,9.15029304 C10.0485822,9.34467073 10.0485896,9.6598078 9.85425185,9.85421746 C9.75972742,9.94876516 9.63336571,10 9.50229253,10 C9.37121495,10 9.24485432,9.94876183 9.15032302,9.85420727 L5.00001198,5.70390293 L0.84973616,9.85417914 C0.755178279,9.94876044 0.628836435,10 0.49775813,10 C0.36666233,10 0.240304026,9.94876903 0.145789031,9.85420721 C-0.0485948548,9.6598233 -0.0485948548,9.34467254 0.145789108,9.15028856 L4.296097,4.99998909 L0.145789291,0.849688076 C-0.0485956859,0.655303413 -0.0485956859,0.340149114 0.145784824,0.145792984 C0.340150959,-0.0485969042 0.655328388,-0.0485969042 0.84968998,0.145788441 L5,4.29608523 L9.15030737,0.145788579 C9.34469137,-0.0485954357 9.65984244,-0.0485954357 9.8542309,0.145793046 C10.0485904,0.340176673 10.0485904,0.655323987 9.85422643,0.849688014 L5.70391727,5 Z" id="path-1"></path>
    </defs>
    <g id="Design" stroke="none" stroke-width="1" fill="none" fill-rule="evenodd">
        <g id="13.3_VirtualLearn_Search_filter-empty" transform="translate(-332.000000, -302.000000)">
            <g id="icn_close_filter" transform="translate(333.000000, 303.000000)">
                <mask id="mask-2" fill="white">
                    <use xlink:href="#path-1"></use>
                </mask>
                <use id="Combined-Shape" stroke="#373737" fill="#373737" fill-rule="nonzero" xlink:href="#path-1"></use>
            </g>
        </g>
    </g>
</svg>