<?xml version="1.0" encoding="UTF-8"?>
<svg width="19px" height="20px" viewBox="0 0 19 20" version="1.1" xmlns="http://www.w3.org/2000/svg" xmlns:xlink="http://www.w3.org/1999/xlink">
    <title>4DA1D137-F0F2-430D-8D15-A88E9036012D@1.5x</title>
    <g id="Design" stroke="none" stroke-width="1" fill="none" fill-rule="evenodd">
        <g id="13.2_VirtualLearn_Search_No-Result" transform="translate(-266.000000, -706.000000)" fill-rule="nonzero">
            <g id="categories" transform="translate(24.000000, 589.000000)">
                <g id="lifestyle" transform="translate(232.000000, 112.000000)">
                    <g id="icn_categories-suggestion_lifestyle" transform="translate(10.000000, 5.000000)">
                        <path d="M17.0456177,3.8745813 C17.0456177,8.27751507 19,11.3010709 19,13.4226522 C19,15.5442336 17.9548991,20 9.59136451,20 C1.22782993,20 0,14.0057211 0,11.6721725 C0,0.744723657 17.0456177,-3.92300994 17.0456177,3.8745813 Z" id="Path" fill="#EFEFEF"></path>
                        <g id="Group" transform="translate(15.006030, 1.000000)" fill="#A4AFC1">
                            <polygon id="Path" transform="translate(0.566925, 0.560589) rotate(-45.000000) translate(-0.566925, -0.560589) " points="0.300788228 0.0301882222 0.830565302 0.0314365056 0.833061869 1.09099065 0.303284794 1.08974237"></polygon>
                            <polygon id="Path" transform="translate(2.726041, 2.709912) rotate(-45.000000) translate(-2.726041, -2.709912) " points="2.45990441 2.17951086 2.98968149 2.18075914 2.99217805 3.24031329 2.46240098 3.23906501"></polygon>
                            <polygon id="Path" transform="translate(2.632141, 0.560842) rotate(-45.000000) translate(-2.632141, -0.560842) " points="2.10174002 0.294704764 3.16129417 0.297201331 3.16254245 0.826978405 2.1029883 0.824481839"></polygon>
                        </g>
                        <path d="M11.2108058,5.14455586 L13.6007809,5.14455586 C13.8557115,5.14455586 14.0734648,5.32428279 14.1212643,5.56744276 L15.714581,13.2322677 C15.7198921,13.2692703 15.7252031,13.3009868 15.7252031,13.3379894 C15.7252031,13.6287242 15.4862056,13.866598 15.1940976,13.866598 L12.8041225,13.866598 L11.2108058,5.14455586 Z" id="Path" fill="#FCBE4B"></path>
                        <path d="M13.6007809,13.3379894 C13.6007809,13.6287242 13.3617834,13.866598 13.0696753,13.866598 L4.30643355,13.866598 C4.0143255,13.866598 3.77532799,13.6287242 3.77532799,13.3379894 C3.77532799,13.3009868 3.78063905,13.2692703 3.7859501,13.2322677 L5.37926679,5.56744276 C5.42706629,5.32428279 5.64481957,5.14455586 5.89975024,5.14455586 L11.4763586,5.14455586 C11.7312893,5.14455586 11.9490426,5.32428279 11.9968421,5.56744276 L13.5901588,13.2322677 C13.5954698,13.2692703 13.6007809,13.3009868 13.6007809,13.3379894 Z" id="Path" fill="#F3F3F1"></path>
                        <path d="M4.97031551,13.3379894 C4.97031551,13.3009868 4.97562656,13.2692703 4.98093762,13.2322677 L6.5742543,5.56744276 C6.6220538,5.32428279 6.83980708,5.14455586 7.09473775,5.14455586 L5.89975024,5.14455586 C5.64481957,5.14455586 5.42706629,5.32428279 5.37926679,5.56744276 L3.7859501,13.2322677 C3.78063905,13.2692703 3.77532799,13.3009868 3.77532799,13.3379894 C3.77532799,13.6287242 4.0143255,13.866598 4.30643355,13.866598 L5.50142107,13.866598 C5.20931301,13.866598 4.97031551,13.6287242 4.97031551,13.3379894 Z" id="Path" fill="#D5DBE1"></path>
                        <polygon id="Path" fill="#E1960A" points="12.0074642 5.14455586 13.6007809 13.866598 14.662992 13.866598 13.0696753 5.14455586"></polygon>
                        <path d="M13.0696753,14.2630545 L4.30643355,14.2630545 C3.79391669,14.2630545 3.37699882,13.8480967 3.37699882,13.3379894 C3.37699882,13.2840713 3.38284098,13.2370252 3.39027646,13.1836357 L4.9889042,5.48709425 C5.07281888,5.06050709 5.45627709,4.7480994 5.89975024,4.7480994 L11.4763586,4.7480994 C11.9198318,4.7480994 12.30329,5.06050709 12.3877358,5.49132311 L13.9799902,13.1519192 C13.9932679,13.2370252 13.99911,13.2840713 13.99911,13.3379894 C13.99911,13.8480967 13.5821922,14.2630545 13.0696753,14.2630545 Z M5.89975024,5.54101232 C5.83707978,5.54101232 5.7818448,5.58488684 5.77016048,5.64303379 L4.17572732,13.3126162 C4.17365716,13.4098802 4.2342032,13.4701416 4.30643355,13.4701416 L13.0696753,13.4701416 C13.1419057,13.4701416 13.2024517,13.4098802 13.2024517,13.3379894 L13.6007809,13.3379894 L13.2024517,13.3379894 C13.2024517,13.3242456 13.1992651,13.3126162 13.1976717,13.2988724 L11.6070106,5.64726266 C11.5947952,5.58435823 11.5390291,5.54048372 11.4763586,5.54048372 L5.89975024,5.54048372 L5.89975024,5.54101232 Z" id="Shape" fill="#2B2B2B"></path>
                        <path d="M15.1940976,14.2630545 L12.8041225,14.2630545 L12.8041225,13.4701416 L15.1940976,13.4701416 C15.2663279,13.4701416 15.3268739,13.4098802 15.3268739,13.3379894 L13.7314328,5.64779127 C13.7192174,5.58488684 13.6634513,5.54101232 13.6007809,5.54101232 L11.2108058,5.54101232 L11.2108058,4.7480994 L13.6007809,4.7480994 C14.044254,4.7480994 14.4277122,5.06050709 14.512158,5.49132311 L16.1044125,13.1519192 C16.1176901,13.2370252 16.1235323,13.2840713 16.1235323,13.3379894 C16.1235323,13.8480967 15.7066144,14.2630545 15.1940976,14.2630545 L15.1940976,14.2630545 Z" id="Path" fill="#2B2B2B"></path>
                        <path d="M8.68805443,9.50557695 C7.51643556,9.50557695 6.56363219,8.55725309 6.56363219,7.39114248 L6.56363219,6.2017731 L7.36029053,6.2017731 L7.36029053,7.39114248 C7.36029053,8.11956516 7.95619097,8.71266403 8.68805443,8.71266403 C9.41991789,8.71266403 10.0158183,8.11956516 10.0158183,7.39114248 L10.0158183,6.2017731 L10.8124767,6.2017731 L10.8124767,7.39114248 C10.8124767,8.55725309 9.8596733,9.50557695 8.68805443,9.50557695 Z" id="Path" fill="#2B2B2B"></path>
                    </g>
                </g>
            </g>
        </g>
    </g>
</svg>