<?xml version="1.0" encoding="UTF-8"?>
<svg width="28px" height="28px" viewBox="0 0 28 28" version="1.1" xmlns="http://www.w3.org/2000/svg" xmlns:xlink="http://www.w3.org/1999/xlink">
    <title>73B801E5-FC6E-45B8-8D8A-1767F4F67091@1.5x</title>
    <defs>
        <path d="M8.87630435,4.01282609 C9.21108696,4.01282609 9.485,4.28673913 9.485,4.62152174 C9.485,4.95630435 9.21108696,5.23021739 8.87630435,5.23021739 L2.07717391,5.23021739 L5.04152174,8.20673913 C5.27891304,8.44413043 5.27891304,8.8276087 5.04152174,9.065 C4.9277982,9.17897989 4.77340204,9.24303472 4.6123913,9.24303472 C4.45138057,9.24303472 4.29698441,9.17897989 4.18326087,9.065 L0.178043478,5.0476087 C-0.0593478261,4.81021739 -0.0593478261,4.42673913 0.178043478,4.18934783 L4.18934783,0.178043478 C4.42673913,-0.0593478261 4.81021739,-0.0593478261 5.0476087,0.178043478 C5.285,0.415434783 5.285,0.805 5.0476087,1.0423913 L2.07717391,4.01282609 L8.87630435,4.01282609 Z" id="path-1"></path>
    </defs>
    <g id="Design" stroke="none" stroke-width="1" fill="none" fill-rule="evenodd">
        <g id="14.2_VirtualLearn_home_complete-profile-message" transform="translate(-311.000000, -738.000000)">
            <g id="snackbar_info" transform="translate(24.000000, 722.000000)">
                <g id="icn_next" transform="translate(287.000000, 16.000000)">
                    <circle id="Oval" fill="#FFFFFF" cx="14" cy="14" r="14"></circle>
                    <g id="icon-/-action-/-arrow" transform="translate(14.000000, 13.391304) rotate(-180.000000) translate(-14.000000, -13.391304) translate(9.257500, 8.769787)">
                        <mask id="mask-2" fill="white">
                            <use xlink:href="#path-1"></use>
                        </mask>
                        <use id="icon/navigation/arrow_backward_24px" fill="#042C5C" fill-rule="nonzero" xlink:href="#path-1"></use>
                    </g>
                </g>
            </g>
        </g>
    </g>
</svg>