<?xml version="1.0" encoding="UTF-8"?>
<svg width="19px" height="20px" viewBox="0 0 19 20" version="1.1" xmlns="http://www.w3.org/2000/svg" xmlns:xlink="http://www.w3.org/1999/xlink">
    <title>ADD6836E-DCF6-4674-898F-B7D963D6F54C@1.5x</title>
    <g id="Design" stroke="none" stroke-width="1" fill="none" fill-rule="evenodd">
        <g id="13.3_VirtualLearn_Search_filter-empty" transform="translate(-34.000000, -428.000000)">
            <g id="categories" transform="translate(24.000000, 349.000000)">
                <g id="finance" transform="translate(0.000000, 74.000000)">
                    <g id="icn_categories-suggestion_finance" transform="translate(10.000000, 5.000000)">
                        <path d="M15.2535963,1.89936285 C11.1067708,1.97354679 8.21808566,-0.0357451976 6.21993349,0.000484165549 C4.22178131,0.0367135287 0.0455713026,1.21330523 0.217681049,10.029692 C0.389790795,18.8460788 6.06101682,20.0381973 8.25946397,19.9990926 C18.5518667,19.8144954 22.5985446,1.76767199 15.2535963,1.89936285 Z" id="Path" fill="#EFEFEF" fill-rule="nonzero"></path>
                        <g id="Group" transform="translate(-0.000000, 0.764937)" fill="#A4AFC1" fill-rule="nonzero">
                            <polygon id="Path" transform="translate(3.073864, 0.759673) rotate(-45.000000) translate(-3.073864, -0.759673) " points="2.47323477 0.460909908 3.67656127 0.45677334 3.67449299 1.05843659 2.47116648 1.06257316"></polygon>
                            <polygon id="Path" transform="translate(0.635967, 3.213378) rotate(-45.000000) translate(-0.635967, -3.213378) " points="0.0353373918 2.91461418 1.23866389 2.91047761 1.23659561 3.51214086 0.0332691078 3.51627743"></polygon>
                            <polygon id="Path" transform="translate(0.636086, 0.651478) rotate(-45.000000) translate(-0.636086, -0.651478) " points="0.337322497 0.0508487698 0.938985749 0.0487804859 0.934849181 1.25210699 0.333185929 1.25417527"></polygon>
                        </g>
                        <path d="M15.1534488,12.5509636 L15.1534488,14.3092954 C15.1534488,14.954178 14.6263252,15.4813153 13.9828626,15.4813153 L4.03048163,15.4813153 C3.38641937,15.4813153 2.85989548,14.9535742 2.85989548,14.3092954 L2.85989548,6.69026028 C2.85989548,6.04537762 3.38701906,5.51824039 4.03048163,5.51824039 L13.9822629,5.51824039 C14.6263252,5.51824039 15.1528491,6.04598144 15.1528491,6.69026028 L15.1528491,9.03430008 L15.1528491,12.5509636 L15.1534488,12.5509636 Z" id="Path" fill="#F3F3F1" fill-rule="nonzero"></path>
                        <path d="M15.8029082,12.4622017 L12.3049425,12.4622017 C11.3940202,12.4622017 10.6558073,11.7188959 10.6558073,10.8016892 C10.6558073,9.88448247 11.3940202,9.1411767 12.3049425,9.1411767 L15.8029082,9.1411767 C16.1063491,9.1411767 16.3528198,9.38874402 16.3528198,9.69488214 L16.3528198,11.9091001 C16.3528198,12.2146343 16.1069488,12.4622017 15.8029082,12.4622017 L15.8029082,12.4622017 Z" id="Path" fill="#FCBE4B" fill-rule="nonzero"></path>
                        <rect id="Rectangle" fill="#E1960A" x="15" y="9.2195122" width="1" height="3.07317073"></rect>
                        <path d="M13.9828626,15.9341823 L4.03048163,15.9341823 C3.13695019,15.9341823 2.41013134,15.2047645 2.41013134,14.3092954 L2.41013134,6.69026028 C2.41013134,5.79479119 3.13695019,5.06537335 4.03048163,5.06537335 L13.9828626,5.06537335 C14.8763941,5.06537335 15.6032129,5.79479119 15.6032129,6.69026028 L15.6032129,9.03430008 L14.7036846,9.03430008 L14.7036846,6.69026028 C14.7036846,6.29354876 14.3804541,5.97110743 13.9828626,5.97110743 L4.03048163,5.97110743 C3.63289012,5.97110743 3.30965963,6.29415258 3.30965963,6.69026028 L3.30965963,14.3086915 C3.30965963,14.7054031 3.63289012,15.0278444 4.03048163,15.0278444 L13.9828626,15.0278444 C14.3804541,15.0278444 14.7036846,14.7047992 14.7036846,14.3086915 L14.7036846,12.5503598 L15.6032129,12.5503598 L15.6032129,14.3086915 C15.6032129,15.2047645 14.8763941,15.9341823 13.9828626,15.9341823 Z" id="Path" fill="#2B2B2B" fill-rule="nonzero"></path>
                        <path d="M15.8029082,12.9150687 L12.3049425,12.9150687 C11.1475495,12.9150687 10.2060432,11.967067 10.2060432,10.8016892 C10.2060432,9.63631133 11.1475495,8.68830966 12.3049425,8.68830966 L15.8029082,8.68830966 C16.3540192,8.68830966 16.802584,9.13996906 16.802584,9.69488214 L16.802584,11.9091001 C16.802584,12.4634093 16.3540192,12.9150687 15.8029082,12.9150687 L15.8029082,12.9150687 Z M12.3049425,9.59404374 C11.6434894,9.59404374 11.1055715,10.1356727 11.1055715,10.8016892 C11.1055715,11.4677056 11.6434894,12.0093346 12.3049425,12.0093346 L15.8029082,12.0093346 C15.8580793,12.0093346 15.9030557,11.9640479 15.9030557,11.9084962 L15.9030557,9.69427831 C15.9030557,9.63872662 15.8580793,9.59343992 15.8029082,9.59343992 L12.3049425,9.59343992 L12.3049425,9.59404374 Z" id="Shape" fill="#2B2B2B" fill-rule="nonzero"></path>
                        <ellipse id="Oval" fill="#2B2B2B" fill-rule="nonzero" cx="12.3049425" cy="10.8016892" rx="1" ry="1"></ellipse>
                    </g>
                </g>
            </g>
        </g>
    </g>
</svg>