<?xml version="1.0" encoding="UTF-8"?>
<svg width="19px" height="21px" viewBox="0 0 19 21" version="1.1" xmlns="http://www.w3.org/2000/svg" xmlns:xlink="http://www.w3.org/1999/xlink">
    <title>6148D75A-7C3A-4B3A-B10C-2F0442EDBA2F@1.5x</title>
    <g id="Design" stroke="none" stroke-width="1" fill="none" fill-rule="evenodd">
        <g id="13.3_VirtualLearn_Search_filter-empty" transform="translate(-34.000000, -503.000000)" fill-rule="nonzero">
            <g id="categories" transform="translate(24.000000, 349.000000)">
                <g id="photography" transform="translate(0.000000, 150.000000)">
                    <g id="icn_categories-suggestion_photography" transform="translate(10.000000, 4.000000)">
                        <g id="BG" transform="translate(0.172212, 0.000000)" fill="#EFEFEF">
                            <path d="M3.61413211,18.8398932 C7.72110086,18.8398932 10.5414134,21 12.5203821,21 C14.4993509,21 18.6556009,19.8448885 18.6556009,10.6009818 C18.6556009,1.35707519 13.0642571,0 10.8875696,0 C0.694663365,0 -3.65930539,18.8398932 3.61413211,18.8398932 Z" id="Path"></path>
                        </g>
                        <g id="Color" transform="translate(0.537175, 1.341495)">
                            <path d="M15.6425124,6.59658093 L15.6425124,12.926785 C15.6425124,13.5929637 15.1111061,14.1325382 14.4550124,14.1325382 L3.47063738,14.1325382 C2.81454363,14.1325382 2.28313738,13.5929637 2.28313738,12.926785 L2.28313738,6.59658093 C2.28313738,5.9304023 2.81454363,5.39082776 3.47063738,5.39082776 L8.07219988,5.39082776 L8.63448113,4.24897951 C8.83576238,3.84022919 9.24663738,3.58219801 9.69669988,3.58219801 L12.2367624,3.58219801 C12.6868249,3.58219801 13.0976999,3.84022919 13.2989811,4.24897951 L13.8612624,5.39082776 L14.4550124,5.39082776 C15.1111061,5.39082776 15.6425124,5.9304023 15.6425124,6.59658093 Z" id="Path" fill="#F3F3F1"></path>
                            <ellipse id="Oval" fill="#FCBE4B" cx="11.3378249" cy="9.76168299" rx="2.5234375" ry="2.56222548"></ellipse>
                            <g id="Group" transform="translate(2.283137, 3.582198)" fill="#D5DBE1">
                                <path d="M7.68728125,0.6667815 C7.8885625,0.258031177 8.2994375,0 8.7495,0 L7.4135625,0 C6.9635,0 6.552625,0.258031177 6.35134375,0.6667815 L5.7890625,1.80862975 L7.125,1.80862975 L7.68728125,0.6667815 Z" id="Path"></path>
                                <path d="M1.3359375,9.34458703 L1.3359375,3.01438291 C1.3359375,2.34820429 1.86734375,1.80862975 2.5234375,1.80862975 L1.1875,1.80862975 C0.53140625,1.80862975 0,2.34820429 0,3.01438291 L0,9.34458703 C0,10.0107657 0.53140625,10.5503402 1.1875,10.5503402 L2.5234375,10.5503402 C1.86734375,10.5503402 1.3359375,10.0107657 1.3359375,9.34458703 Z" id="Path"></path>
                            </g>
                            <path d="M10.1503249,9.76168299 C10.1503249,8.58305927 10.9388249,7.60037044 12.0057936,7.30194653 C11.7914499,7.24226175 11.5705749,7.19945751 11.3378249,7.19945751 C9.94429363,7.19945751 8.81438738,8.34673165 8.81438738,9.76168299 C8.81438738,11.1766343 9.94429363,12.3239085 11.3378249,12.3239085 C11.5705749,12.3239085 11.7914499,12.2817071 12.0057936,12.2214194 C10.9388249,11.9229955 10.1503249,10.9403067 10.1503249,9.76168299 Z" id="Path" fill="#E1960A"></path>
                            <g id="Group" fill="#A4AFC1">
                                <polygon id="Path" transform="translate(3.043859, 0.752026) rotate(-45.000000) translate(-3.043859, -0.752026) " points="2.44791774 0.457477585 3.64436362 0.448352381 3.63980101 1.04657532 2.44335513 1.05570052"></polygon>
                                <polygon id="Path" transform="translate(0.629672, 3.202915) rotate(-45.000000) translate(-0.629672, -3.202915) " points="0.0337302369 2.90836623 1.23017612 2.89924102 1.22561351 3.49746396 0.0291676348 3.50658916"></polygon>
                                <polygon id="Path" transform="translate(0.629790, 0.645030) rotate(-45.000000) translate(-0.629790, -0.645030) " points="0.335241164 0.0490880875 0.933464103 0.0445254854 0.924338899 1.24097136 0.32611596 1.24553397"></polygon>
                            </g>
                            <path d="M16.0878249,2.2257257 C15.5967936,2.2257257 15.1971999,1.81998976 15.1971999,1.32141083 C15.1971999,0.822831896 15.5967936,0.417095956 16.0878249,0.417095956 C16.5788561,0.417095956 16.9784499,0.822831896 16.9784499,1.32141083 C16.9784499,1.81998976 16.5788561,2.2257257 16.0878249,2.2257257 Z M16.0878249,1.01997254 C15.9239499,1.01997254 15.7909499,1.15501689 15.7909499,1.32141083 C15.7909499,1.48780477 15.9239499,1.62284912 16.0878249,1.62284912 C16.2516999,1.62284912 16.3846999,1.48780477 16.3846999,1.32141083 C16.3846999,1.15501689 16.2516999,1.01997254 16.0878249,1.01997254 Z" id="Shape" fill="#A4AFC1"></path>
                        </g>
                        <g id="regular_1.5" transform="translate(0.000000, 4.471536)" fill="#2B2B2B">
                            <path d="M11.875,9.64602532 C10.2380312,9.64602532 8.90625,8.29377315 8.90625,6.63164241 C8.90625,4.96951167 10.2380312,3.6172595 11.875,3.6172595 C13.5119688,3.6172595 14.84375,4.96951167 14.84375,6.63164241 C14.84375,8.29377315 13.5119688,9.64602532 11.875,9.64602532 Z M11.875,4.52157437 C10.7290625,4.52157437 9.796875,5.4680906 9.796875,6.63164241 C9.796875,7.79519421 10.7290625,8.74171045 11.875,8.74171045 C13.0209375,8.74171045 13.953125,7.79519421 13.953125,6.63164241 C13.953125,5.4680906 13.0209375,4.52157437 11.875,4.52157437 Z" id="Shape"></path>
                            <path d="M14.9921875,11.4546551 L4.0078125,11.4546551 C3.10709375,11.4546551 2.375,10.7113082 2.375,9.79674447 L2.375,3.46654035 C2.375,2.55197657 3.10709375,1.80862975 4.0078125,1.80862975 L8.33446875,1.80862975 L8.77384375,0.916372405 C9.0523125,0.351477048 9.611625,0 10.233875,0 L12.7739375,0 C13.3961875,0 13.9555,0.351477048 14.2339688,0.916372405 L14.6733438,1.80862975 L14.9921875,1.80862975 C15.8929062,1.80862975 16.625,2.55197657 16.625,3.46654035 L16.625,9.79674447 C16.625,10.7113082 15.8929062,11.4546551 14.9921875,11.4546551 L14.9921875,11.4546551 Z M4.0078125,2.71294462 C3.59871875,2.71294462 3.265625,3.05115838 3.265625,3.46654035 L3.265625,9.79674447 C3.265625,10.2121264 3.59871875,10.5503402 4.0078125,10.5503402 L14.9921875,10.5503402 C15.4012813,10.5503402 15.734375,10.2121264 15.734375,9.79674447 L15.734375,3.46654035 C15.734375,3.05115838 15.4012813,2.71294462 14.9921875,2.71294462 L14.3984375,2.71294462 C14.2298125,2.71294462 14.0754375,2.61588149 14.0000313,2.46275084 L13.43775,1.32029972 C13.3112813,1.06407717 13.0565625,0.904314874 12.7739375,0.904314874 L10.233875,0.904314874 C9.95125,0.904314874 9.69653125,1.06407717 9.5700625,1.32090259 L9.00778125,2.46335372 C8.932375,2.61588149 8.778,2.71294462 8.609375,2.71294462 L4.0078125,2.71294462 Z" id="Shape"></path>
                            <polygon id="Path" points="4.6015625 3.91869779 6.6796875 3.91869779 6.6796875 4.82301266 4.6015625 4.82301266"></polygon>
                            <polygon id="Path" points="5.046875 1.05503402 5.9375 1.05503402 5.9375 2.26078718 5.046875 2.26078718"></polygon>
                            <polygon id="Path" points="0 10.5503402 19 10.5503402 19 11.4546551 0 11.4546551"></polygon>
                        </g>
                    </g>
                </g>
            </g>
        </g>
    </g>
</svg>