<?xml version="1.0" encoding="UTF-8"?>
<svg width="19px" height="20px" viewBox="0 0 19 20" version="1.1" xmlns="http://www.w3.org/2000/svg" xmlns:xlink="http://www.w3.org/1999/xlink">
    <title>50192F56-129B-4DA6-89DA-2899C49D80EF@1.5x</title>
    <g id="Design" stroke="none" stroke-width="1" fill="none" fill-rule="evenodd">
        <g id="13.4_VirtualLearn_Search_filter-filled" transform="translate(-34.000000, -466.000000)" fill-rule="nonzero">
            <g id="categories" transform="translate(24.000000, 349.000000)">
                <g id="IT" transform="translate(0.000000, 112.000000)">
                    <g id="icn_categories-suggestion_IT" transform="translate(10.000000, 5.000000)">
                        <path d="M15.2136562,17.9427554 C11.1066875,17.9427554 8.286375,20 6.30740625,20 C4.3284375,20 0.1721875,18.8998938 0.1721875,10.0961732 C0.1721875,1.29245256 5.76353125,0 7.94021875,0 C18.133125,0 22.4870937,17.9427554 15.2136562,17.9427554 Z" id="Path" fill="#EFEFEF"></path>
                        <path d="M17.515625,2.86865903 C17.0245938,2.86865903 16.625,2.46292309 16.625,1.96434416 C16.625,1.46576522 17.0245938,1.06002928 17.515625,1.06002928 C18.0066562,1.06002928 18.40625,1.46576522 18.40625,1.96434416 C18.40625,2.46292309 18.0066562,2.86865903 17.515625,2.86865903 Z M17.515625,1.66290587 C17.3523437,1.66290587 17.21875,1.7985531 17.21875,1.96434416 C17.21875,2.13013522 17.3523437,2.26578245 17.515625,2.26578245 C17.6789063,2.26578245 17.8125,2.13013522 17.8125,1.96434416 C17.8125,1.7985531 17.6789063,1.66290587 17.515625,1.66290587 Z" id="Shape" fill="#A4AFC1"></path>
                        <path d="M15.5859375,5.12944621 C15.9136875,5.12944621 16.1796875,5.39953492 16.1796875,5.7323228 L16.1796875,12.3639652 L2.8203125,12.3639652 L2.8203125,5.7323228 C2.8203125,5.39953492 3.0863125,5.12944621 3.4140625,5.12944621 L15.5859375,5.12944621 Z" id="Path" fill="#F3F3F1"></path>
                        <path d="M2.8203125,12.3639652 L16.1796875,12.3639652 L16.1796875,13.8711567 C16.1796875,14.2039445 15.9136875,14.4740332 15.5859375,14.4740332 L3.4140625,14.4740332 C3.0863125,14.4740332 2.8203125,14.2039445 2.8203125,13.8711567 L2.8203125,12.3639652 Z" id="Path" fill="#FCBE4B"></path>
                        <path d="M10.5390625,14.4740332 C10.5390625,14.4740332 10.6845313,15.5381104 11.4178125,16.282663 L11.4296875,16.282663 L7.5703125,16.282663 C8.3125,15.5290673 8.4490625,14.4740332 8.4490625,14.4740332 L10.5390625,14.4740332 Z" id="Path" fill="#FCBE4B"></path>
                        <path d="M5.1953125,4.52656963 C4.8675625,4.52656963 4.6015625,4.79665834 4.6015625,5.12944621 L4.6015625,6.63663767 C4.6015625,6.96942554 4.8675625,7.23951425 5.1953125,7.23951425 L13.8046875,7.23951425 C14.1324375,7.23951425 14.3984375,6.96942554 14.3984375,6.63663767 L14.3984375,5.12944621 C14.3984375,4.79665834 14.1324375,4.52656963 13.8046875,4.52656963 L5.1953125,4.52656963 Z" id="Path" fill="#FCBE4B"></path>
                        <path d="M4.15625,13.8711567 L4.15625,12.3639652 L2.8203125,12.3639652 L2.8203125,13.8711567 C2.8203125,14.2039445 3.0863125,14.4740332 3.4140625,14.4740332 L4.75,14.4740332 C4.42225,14.4740332 4.15625,14.2039445 4.15625,13.8711567 Z" id="Path" fill="#E1960A"></path>
                        <path d="M8.4490625,14.4740332 C8.4490625,14.4740332 8.3125,15.5290673 7.5703125,16.282663 L8.90625,16.282663 C9.6484375,15.5290673 9.785,14.4740332 9.785,14.4740332 L8.4490625,14.4740332 Z" id="Path" fill="#E1960A"></path>
                        <path d="M5.9375,6.63663767 L5.9375,5.12944621 C5.9375,4.79665834 6.2035,4.52656963 6.53125,4.52656963 L5.1953125,4.52656963 C4.8675625,4.52656963 4.6015625,4.79665834 4.6015625,5.12944621 L4.6015625,6.63663767 C4.6015625,6.96942554 4.8675625,7.23951425 5.1953125,7.23951425 L6.53125,7.23951425 C6.2035,7.23951425 5.9375,6.96942554 5.9375,6.63663767 Z" id="Path" fill="#E1960A"></path>
                        <path d="M4.75,5.12944621 L3.4140625,5.12944621 C3.0863125,5.12944621 2.8203125,5.39953492 2.8203125,5.7323228 L2.8203125,12.3639652 L4.15625,12.3639652 L4.15625,5.7323228 C4.15625,5.39953492 4.42225,5.12944621 4.75,5.12944621 Z" id="Path" fill="#D5DBE1"></path>
                        <path d="M13.8046875,7.69167169 L9.203125,7.69167169 L9.203125,6.78735682 L13.8046875,6.78735682 C13.886625,6.78735682 13.953125,6.71983464 13.953125,6.63663767 L13.953125,5.12944621 C13.953125,5.04624925 13.886625,4.97872707 13.8046875,4.97872707 L9.203125,4.97872707 L9.203125,4.0744122 L13.8046875,4.0744122 C14.3776563,4.0744122 14.84375,4.54767031 14.84375,5.12944621 L14.84375,6.63663767 C14.84375,7.21841357 14.3776563,7.69167169 13.8046875,7.69167169 Z" id="Path" fill="#2B2B2B"></path>
                        <path d="M6.53125,7.69167169 L5.1953125,7.69167169 C4.62234375,7.69167169 4.15625,7.21841357 4.15625,6.63663767 L4.15625,5.12944621 C4.15625,4.54767031 4.62234375,4.0744122 5.1953125,4.0744122 L6.53125,4.0744122 L6.53125,4.97872707 L5.1953125,4.97872707 C5.113375,4.97872707 5.046875,5.04624925 5.046875,5.12944621 L5.046875,6.63663767 C5.046875,6.71983464 5.113375,6.78735682 5.1953125,6.78735682 L6.53125,6.78735682 L6.53125,7.69167169 Z" id="Path" fill="#2B2B2B"></path>
                        <path d="M8.3125,4.82800792 L7.421875,4.82800792 L7.421875,3.32081647 C7.421875,3.2376195 7.355375,3.17009732 7.2734375,3.17009732 L5.9375,3.17009732 L5.9375,2.26578245 L7.2734375,2.26578245 C7.84640625,2.26578245 8.3125,2.73904056 8.3125,3.32081647 L8.3125,4.82800792 Z" id="Path" fill="#2B2B2B"></path>
                        <path d="M7.2734375,9.50030144 L5.9375,9.50030144 L5.9375,8.59598656 L7.2734375,8.59598656 C7.355375,8.59598656 7.421875,8.52846439 7.421875,8.44526742 L7.421875,6.93807596 L8.3125,6.93807596 L8.3125,8.44526742 C8.3125,9.02704332 7.84640625,9.50030144 7.2734375,9.50030144 Z" id="Path" fill="#2B2B2B"></path>
                        <path d="M9.796875,9.50030144 L8.4609375,9.50030144 C7.88796875,9.50030144 7.421875,9.02704332 7.421875,8.44526742 L7.421875,3.32081647 C7.421875,2.73904056 7.88796875,2.26578245 8.4609375,2.26578245 L9.796875,2.26578245 L9.796875,3.17009732 L8.4609375,3.17009732 C8.379,3.17009732 8.3125,3.2376195 8.3125,3.32081647 L8.3125,8.44526742 C8.3125,8.52846439 8.379,8.59598656 8.4609375,8.59598656 L9.796875,8.59598656 L9.796875,9.50030144 Z" id="Path" fill="#2B2B2B"></path>
                        <path d="M15.5859375,14.9261907 L3.4140625,14.9261907 C2.84109375,14.9261907 2.375,14.4529326 2.375,13.8711567 L2.375,4.97872707 L3.265625,4.97872707 L3.265625,13.8711567 C3.265625,13.9543536 3.332125,14.0218758 3.4140625,14.0218758 L15.5859375,14.0218758 C15.667875,14.0218758 15.734375,13.9543536 15.734375,13.8711567 L15.734375,4.97872707 L16.625,4.97872707 L16.625,13.8711567 C16.625,14.4529326 16.1589063,14.9261907 15.5859375,14.9261907 Z" id="Path" fill="#2B2B2B"></path>
                        <polygon id="Path" fill="#2B2B2B" points="2.8203125 11.9118078 16.1796875 11.9118078 16.1796875 12.8161226 2.8203125 12.8161226"></polygon>
                        <path d="M11.4296875,16.7348204 L7.5703125,16.7348204 C7.3898125,16.7348204 7.22771875,16.624494 7.15884375,16.4556886 C7.0905625,16.2868831 7.12796875,16.092154 7.255625,15.9631384 C7.8766875,15.3325295 8.0073125,14.4227887 8.0085,14.4137456 L8.8908125,14.5331151 C8.88665625,14.5686849 8.80353125,15.1757816 8.44965625,15.8305056 L10.5408438,15.8305056 C10.1899375,15.1793988 10.10325,14.5716993 10.0979063,14.5367324 L10.979625,14.4107312 C10.9814063,14.4197744 11.1120313,15.2903281 11.6838125,15.911291 C11.7995938,15.9932822 11.875,16.1289295 11.875,16.282663 C11.875,16.5322539 11.6755,16.7348204 11.4296875,16.7348204 Z" id="Path" fill="#2B2B2B"></path>
                        <polygon id="Path" fill="#2B2B2B" points="0 15.8305056 19 15.8305056 19 16.7348204 0 16.7348204"></polygon>
                    </g>
                </g>
            </g>
        </g>
    </g>
</svg>