<?xml version="1.0" encoding="UTF-8"?>
<svg width="18px" height="19px" viewBox="0 0 18 19" version="1.1" xmlns="http://www.w3.org/2000/svg" xmlns:xlink="http://www.w3.org/1999/xlink">
    <title>82D43BED-3FD0-4D6D-B458-75DF7F738CEC@1.5x</title>
    <g id="Design" stroke="none" stroke-width="1" fill="none" fill-rule="evenodd">
        <g id="06_VirtualLearn_Menu" transform="translate(-23.000000, -325.000000)" fill="#373737" fill-rule="nonzero" stroke="#FFFFFF" stroke-width="0.3">
            <g id="icn_profile_menu" transform="translate(24.000000, 326.000000)">
                <path d="M11.5920733,7.68634644 C13.1950849,5.78847114 13.0312098,2.97682522 11.2184373,1.27578224 C9.40566485,-0.425260746 6.57321691,-0.425260746 4.76044443,1.27578224 C2.94767196,2.97682522 2.78379683,5.78847114 4.38680847,7.68634644 C1.89678866,7.90531833 -0.00964577825,9.98407745 3.67171086e-05,12.4696029 L3.67171086e-05,14.6821224 C3.67171086e-05,15.9622509 1.04374949,17 2.3311888,17 L13.6688849,17 C14.9563242,17 16,15.9622509 16,14.6821224 L16,12.4696029 C15.9986702,9.98055709 14.085685,7.90468347 11.5920733,7.68634644 Z M7.98944088,1.70200795 C9.20849397,1.70200795 10.3070954,2.43335763 10.7716023,3.55404377 C11.2361092,4.6747299 10.9747418,5.9633516 10.1097006,6.81742337 C9.24465931,7.67149513 7.9468635,7.92226506 6.82308791,7.45248753 C5.69931233,6.98271 4.97159834,5.88520608 4.98018322,4.67310558 C4.99182918,3.02881104 6.33571469,1.70200795 7.98944088,1.70200795 L7.98944088,1.70200795 Z M14.3046436,14.6821224 C14.3046436,15.0312484 14.0200047,15.3142708 13.6688849,15.3142708 L2.3311888,15.3142708 C2.16081112,15.3202206 1.99560338,15.255532 1.87505389,15.1356671 C1.7545044,15.0158022 1.68944638,14.8515326 1.69543014,14.6821224 L1.69543014,12.4696029 C1.68978462,11.6444427 2.01550012,10.8511504 2.60032973,10.2656859 C3.18515935,9.68022152 3.98075566,9.35100398 4.81064758,9.35100398 L11.1682342,9.35100398 C12.9004253,9.35100398 14.3046436,10.7472483 14.3046436,12.4696029 L14.3046436,14.6821224 Z" id="Shape"></path>
            </g>
        </g>
    </g>
</svg>