<?xml version="1.0" encoding="UTF-8"?>
<svg width="26px" height="24px" viewBox="0 0 26 24" version="1.1" xmlns="http://www.w3.org/2000/svg" xmlns:xlink="http://www.w3.org/1999/xlink">
    <title>A329B8F7-7901-4A29-B1A1-9A795C04432F@1.5x</title>
    <defs>
        <path d="M20.7428468,3.39091737 L20.7428468,2.67699509 C20.7428468,1.20214999 21.9199824,0 23.3714234,0 C24.8228644,0 26,1.20214999 26,2.67699509 L26,21.1563382 C26,22.6311833 24.8228644,23.8333333 23.3714234,23.8333333 C21.9199824,23.8333333 20.7428468,22.6311833 20.7428468,21.1563382 L20.7428468,20.4424335 L15.0782095,18.608541 C15.0665517,18.787341 15.0334196,18.964457 14.9789248,19.1366257 C14.8002709,19.7001079 14.4139227,20.1618472 13.8942671,20.4322024 C13.5833706,20.5945557 13.2427527,20.6787742 12.8967271,20.6787742 C12.6675477,20.6787742 12.4397973,20.6419699 12.2217845,20.5695961 L5.924331,18.4860788 C5.36976327,18.3032582 4.91672428,17.9080885 4.65235366,17.3781106 C4.38816064,16.8495766 4.34066141,16.2472897 4.51900951,15.6842182 C4.5672757,15.5326184 4.63176577,15.3879374 4.71147163,15.2514251 L4.25263625,15.1028356 C3.96068779,15.9936563 3.1391933,16.6218823 2.18723941,16.6218823 C0.978975188,16.6218823 0,15.6221037 0,14.3956029 L0,9.43773039 C0,8.21122963 0.978975188,7.21145099 2.18723941,7.21145099 C3.13919868,7.21145099 3.96069688,7.83968412 4.25264109,8.73051248 L20.7428468,3.39091737 Z M6.73951035,15.9131114 C6.69490356,15.8983005 6.64845732,15.8908215 6.60149376,15.8908215 C6.40372539,15.8908215 6.22525327,16.0225823 6.16258987,16.2201716 C6.12401617,16.3412343 6.13447851,16.47066 6.19332444,16.588391 C6.25043911,16.7031275 6.34461783,16.7855684 6.4603956,16.8239667 L12.7577923,18.9073201 C12.8729987,18.9451376 12.9946692,18.9349403 13.1046106,18.8775075 C13.2159391,18.8195878 13.2974462,18.7224159 13.3359258,18.6011694 C13.4161225,18.348481 13.2803681,18.0770507 13.0382182,17.9968977 L6.73951035,15.9131114 Z M2.648023,14.3956029 L2.648023,9.43773039 C2.648023,9.17281294 2.43935987,8.95971567 2.18723941,8.95971567 C1.93511896,8.95971567 1.72645583,9.17281294 1.72645583,9.43773039 L1.72645583,14.3956029 C1.72645583,14.6605204 1.93511896,14.8736177 2.18723941,14.8736177 C2.43935987,14.8736177 2.648023,14.6605204 2.648023,14.3956029 Z M20.7428468,18.6074231 L20.7428468,5.22679723 L4.37447883,10.5271184 L4.37447883,13.3066733 L20.7428468,18.6074231 Z M24.2735442,21.1563382 L24.2735442,2.67699509 C24.2735442,2.1637333 23.8667207,1.74826469 23.3714234,1.74826469 C22.8761262,1.74826469 22.4693027,2.1637333 22.4693027,2.67699509 L22.4693027,21.1563382 C22.4693027,21.6696 22.8761262,22.0850686 23.3714234,22.0850686 C23.8667207,22.0850686 24.2735442,21.6696 24.2735442,21.1563382 Z" id="path-1"></path>
    </defs>
    <g id="Design" stroke="none" stroke-width="1" fill="none" fill-rule="evenodd">
        <g id="16_VirtualLearn_Menu_notification" transform="translate(-24.000000, -782.000000)">
            <g id="7" transform="translate(24.000000, 779.000000)">
                <g id="icn_notification_notify" transform="translate(0.000000, 3.083333)">
                    <mask id="mask-2" fill="white">
                        <use xlink:href="#path-1"></use>
                    </mask>
                    <use id="Shape" fill="#1EAB0D" fill-rule="nonzero" xlink:href="#path-1"></use>
                </g>
            </g>
        </g>
    </g>
</svg>