<?xml version="1.0" encoding="UTF-8"?>
<svg width="17px" height="15px" viewBox="0 0 17 15" version="1.1" xmlns="http://www.w3.org/2000/svg" xmlns:xlink="http://www.w3.org/1999/xlink">
    <title>A042C4B9-032A-450D-9795-CBA3B315E2E4@1.5x</title>
    <g id="Design" stroke="none" stroke-width="1" fill="none" fill-rule="evenodd">
        <g id="video-controls" transform="translate(-17.000000, -45.000000)" fill="#FFFFFF">
            <path d="M21.3351972,44.9422348 C22.4424627,44.9422348 23.3400787,45.8367486 23.3400787,46.9362951 L23.3400787,58.9481745 C23.3400787,60.0494636 22.4461789,60.9422348 21.3351972,60.9422348 L20.3449602,60.9422348 C19.2376947,60.9422348 18.3400787,60.0477211 18.3400787,58.9481745 L18.3400787,46.9362951 C18.3400787,45.835006 19.2339785,44.9422348 20.3449602,44.9422348 L21.3351972,44.9422348 Z M30.3351972,44.9422348 C31.4424627,44.9422348 32.3400787,45.8367486 32.3400787,46.9362951 L32.3400787,58.9481745 C32.3400787,60.0494636 31.4461789,60.9422348 30.3351972,60.9422348 L29.3449602,60.9422348 C28.2376947,60.9422348 27.3400787,60.0477211 27.3400787,58.9481745 L27.3400787,46.9362951 C27.3400787,45.835006 28.2339785,44.9422348 29.3449602,44.9422348 L30.3351972,44.9422348 Z" id="icn_pause-video" transform="translate(25.340079, 52.942235) rotate(-270.000000) translate(-25.340079, -52.942235) "></path>
        </g>
    </g>
</svg>