<?xml version="1.0" encoding="UTF-8"?>
<svg width="20px" height="20px" viewBox="0 0 20 20" version="1.1" xmlns="http://www.w3.org/2000/svg" xmlns:xlink="http://www.w3.org/1999/xlink">
    <title>F0D54335-3A11-402B-ABB3-23E5FC8376D3@1.5x</title>
    <g id="Design" stroke="none" stroke-width="1" fill="none" fill-rule="evenodd">
        <g id="10.3_VirtualLearn_Menu_my-course_ongoing_continue-playing_landscape" transform="translate(-45.000000, -753.000000)" fill="#FFFFFF" fill-rule="nonzero" stroke="#FFFFFF" stroke-width="0.5">
            <g id="icn_minimise" transform="translate(46.000000, 754.000000)">
                <path d="M7.87520024,10.0839176 C8.0183827,10.2475525 8.12049224,10.4726323 8.12049224,10.6771758 L8.12049224,14.9522187 C8.12049224,15.4022146 7.75230878,15.729648 7.30230677,15.729648 L7.32267959,15.729648 C6.87267758,15.729648 6.54564885,15.4225871 6.54564885,14.9725912 L6.54564885,12.6818667 L1.43198351,17.7543022 C1.26834641,17.9179371 1.02289077,18 0.818344405,18 C0.613798037,18 0.409092122,17.9179371 0.245455028,17.7543022 C-0.0818183427,17.4270325 -0.0818183427,16.8953828 0.245455028,16.5885674 L5.31837064,11.4546051 L3.00683304,11.4546051 C2.55683103,11.4546051 2.18864757,11.0864267 2.18864757,10.6364308 C2.18864757,10.1864349 2.55683103,9.81825641 3.00683304,9.81825641 L7.30230677,9.81825641 C7.52730778,9.81825641 7.73201778,9.92028275 7.87520024,10.0839176 Z M17.7545444,0.245452768 C17.4272702,-0.0818175893 16.9364407,-0.0818175893 16.6091665,0.245452768 L11.4547617,5.42056923 L11.4547617,3.08869048 C11.4547617,2.63869459 11.08666,2.25014358 10.6162034,2.25014358 C10.1662014,2.25014358 9.79801792,2.61832204 9.79801792,3.06831794 L9.79801792,7.36373333 C9.79801792,7.58873128 9.87967283,7.77257506 10.0433099,7.93620993 C10.206947,8.0998448 10.411657,8.16153515 10.6162034,8.16153515 L14.9116771,8.16153515 C15.3616791,8.16153515 15.7298626,7.79335668 15.7298626,7.34336079 C15.7298626,6.89336489 15.3616791,6.52518643 14.9116771,6.52518643 L12.5797667,6.52518643 L17.7545444,1.3908171 C18.0818185,1.06354736 18.0818185,0.552268153 17.7545444,0.245452768 Z" id="Shape"></path>
            </g>
        </g>
    </g>
</svg>