<?xml version="1.0" encoding="UTF-8"?>
<svg width="24px" height="24px" viewBox="0 0 24 24" version="1.1" xmlns="http://www.w3.org/2000/svg" xmlns:xlink="http://www.w3.org/1999/xlink">
    <title>FC40A7C5-E0B7-4A87-AEED-295A42FA2A23@1.5x</title>
    <defs>
        <path d="M7.84857783,6.41944235 C7.84763251,6.41790323 7.84667001,6.41639618 7.84569032,6.41485707 L4.5670649,1.30927394 C4.56673833,1.30874487 4.56637739,1.30823183 4.56605083,1.30770276 C4.40957551,1.06705562 4.16197188,0.897640675 3.86890722,0.830705179 C3.57580819,0.763721586 3.27234507,0.807281764 3.01434298,0.953257259 C2.85960361,1.04082652 2.7282049,1.16339464 2.63436096,1.30771879 C2.6340344,1.30823183 2.63369065,1.30874487 2.63336408,1.30927394 L-0.64527853,6.414825 C-0.64625822,6.41636412 -0.647220722,6.4178872 -0.648166036,6.41942632 C-0.799055406,6.66316772 -0.839153925,6.94713455 -0.761070953,7.21899687 C-0.682987982,7.49087523 -0.496107914,7.7181032 -0.234788632,7.85885212 C-0.0670382903,7.949195 0.124001161,7.99799779 0.317670306,8.00003391 C0.318976558,8.00003391 0.320282811,8.00003391 0.321589063,8.00003391 L6.8788571,8.00003391 C6.88016335,8.00003391 6.88146961,8.00003391 6.88275867,8.00003391 C7.50558338,7.99363696 8.00673752,7.51577363 7.99989688,6.93477352 C7.99774844,6.7541038 7.94544677,6.57588704 7.84857783,6.41944235 Z" id="path-1"></path>
    </defs>
    <g id="Design" stroke="none" stroke-width="1" fill="none" fill-rule="evenodd">
        <g id="10_VirtualLearn_Menu_my-course_ongoing_continue" transform="translate(-311.000000, -592.000000)">
            <g id="chapter-content" transform="translate(24.000000, 379.000000)">
                <g id="lessons" transform="translate(33.000000, 189.000000)">
                    <g id="lesson20" transform="translate(-0.000000, 0.000000)">
                        <g id="Group-2" transform="translate(0.000000, 0.000000)">
                            <g id="icn_lessonplay_active" transform="translate(254.000000, 24.000000)">
                                <circle id="button-background-circle" stroke="#EE5C4D" fill-opacity="0.1" fill="#EE5C4D" cx="12" cy="12" r="11.5"></circle>
                                <g id="Add-/-Rectangular-Copy-81" transform="translate(8.800000, 7.200000)">
                                    <mask id="mask-2" fill="white">
                                        <use xlink:href="#path-1"></use>
                                    </mask>
                                    <use id="Shape" fill="#EE5C4D" fill-rule="nonzero" transform="translate(3.600000, 4.400034) rotate(90.000000) translate(-3.600000, -4.400034) " xlink:href="#path-1"></use>
                                </g>
                            </g>
                        </g>
                    </g>
                </g>
            </g>
        </g>
    </g>
</svg>