<?xml version="1.0" encoding="UTF-8"?>
<svg width="14px" height="16px" viewBox="0 0 14 16" version="1.1" xmlns="http://www.w3.org/2000/svg" xmlns:xlink="http://www.w3.org/1999/xlink">
    <title>059F926B-6161-4682-B422-0340337CDCEC@1.5x</title>
    <defs>
        <path d="M13.140037,5.336875 L7.8841179,0.1893125 C7.76034824,0.06809375 7.59254606,0 7.41750085,0 L2.16158179,0 C0.969672604,0 0,0.94971875 0,2.1170625 L0,13.8829375 C0,15.0502813 0.969704511,16 2.1616137,16 L11.1717196,16 C12.3636288,16 13.3333333,15.0502812 13.3333333,13.8829375 L13.3333333,5.793875 C13.3333333,5.6225 13.2638066,5.45809375 13.140037,5.336875 Z M12.0134746,13.8829375 C12.0134746,14.3375313 11.6358479,14.7073437 11.1717196,14.7073437 L2.16158179,14.7073437 C1.69742162,14.7073437 1.31982684,14.3375 1.31982684,13.8829375 L1.31982684,2.1170625 C1.31982684,1.66246875 1.69745353,1.29265625 2.16158179,1.29265625 L7.14411635,1.29265625 L12.0134746,6.061625 L12.0134746,13.8829375 L12.0134746,13.8829375 Z M12.673388,5.1475625 L8.07741427,5.1475625 L8.07741427,0.6463125 C8.07741427,0.289375 7.78198161,0 7.41750085,0 C7.0530201,0 6.75758743,0.289375 6.75758743,0.6463125 L6.75758743,5.793875 C6.75758743,6.1508125 7.0530201,6.4401875 7.41750085,6.4401875 L12.673388,6.4401875 C13.0378688,6.4401875 13.3333014,6.1508125 13.3333014,5.793875 C13.3333014,5.4369375 13.0378688,5.1475625 12.673388,5.1475625 Z" id="path-1"></path>
    </defs>
    <g id="Design" stroke="none" stroke-width="1" fill="none" fill-rule="evenodd">
        <g id="17.1_VirtualLearn_Menu_settings_notification-settings" transform="translate(-25.000000, -375.000000)">
            <g id="Terms-of-services" transform="translate(25.333333, 373.000000)">
                <g id="icn_TS" transform="translate(-0.000000, 2.000000)">
                    <mask id="mask-2" fill="white">
                        <use xlink:href="#path-1"></use>
                    </mask>
                    <use id="Combined-Shape" fill="#373737" fill-rule="nonzero" xlink:href="#path-1"></use>
                </g>
            </g>
        </g>
    </g>
</svg>