<?xml version="1.0" encoding="UTF-8"?>
<svg width="19px" height="20px" viewBox="0 0 19 20" version="1.1" xmlns="http://www.w3.org/2000/svg" xmlns:xlink="http://www.w3.org/1999/xlink">
    <title>9E1B0B7F-FB3F-4988-9CB9-2EBB7A5BCA1C@1.5x</title>
    <g id="Design" stroke="none" stroke-width="1" fill="none" fill-rule="evenodd">
        <g id="13.2_VirtualLearn_Search_No-Result" transform="translate(-129.000000, -668.000000)" fill-rule="nonzero">
            <g id="categories" transform="translate(24.000000, 589.000000)">
                <g id="fitnes" transform="translate(95.000000, 74.000000)">
                    <g id="icn_categories-suggestion_fitness" transform="translate(10.000000, 5.000000)">
                        <path d="M1.95443845,16.1254187 C1.95443845,11.7224849 0,8.69892914 0,6.57734778 C0,4.45576643 1.04513091,0 9.4089056,0 C17.7726803,0 19,5.99427892 19,8.32782745 C19.0005455,19.2552763 1.95443845,23.9230099 1.95443845,16.1254187 Z" id="Path" fill="#EFEFEF"></path>
                        <path d="M15.4565916,11.0867106 C14.8175241,13.8125575 11.5920418,13.9196869 10.1752412,12.7115058 C8.98151125,13.9792032 6.89549839,14.0506228 5.70779743,12.8007803 C4.75522508,12.5984248 3.89308682,12.0925362 3.01889068,11.2116948 C2.75361736,10.9498231 2.6511254,10.5689187 2.7596463,10.2118208 C3.15152733,8.87865553 4.15836013,5.43266126 4.54421222,4.12330247 C4.64067524,3.8019144 4.89389068,3.54004264 5.21945338,3.43886492 L7.14268489,2.81394368 C7.57073955,2.67705617 8.04702572,2.78418552 8.36655949,3.09962196 L9.12017685,3.83167256 C9.29501608,3.99831822 9.32516077,4.26018998 9.19252412,4.46254543 L8.45096463,5.61716182 C8.2761254,5.89093684 7.87821543,5.93854988 7.63705788,5.70643628 L7.06430868,5.14103135 L5.84043408,9.24765665 C7.04019293,8.12875004 9.02371383,8.24183103 10.1752412,9.46191536 C11.5920418,8.25373429 14.8175241,8.36086365 15.4565916,11.0867106 L15.4565916,11.0867106 Z" id="Path" fill="#F3F3F1"></path>
                        <path d="M10.1288183,13.5905617 L10.4821141,13.2417961 C10.7178457,13.0090874 11.0994775,13.0090874 11.3346061,13.2417961 L12.8936897,14.7808879 C13.1294212,15.0135966 13.1294212,15.3903349 12.8936897,15.6224485 L12.5403939,15.971214 C12.3046624,16.2039228 11.9230305,16.2039228 11.6879019,15.971214 L10.1288183,14.4321223 C9.89308682,14.2000087 9.89308682,13.8232705 10.1288183,13.5905617 Z" id="Path" fill="#FCBE4B"></path>
                        <path d="M13.341037,10.4195328 L13.6943328,10.0707672 C13.9300643,9.83805843 14.3116961,9.83805843 14.5468248,10.0707672 L16.1059084,11.6098589 C16.3416399,11.8425677 16.3416399,12.2193059 16.1059084,12.4514195 L15.7526125,12.8001851 C15.516881,13.0328939 15.1352492,13.0328939 14.9001206,12.8001851 L13.341037,11.2610934 C13.1059084,11.0283846 13.1059084,10.6516464 13.341037,10.4195328 Z" id="Path" fill="#FCBE4B"></path>
                        <path d="M8.46302251,13.6459119 C7.48030547,13.8304124 6.4312701,13.5566374 5.70779743,12.8007803 C4.75522508,12.5984248 3.89308682,12.0925362 3.01889068,11.2116948 C2.75361736,10.9498231 2.6511254,10.5689187 2.7596463,10.2118208 C3.15152733,8.87865553 4.15836013,5.43266126 4.54421222,4.12330247 C4.64067524,3.8019144 4.89389068,3.54004264 5.21945338,3.43886492 L7.14268489,2.81394368 C7.45618971,2.71276595 7.79983923,2.74252411 8.08319936,2.90321814 L6.42524116,3.43886492 C6.09967846,3.54004264 5.84646302,3.8019144 5.75,4.12330247 C5.36414791,5.43266126 4.35731511,8.87865553 3.96543408,10.2118208 C3.85691318,10.5689187 3.95940514,10.9498231 4.22467846,11.2116948 C5.0988746,12.0925362 5.96101286,12.5984248 6.91358521,12.8007803 C7.34163987,13.2531042 7.88424437,13.5328309 8.46302251,13.6459119 L8.46302251,13.6459119 Z" id="Path" fill="#D5DBE1"></path>
                        <path d="M12.7194534,15.8004022 L12.5385852,15.9729995 C12.3034566,16.2051131 11.9236334,16.2051131 11.6885048,15.9729995 L10.1270096,14.4315271 C9.89188103,14.1994135 9.89188103,13.8244608 10.1270096,13.5923472 L10.482717,13.241201 C10.7178457,13.0090874 11.0976688,13.0090874 11.3327974,13.241201 L11.5136656,13.4197499 L11.3327974,13.5923472 C11.0976688,13.8244608 11.0976688,14.1994135 11.3327974,14.4315271 L12.7194534,15.8004022 Z" id="Path" fill="#E1960A"></path>
                        <path d="M15.9328778,12.628183 L15.7520096,12.8007803 C15.516881,13.0328939 15.1370579,13.0328939 14.9019293,12.8007803 L13.3404341,11.2593079 C13.1053055,11.0271943 13.1053055,10.6522415 13.3404341,10.4201279 L13.6961415,10.0689817 C13.9312701,9.8368681 14.3110932,9.8368681 14.5462219,10.0689817 L14.72709,10.2475306 L14.5462219,10.4201279 C14.3110932,10.6522415 14.3110932,11.0271943 14.5462219,11.2593079 L15.9328778,12.628183 Z" id="Path" fill="#E1960A"></path>
                        <path d="M12.1141479,16.591374 C11.8440514,16.591374 11.573955,16.4896011 11.3683682,16.2866505 L9.80928457,14.7475587 C9.39750804,14.3410623 9.39750804,13.6810265 9.80928457,13.2745301 L10.1625804,12.9257645 C10.573754,12.5198633 11.2435691,12.5198633 11.6547428,12.9257645 L13.2138264,14.4648563 C13.6256029,14.8713527 13.6256029,15.5313885 13.2138264,15.9378849 L12.8605305,16.2866505 C12.6543408,16.4896011 12.3842444,16.591374 12.1141479,16.591374 Z M10.9083601,13.5137857 C10.8697749,13.5137857 10.8311897,13.5280696 10.8016479,13.5572326 L10.4483521,13.9059981 C10.3892685,13.9643241 10.3892685,14.0583599 10.4483521,14.1166859 L12.0074357,15.6557776 C12.0665193,15.7141036 12.1617765,15.7141036 12.2208601,15.6557776 L12.5741559,15.307012 C12.6332395,15.2486861 12.6332395,15.1546503 12.5741559,15.0963243 L11.0150723,13.5572326 C10.9855305,13.5286647 10.9469453,13.5137857 10.9083601,13.5137857 Z" id="Shape" fill="#2B2B2B"></path>
                        <path d="M15.3263666,13.420345 C15.0562701,13.420345 14.7861736,13.3185722 14.5805868,13.1156215 L13.0215032,11.5765298 C12.6097267,11.1700334 12.6097267,10.5099976 13.0215032,10.1035012 L13.374799,9.7547356 C13.7859727,9.34883437 14.4557878,9.34883437 14.8669614,9.7547356 L16.426045,11.2938273 C16.8378215,11.7003237 16.8378215,12.3603596 16.426045,12.766856 L16.0727492,13.1156215 C15.8671624,13.3185722 15.596463,13.420345 15.3263666,13.420345 Z M14.1205788,10.3427567 C14.0819936,10.3427567 14.0434084,10.3570406 14.0138666,10.3862036 L13.6605707,10.7349692 C13.6014871,10.7932952 13.6014871,10.887331 13.6605707,10.9456569 L15.2196543,12.4847487 C15.2787379,12.5430747 15.3739952,12.5430747 15.4330788,12.4847487 L15.7863746,12.1359831 C15.8454582,12.0776571 15.8454582,11.9836214 15.7863746,11.9252954 L14.227291,10.3862036 C14.1977492,10.3570406 14.1597669,10.3427567 14.1205788,10.3427567 Z" id="Shape" fill="#2B2B2B"></path>
                        <polygon id="Path" fill="#2B2B2B" transform="translate(13.114562, 13.020780) rotate(-45.000000) translate(-13.114562, -13.020780) " points="11.8410164 12.5633775 14.3823104 12.5797759 14.3881076 13.478183 11.8468136 13.4617845"></polygon>
                        <path d="M9.89971865,10.5582058 L9.13102894,10.0886221 L9.36917203,9.70890804 C9.8358119,8.96316869 10.7666801,8.4406155 11.8585209,8.31146511 L12.307074,8.2584956 L12.414992,9.14469343 L11.965836,9.19825811 C11.1573553,9.2934842 10.4573955,9.66903211 10.1384646,10.1778966 L9.89971865,10.5582058 Z" id="Path" fill="#2B2B2B"></path>
                        <path d="M7.26567524,13.4477226 C5.49859325,13.4477226 3.96603698,12.8049464 2.69694534,11.5271313 C2.31471061,11.1497979 2.17182476,10.5962962 2.32797428,10.0856463 L3.03094855,7.68475838 C3.43790193,6.29564774 3.88283762,4.77500605 4.11133441,4.00129404 C4.25180868,3.52932971 4.6153537,3.16151892 5.08380225,3.01629913 L6.99859325,2.39137788 C7.59304662,2.19735472 8.23934887,2.34614549 8.68488746,2.78120971 L9.43910772,3.51683128 C9.76346463,3.82631609 9.82134244,4.32803857 9.57355305,4.70715746 L8.83380225,5.85879803 C8.67765273,6.1028149 8.41901125,6.26291377 8.12419614,6.29743322 C7.83118971,6.32957203 7.53516881,6.23434594 7.32234727,6.02901467 L6.96844855,5.67965394 L5.80426045,6.24743953 L5.40393891,5.44635001 L6.85872186,4.73751077 C7.03114952,4.65359278 7.24155949,4.68692191 7.3784164,4.8226191 L7.95719453,5.39397566 C7.97467846,5.41064023 8.00060289,5.41302088 8.01808682,5.41064023 L8.81089228,4.22626568 C8.82837621,4.19948334 8.82536174,4.17389133 8.80606913,4.15544127 L8.04823151,3.41624872 C7.84626206,3.21805941 7.55204984,3.15140115 7.28195338,3.23889012 L5.36053055,3.86559685 C5.17604502,3.92332767 5.03195338,4.07092812 4.97769293,4.25245286 C4.74979904,5.02497454 4.30486334,6.54442591 3.89851286,7.93353655 L3.1937299,10.3391857 C3.13223473,10.5385654 3.18830386,10.7516338 3.33782154,10.8992342 C4.68528939,12.2550157 6.37942122,12.7793544 8.37801447,12.4645131 L8.82475884,12.3936887 L8.96764469,13.2751253 L8.52150322,13.3453545 C8.09163987,13.4137983 7.67262862,13.4477226 7.26567524,13.4477226 L7.26567524,13.4477226 Z" id="Path" fill="#2B2B2B"></path>
                        <path d="M10.1095257,10.0219638 L9.79059486,9.70593222 C8.86635852,8.78997623 7.35249196,8.65785003 6.34445338,9.4047797 L5.98271704,9.67260309 L5.44011254,8.95900255 L5.80184887,8.69117916 C7.18609325,7.66571316 9.17684887,7.83235883 10.4314711,9.07565451 L10.7504019,9.39168611 L10.1095257,10.0219638 Z" id="Path" fill="#2B2B2B"></path>
                        <polygon id="Path" fill="#2B2B2B" transform="translate(6.329884, 7.573578) rotate(-73.613694) translate(-6.329884, -7.573578) " points="3.77076151 7.11276556 8.88586738 7.13072975 8.88900678 8.03439054 3.77390091 8.01642634"></polygon>
                        <path d="M14.4919614,3.49838123 C13.9933682,3.49838123 13.5876206,3.09783647 13.5876206,2.6056366 C13.5876206,2.11343672 13.9933682,1.71289197 14.4919614,1.71289197 C14.9905547,1.71289197 15.3963023,2.11343672 15.3963023,2.6056366 C15.3963023,3.09783647 14.9905547,3.49838123 14.4919614,3.49838123 Z M14.4919614,2.30805505 C14.3261656,2.30805505 14.1905145,2.44196675 14.1905145,2.6056366 C14.1905145,2.76930645 14.3261656,2.90321814 14.4919614,2.90321814 C14.6577572,2.90321814 14.7934084,2.76930645 14.7934084,2.6056366 C14.7934084,2.44196675 14.6583601,2.30805505 14.4919614,2.30805505 Z" id="Shape" fill="#A4AFC1"></path>
                    </g>
                </g>
            </g>
        </g>
    </g>
</svg>