<?xml version="1.0" encoding="UTF-8"?>
<svg width="265px" height="237px" viewBox="0 0 265 237" version="1.1" xmlns="http://www.w3.org/2000/svg" xmlns:xlink="http://www.w3.org/1999/xlink">
    <title>E91B8968-7C72-4B39-921E-6A9239D53C0D@1.5x</title>
    <defs>
        <polygon id="path-1" points="0 237 265 237 265 0 0 0"></polygon>
    </defs>
    <g id="Design" stroke="none" stroke-width="1" fill="none" fill-rule="evenodd">
        <g id="09_VirtualLearn_Menu_my-course" transform="translate(-56.000000, -203.000000)">
            <g id="img_my-course_empty" transform="translate(56.000000, 203.000000)">
                <path d="M14.187319,117.129146 C14.187319,117.129146 12.2210371,145.392305 46.4331239,140.681741 L48.3994059,145.392305 C48.3994059,145.392305 58.116825,126.833954 42.1075745,123.802483 C38.9185456,123.198622 29.1304749,123.409973 29.1304749,123.409973 L14.187319,117.129146 Z" id="Fill-1" fill="#5CC2AD"></path>
                <path d="M19.2994037,169.729874 C19.2994037,169.729874 15.3668399,172.085156 8.28858603,182.291303 L5.53565588,176.79572 L14.9736286,166.589573 L19.2994037,169.729874 Z" id="Fill-3" fill="#000000"></path>
                <path d="M8.28851831,182.291303 C8.28851831,182.291303 0.423616269,174.047928 4.74916567,166.589573 C4.74916567,166.589573 8.68172956,159.916236 15.7602091,160.70148 C15.7602091,160.70148 27.9506606,147.355033 42.8942679,155.598407 C42.8942679,155.598407 46.0399578,173.262909 16.1534204,171.692646 C16.1534204,171.692646 6.32223637,171.692646 8.28851831,182.291303" id="Fill-5" fill="#5CC2AD"></path>
                <path d="M7.95810349,182.364577 C6.3080609,174.953314 8.46079089,169.384952 10.5570899,166.018654 C12.828325,162.371155 15.4546239,160.502792 15.5652287,160.425056 L15.9552798,160.977769 C15.9290958,160.996246 13.3145345,162.860102 11.1171112,166.399672 C9.09575256,169.655338 7.02157453,175.042316 8.61902342,182.218118 L7.95810349,182.364577 Z" id="Fill-7" fill="#17311D"></path>
                <path d="M57.6407504,159.720004 C57.6407504,159.720004 60.3934549,150.691611 69.0447794,151.47663 C69.0447794,151.47663 73.7994302,144.520515 82.8085273,150.691611 C85.9616661,152.851314 88.7071474,155.401949 87.5272879,165.215587 C87.5272879,165.215587 84.5779779,160.308768 76.9096814,160.112514 C71.699971,159.979123 57.6407504,159.720004 57.6407504,159.720004" id="Fill-9" fill="#5CC2AD"></path>
                <path d="M87.2061729,165.322457 C84.7087624,157.843146 79.8611133,154.599874 76.2346312,153.196123 C72.3029702,151.674529 68.933362,151.920805 68.8997291,151.923509 L68.8460068,151.249799 C68.9891158,151.238307 72.4040945,150.988652 76.479316,152.5659 C80.2414583,154.021925 85.267655,157.380111 87.8485835,165.108852 L87.2061729,165.322457 Z" id="Fill-11" fill="#17311D"></path>
                <path d="M49.9725217,178.365893 L36.9954221,178.365893 C34.226917,178.365893 31.8006095,179.747562 30.1607244,181.0195 C28.7765848,182.087072 27.9506606,183.076457 27.9506606,183.076457 C27.6834033,179.892894 29.0361674,176.889814 30.9080967,174.793651 C31.8085098,173.784888 32.8269766,172.987928 33.8495064,172.4778 C46.0835226,166.369795 49.9725217,178.365893 49.9725217,178.365893" id="Fill-13" fill="#197A83"></path>
                <path d="M44.8505277,178.408681 C43.3528488,170.674082 37.4980192,171.363339 37.2501742,171.396236 L37.1896802,170.94965 C37.2553658,170.940412 43.7133301,170.161026 45.2936239,178.323059 L44.8505277,178.408681 Z" id="Fill-15" fill="#020403"></path>
                <polygon id="Fill-17" fill="#22452A" points="47.8429059 198.870456 44.2602142 177.362425 45.3734851 177.177662 48.9561767 198.685692"></polygon>
                <path d="M51.7108675,199.250235 L50.5937594,199.090933 C52.2801435,187.306636 51.9365916,180.644115 51.3779246,175.680966 C49.525859,159.229142 41.2194408,156.159367 41.1354715,156.1303 L41.5067875,155.066334 C41.8758463,155.194767 50.5689297,158.405368 52.4995473,175.555011 C53.0661146,180.588911 53.4155353,187.34066 51.7108675,199.250235" id="Fill-19" fill="#5CC2AD"></path>
                <path d="M51.5728599,176.54505 C50.0198786,156.683216 47.2809434,140.740167 47.253405,140.581315 L48.365773,140.389567 C48.3933113,140.548644 51.1410498,156.543742 52.6978684,176.4574 L51.5728599,176.54505 Z" id="Fill-21" fill="#5CC2AD"></path>
                <path d="M56.6196878,200.269024 L55.5156716,200.034916 C62.1124561,169.047849 62.1887509,157.478059 62.1887509,157.364722 L63.317371,157.364722 C63.317371,157.479185 63.2408505,169.167495 56.6196878,200.269024" id="Fill-23" fill="#5CC2AD"></path>
                <path d="M48.2612853,145.246657 C48.2418731,145.1189 46.2144199,132.418223 37.4391729,128.229052 C35.0424353,127.084871 28.0641772,123.550484 27.9942027,123.514883 L28.3005102,122.912149 C28.3707104,122.947749 35.341971,126.478307 37.7314855,127.619333 C46.8324523,131.964201 48.9109191,145.013901 48.9310085,145.145263 L48.2612853,145.246657 Z" id="Fill-25" fill="#17311D"></path>
                <path d="M30.1608373,181.019455 C28.7764719,182.087027 27.9507734,183.076412 27.9507734,183.076412 C27.6832905,179.892849 29.0362802,176.889769 30.9082095,174.793606 C30.5226729,176.293118 29.9996704,178.805449 30.1608373,181.019455" id="Fill-27" fill="#020403"></path>
                <polygon id="Fill-29" fill="#4F216C" points="33.2596895 197.011646 71.011129 197.011646 65.5054945 235.873462 38.7650984 235.873462"></polygon>
                <path d="M242.821509,133.561638 C242.821509,133.561638 248.84518,156.728257 219.701952,158.112631 L218.800862,162.32884 C218.800862,162.32884 207.848055,148.421342 220.671888,143.425522 C223.226181,142.430504 231.387684,141.090744 231.387684,141.090744 L242.821509,133.561638 Z" id="Fill-31" fill="#5CC2AD"></path>
                <path d="M248.482239,180.764211 C248.482239,180.764211 252.347988,181.018599 261.614185,185.960117 L261.557302,180.769619 L250.518269,176.737497 L248.482239,180.764211 Z" id="Fill-33" fill="#000000"></path>
                <path d="M261.61414,185.96014 C261.61414,185.96014 264.336146,176.734816 258.201193,172.797554 C258.201193,172.797554 252.665085,169.298316 247.649949,172.615945 C247.649949,172.615945 233.327986,167.284846 225.287019,179.237908 C225.287019,179.237908 229.754549,193.723805 251.605085,181.026733 C251.605085,181.026733 258.992807,177.238183 261.61414,185.96014" id="Fill-35" fill="#5CC2AD"></path>
                <path d="M261.286569,186.045739 C258.281279,174.580497 247.709495,172.965621 247.602953,172.95075 L247.696629,172.28132 C247.810394,172.297093 250.516599,172.690504 253.643102,174.561345 C256.528758,176.288206 260.310764,179.652477 261.94162,185.874495 L261.286569,186.045739 Z" id="Fill-37" fill="#17311D"></path>
                <path d="M211.545279,171.539045 C211.545279,171.539045 209.21987,163.911699 201.911152,164.575044 C201.911152,164.575044 197.894619,158.698443 190.283656,163.911699 C187.619887,165.736349 185.300347,167.891321 186.297144,176.181562 C186.297144,176.181562 188.788912,172.036554 195.266966,171.870718 C199.668132,171.758057 211.545279,171.539045 211.545279,171.539045" id="Fill-39" fill="#5CC2AD"></path>
                <path d="M186.618214,176.288499 L185.975804,176.074895 C188.162618,169.526161 192.422933,166.680355 195.611736,165.446271 C199.064637,164.109891 201.961127,164.321468 202.08347,164.330931 L202.029747,165.004641 C202.001532,165.002613 199.14206,164.797797 195.829786,166.086859 C191.402435,167.809664 188.30347,171.241982 186.618214,176.288499" id="Fill-41" fill="#17311D"></path>
                <path d="M221.43549,204.956087 C220.219289,197.392732 220.020426,192.045185 220.770507,187.075276 C221.613586,181.486636 224.937147,178.14625 227.576763,176.327683 C230.423369,174.366938 233.044476,173.72635 233.154629,173.700213 L233.417598,174.795724 C233.317376,174.819834 223.383488,177.321349 221.886261,187.243141 C221.154915,192.091601 221.353326,197.335501 222.549889,204.777633 L221.43549,204.956087 Z" id="Fill-43" fill="#5CC2AD"></path>
                <path d="M217.380177,205.887745 C214.803312,190.804522 215.461072,178.248951 216.466672,170.371949 C217.558273,161.820786 219.236532,156.913742 219.307409,156.70915 L220.374181,157.0771 C220.305786,157.274256 213.611489,177.126626 218.492997,205.69825 L217.380177,205.887745 Z" id="Fill-45" fill="#5CC2AD"></path>
                <path d="M212.322311,205.812939 C206.727064,179.529451 206.662282,169.645964 206.662282,169.549076 L207.790902,169.549076 C207.790902,169.644838 207.863133,179.446984 213.426328,205.57883 L212.322311,205.812939 Z" id="Fill-47" fill="#5CC2AD"></path>
                <path d="M218.941059,162.251465 L218.273141,162.141057 C218.288942,162.044395 219.943048,152.389834 225.721583,146.181785 C227.260118,144.528829 231.762635,140.681696 231.953371,140.518563 L232.393533,141.032521 C232.347034,141.071952 227.729849,145.0171 226.217498,146.641891 C220.580492,152.698524 218.956859,162.156604 218.941059,162.251465" id="Fill-49" fill="#17311D"></path>
                <polygon id="Fill-51" fill="#4F216C" points="232.142596 203.042953 200.250049 203.042953 204.901092 235.873372 227.491778 235.873372"></polygon>
                <path d="M220.423908,233.00758 L207.575696,235.763933 C206.482515,235.998493 205.405811,235.303827 205.170833,234.212597 L184.274206,137.155961 L188.239048,115.061419 L200.351399,132.499699 L201.081616,133.550146 L221.978243,230.606783 C222.212996,231.698013 221.517315,232.77302 220.423908,233.00758" id="Fill-53" fill="#F1884F"></path>
                <polygon id="Fill-55" fill="#FCBB9D" points="201.088591 133.583313 184.281181 137.189128 184.274183 137.15578 186.542935 124.514813 188.239026 115.061239 193.471083 122.59395 193.734051 122.972039 201.081594 133.550191"></polygon>
                <polygon id="Fill-57" fill="#373133" points="193.734029 122.972084 186.542913 124.514858 188.239003 115.061284"></polygon>
                <polygon id="Fill-59" fill="#D87245" points="217.249664 208.64518 208.843701 210.436709 192.362687 134.213492 200.351512 132.499699 201.081503 133.550146"></polygon>
                <polygon id="Fill-61" fill="#DBA18A" points="201.088591 133.583313 192.618297 135.400529 190.012991 123.300332 193.471083 122.59395 193.734051 122.972039 201.081594 133.550191"></polygon>
                <polygon id="Fill-63" fill="#161415" points="193.734029 122.972084 190.109578 123.749667 188.239003 115.061284"></polygon>
                <path d="M220.423908,233.00758 L207.575696,235.763933 C206.482515,235.998493 205.405811,235.303827 205.170833,234.212597 L202.657621,222.540285 L219.465032,218.934696 L221.978243,230.606783 C222.212996,231.698013 221.517315,232.77302 220.423908,233.00758" id="Fill-65" fill="#EE504F"></path>
                <polygon id="Fill-67" fill="#373133" points="219.536677 219.267518 202.729492 222.873333 200.249688 211.355591 217.056873 207.749777"></polygon>
                <path d="M220.423908,233.00758 L214.033209,234.378659 L211.094734,220.730281 L219.465032,218.934696 L221.978243,230.606783 C222.212996,231.698013 221.517315,232.77302 220.423908,233.00758" id="Fill-69" fill="#CE4646"></path>
                <polygon id="Fill-71" fill="#161415" points="219.536677 219.267518 211.166379 221.063328 208.686575 209.545586 217.056873 207.749777"></polygon>
                <path d="M204.047675,171.529672 C204.047675,171.529672 199.821444,178.882126 204.047675,184.908566 L114.574059,184.908566 L114.574059,171.529672 L204.047675,171.529672 Z" id="Fill-73" fill="#DBDCF1"></path>
                <path d="M205.496801,185.391451 C205.496801,185.722899 205.361141,186.024829 205.142414,186.243616 C204.925493,186.459924 204.623023,186.595117 204.2885,186.595117 L71.1842368,186.595117 C68.7723756,186.595117 66.81896,184.645413 66.81896,182.24011 L66.81896,174.681937 C66.81896,172.274606 68.7723756,170.324677 71.1842368,170.324677 L204.2885,170.324677 C204.956869,170.324677 205.496801,170.863419 205.496801,171.530595 C205.496801,172.195518 204.956869,172.734261 204.2885,172.734261 L121.607371,172.734261 C119.990284,172.734261 118.680859,174.044053 118.680859,175.658028 L118.680859,181.261765 C118.680859,182.875741 119.990284,184.185533 121.607371,184.185533 L204.2885,184.185533 C204.956869,184.185533 205.496801,184.724276 205.496801,185.391451" id="Fill-75" fill="#EE504F"></path>
                <path d="M205.476102,185.166896 C205.552848,185.584642 205.409965,185.97625 205.142256,186.243481 C204.925561,186.460015 204.623091,186.595207 204.288568,186.595207 L120.822597,186.595207 C118.060638,186.595207 115.821681,184.360247 115.821681,181.603442 L115.821681,175.316532 C115.821681,172.559502 118.060638,170.324541 120.822597,170.324541 L204.236651,170.324541 C204.867324,170.324541 205.430731,170.784647 205.491,171.411265 C205.560297,172.129814 204.996664,172.734351 204.288568,172.734351 L121.607213,172.734351 C119.991029,172.734351 118.680701,174.04234 118.680701,175.655865 L118.680701,181.261856 C118.680701,182.876507 119.991932,184.185623 121.609696,184.185623 L204.24726,184.185623 C204.836174,184.185623 205.370011,184.588497 205.476102,185.166896" id="Fill-77" fill="#D34848"></path>
                <path d="M203.504312,212.851904 C203.504312,212.851904 199.097276,224.00102 203.504312,233.824346 L136.24826,233.824346 L136.24826,212.851904 L203.504312,212.851904 Z" id="Fill-79" fill="#DBDCF1"></path>
                <path d="M205.915632,234.13761 C205.947459,234.631514 205.759656,235.079002 205.442514,235.397831 C205.146816,235.690749 204.740287,235.873484 204.288613,235.873484 L62.3592176,235.873484 C58.6200992,235.873484 55.5888514,232.847647 55.5888514,229.115427 L55.5888514,217.438834 C55.5888514,213.708192 58.6194221,210.683255 62.3592176,210.683255 L204.284098,210.683255 C205.143655,210.683255 205.892833,211.344573 205.919126,212.202371 C205.94475,213.089685 205.232816,213.816346 204.349784,213.816346 L144.053707,213.816346 C141.009367,213.816346 138.541526,216.280007 138.541526,219.318914 L138.541526,227.11818 C138.541526,230.15596 141.008238,232.618495 144.051449,232.618495 L204.229473,232.618495 C205.098511,232.618495 205.859652,233.271926 205.915632,234.13761" id="Fill-81" fill="#197A83"></path>
                <path d="M205.915632,234.13761 C205.947459,234.631514 205.759656,235.079002 205.442514,235.397831 C205.146816,235.690749 204.740287,235.873484 204.288613,235.873484 L142.572054,235.873484 C138.39932,235.873484 135.016394,232.496596 135.016394,228.331309 L135.016394,218.225205 C135.016394,214.059918 138.39932,210.683255 142.572054,210.683255 L204.284098,210.683255 C205.143655,210.683255 205.892833,211.344573 205.91834,212.202371 C205.94475,213.089685 205.232816,213.816346 204.349784,213.816346 L144.053707,213.816346 C141.009367,213.816346 138.541526,216.280007 138.541526,219.318914 L138.541526,227.11818 C138.541526,230.15596 141.008238,232.618495 144.051449,232.618495 L204.229473,232.618495 C205.098511,232.618495 205.859652,233.271926 205.915632,234.13761" id="Fill-83" fill="#156468"></path>
                <mask id="mask-2" fill="white">
                    <use xlink:href="#path-1"></use>
                </mask>
                <g id="Clip-86"></g>
                <polygon id="Fill-85" fill="#373133" mask="url(#mask-2)" points="160.651397 218.080233 198.170792 218.080233 198.170792 217.813678 160.651397 217.813678"></polygon>
                <polygon id="Fill-87" fill="#AFAFD5" mask="url(#mask-2)" points="182.215061 217.813701 184.95219 230.342233 187.822948 225.810574 187.822948 218.746756"></polygon>
                <path d="M196.100835,221.068105 C196.100835,221.084553 196.100384,221.093115 196.100384,221.093115 L196.100384,230.309201 L190.637411,226.218946 L184.946457,230.309201 L184.946457,221.029349 C184.946457,218.757211 182.214971,217.811763 182.214971,217.811763 L194.279468,217.80275 C196.084583,218.343521 196.104672,220.793438 196.100835,221.068105" id="Fill-88" fill="#6D68E0" mask="url(#mask-2)"></path>
                <path d="M196.100835,221.068105 L184.946457,221.068105 L184.946457,221.029349 C184.946457,218.757211 182.214971,217.811763 182.214971,217.811763 L194.279468,217.80275 C196.084583,218.343521 196.104672,220.793438 196.100835,221.068105" id="Fill-89" fill="#5A5ABA" mask="url(#mask-2)"></path>
                <path d="M62.1095894,187.781298 C62.1095894,187.781298 66.577345,199.954949 62.1095894,209.115381 L150.375582,209.115381 L150.375582,187.781298 L62.1095894,187.781298 Z" id="Fill-90" fill="#DBDCF1" mask="url(#mask-2)"></path>
                <path d="M211.051959,194.574933 L211.051959,202.622278 C211.051959,207.074174 207.436537,210.683143 202.976908,210.683143 L62.2303066,210.683143 C61.5307879,210.683143 60.9635434,210.117136 60.9635434,209.41864 L60.9635434,209.355325 C60.9635434,208.657055 61.5307879,208.090823 62.2303066,208.090823 L142.224642,208.090823 C145.426086,208.090823 148.021461,205.50008 148.021461,202.304576 L148.021461,194.832025 C148.021461,191.637421 145.426989,189.047805 142.226899,189.047805 L62.2303066,189.047805 C61.8804344,189.047805 61.5641951,188.905628 61.3339566,188.6758 C61.086563,188.426595 60.9402939,188.076671 60.9667036,187.692273 C61.0125256,187.02014 61.6086627,186.516322 62.2833518,186.516322 L202.97894,186.516322 C207.43744,186.516322 211.051959,190.12439 211.051959,194.574933" id="Fill-91" fill="#F1884F" mask="url(#mask-2)"></path>
                <path d="M151.614017,193.795322 L151.614017,203.404143 C151.614017,207.424097 148.34937,210.683143 144.322002,210.683143 L62.2304647,210.683143 C61.5307202,210.683143 60.9634757,210.117136 60.9634757,209.41864 L60.9634757,209.355325 C60.9634757,208.657055 61.5307202,208.090823 62.2304647,208.090823 L142.224575,208.090823 C145.426018,208.090823 148.021393,205.50008 148.021393,202.304576 L148.021393,194.832025 C148.021393,191.637421 145.426921,189.047805 142.226832,189.047805 L62.2304647,189.047805 C61.8803667,189.047805 61.5643531,188.905628 61.3338888,188.6758 C61.0864953,188.426595 60.9402261,188.076671 60.9666359,187.692273 C61.0124578,187.02014 61.608595,186.516322 62.2832841,186.516322 L144.322002,186.516322 C148.34937,186.516322 151.614017,189.775142 151.614017,193.795322" id="Fill-92" fill="#D37146" mask="url(#mask-2)"></path>
                <polygon id="Fill-93" fill="#373133" mask="url(#mask-2)" points="70.1245528 202.286347 107.643722 202.286347 107.643722 202.019792 70.1245528 202.019792"></polygon>
                <polygon id="Fill-94" fill="#AFAFD5" mask="url(#mask-2)" points="80.9981303 208.054794 85.7954429 208.054794 85.7954429 201.973827 80.9981303 201.973827"></polygon>
                <polygon id="Fill-95" fill="#A82329" mask="url(#mask-2)" points="82.9873007 207.294696 82.9873007 226.601789 77.7236422 221.888972 72.6978969 226.601789 72.6978969 208.054929"></polygon>
                <path d="M85.7953978,201.973782 L75.5915434,201.973782 C75.5915434,201.973782 75.5915434,206.534507 72.6979872,208.054749 L82.9018416,208.054749 C82.9018416,208.054749 85.7953978,207.294741 85.7953978,201.973782" id="Fill-96" fill="#EE504F" mask="url(#mask-2)"></path>
                <path d="M184.385217,146.994203 C184.385217,146.994203 180.88356,156.805137 184.385217,167.532452 L95.8844715,167.532452 L95.8844715,147.355844 L184.385217,146.994203 Z" id="Fill-97" fill="#DBDCF1" mask="url(#mask-2)"></path>
                <path d="M99.9933258,144.175391 L184.505979,144.175391 C185.472755,144.175391 186.256695,144.957931 186.256695,145.923207 C186.256695,146.888483 185.472755,147.670798 184.505979,147.670798 L100.807964,147.670798 C98.3852679,147.670798 96.4210175,149.631542 96.4210175,152.05014 L96.4210175,162.3356 C96.4210175,164.754197 98.3852679,166.714716 100.807964,166.714716 L184.505979,166.714716 C185.472755,166.714716 186.256695,167.497257 186.256695,168.462532 L186.256695,168.583079 C186.256695,169.548355 185.472755,170.330895 184.505979,170.330895 L99.9933258,170.330895 C96.4867032,170.330895 93.6439348,167.493201 93.6439348,163.992837 L93.6439348,150.513449 C93.6439348,147.013085 96.4867032,144.175391 99.9933258,144.175391" id="Fill-98" fill="#6D68E0" mask="url(#mask-2)"></path>
                <polygon id="Fill-99" fill="#373133" mask="url(#mask-2)" points="135.549757 160.968982 173.068927 160.968982 173.068927 160.702427 135.549757 160.702427"></polygon>
                <polygon id="Fill-100" fill="#AFAFD5" mask="url(#mask-2)" points="156.920856 166.734499 160.874187 166.734499 160.874187 160.697019 156.920856 160.697019"></polygon>
                <polygon id="Fill-101" fill="#156468" mask="url(#mask-2)" points="159.642659 165.980057 159.642659 181.714007 164.327561 177.034763 169.115167 181.714007 169.115167 166.734657"></polygon>
                <path d="M156.920969,160.697109 L166.242242,160.697109 C166.242242,160.697109 166.242242,165.225388 169.115032,166.73459 L159.793984,166.73459 C159.793984,166.73459 156.920969,165.979989 156.920969,160.697109" id="Fill-102" fill="#197A83" mask="url(#mask-2)"></path>
                <path d="M169.879153,11.5624451 L167.507922,21.148959 C167.507922,21.148959 176.459234,29.4335671 192.821291,26.9482748 L194.569975,17.3912781 L169.879153,11.5624451 Z" id="Fill-103" fill="#373133" mask="url(#mask-2)"></path>
                <polygon id="Fill-104" fill="#564F51" mask="url(#mask-2)" points="180.66849 19.6104211 160.038218 9.25466082 160.571829 8.0710488 204.44039 18.4270344 204.262519 19.6104211"></polygon>
                <polygon id="Fill-105" fill="#373133" mask="url(#mask-2)" points="160.601534 8.100656 183.721543 9.2840427 204.41073 18.3973821 181.053711 18.3973821"></polygon>
                <polygon id="Fill-106" fill="#F1884F" mask="url(#mask-2)" points="193.603086 30.5579648 192.592294 30.5579648 192.592294 18.6774563 183.068997 12.7600721 183.60306 11.9034011 193.603086 18.1170826"></polygon>
                <path d="M181.038813,11.2730877 C181.038813,11.2730877 180.868843,11.3424866 180.696164,11.4909733 C180.381505,11.7620346 180.405206,12.254812 180.740406,12.5008627 C181.180793,12.8239732 182.027936,13.241944 183.48047,13.2647014 C183.886547,13.2710104 184.206398,12.9100459 184.132812,12.5112275 C184.109337,12.3823438 184.069835,12.2518828 184.006181,12.1335892 L181.038813,11.2730877 Z" id="Fill-107" fill="#F1884F" mask="url(#mask-2)"></path>
                <path d="M184.016,12.2951895 C183.928645,12.6275382 183.152154,12.7120337 182.281085,12.484234 C181.410242,12.2564343 180.774829,11.8021869 180.861958,11.4700635 C180.949313,11.1379401 181.725804,11.0532193 182.596873,11.2812443 C183.467942,11.509044 184.103355,11.9630662 184.016,12.2951895" id="Fill-108" fill="#564F51" mask="url(#mask-2)"></path>
                <path d="M193.117486,30.3508045 L193.117486,30.3508045 C193.511826,30.3508045 193.832805,30.6673807 193.837546,31.0610168 L193.851089,32.1547257 L194.36258,36.2388969 L191.872618,36.2388969 L192.383883,32.1567535 L192.397426,31.0607915 C192.402167,30.6673807 192.723372,30.3508045 193.117486,30.3508045" id="Fill-109" fill="#F1884F" mask="url(#mask-2)"></path>
                <path d="M53.5825711,86.0348269 C53.5825711,92.3814478 48.4283888,97.5262057 42.0706461,97.5262057 C35.7126776,97.5262057 30.558721,92.3814478 30.558721,86.0348269 C30.558721,79.6882059 35.7126776,74.543448 42.0706461,74.543448 C48.4283888,74.543448 53.5825711,79.6882059 53.5825711,86.0348269" id="Fill-110" fill="#DBDCF1" mask="url(#mask-2)"></path>
                <polygon id="Fill-111" fill="#EE504F" mask="url(#mask-2)" points="37.7942142 79.9747018 37.7942142 92.094952 48.3325916 86.0727935"></polygon>
                <path d="M96.4350805,18.1305342 C96.4332743,11.8438487 91.3203995,6.75023873 85.0197649,6.76395557 C78.7444114,6.77750259 73.5942922,11.9824212 73.6552376,18.2463493 C73.6879676,21.6016066 75.1763918,24.6089681 77.5203101,26.6693047 C77.870408,26.9770934 78.1988365,27.3089915 78.4911491,27.6717585 C79.4087172,28.810081 80.5691644,30.825804 80.5700673,33.7389812 L83.8913705,33.7380799 L86.2012044,33.737404 L89.5225077,33.7365027 C89.5216048,30.6633475 90.8118433,28.5881396 91.7465664,27.4881218 C91.9853825,27.2071463 92.2488024,26.9487029 92.5271201,26.706708 C94.9227291,24.6215861 96.435983,21.5522613 96.4350805,18.1305342" id="Fill-112" fill="#F1884F" mask="url(#mask-2)"></path>
                <path d="M87.522954,24.4453624 C87.3703646,24.4453624 87.0737632,23.9949454 87.0735373,23.168918 C87.0733118,22.343116 87.3696874,21.8924737 87.5220511,21.8922484 C87.6746405,21.8922484 87.9712419,22.3426654 87.9714678,23.1686927 C87.9716934,23.9947201 87.6753177,24.4453624 87.522954,24.4453624 M85.5000158,23.1693687 C85.5004668,23.995396 85.2038654,24.4460383 85.0515017,24.4460383 C84.899138,24.4460383 84.6025366,23.9956214 84.6020851,23.169594 C84.6018595,22.343792 84.8984608,21.8931496 85.0508245,21.8931496 C85.2031882,21.8929243 85.4997896,22.3435667 85.5000158,23.1693687 M82.5227155,24.4467144 C82.3703518,24.4469396 82.073299,23.9962973 82.0730731,23.1704953 C82.0728475,22.3444679 82.3694489,21.8938256 82.5220383,21.8938256 C82.674402,21.8938256 82.9710034,22.3442426 82.9712293,23.17027 C82.9714549,23.996072 82.6748535,24.4467144 82.5227155,24.4467144 M90.5253092,22.0184282 C90.1465443,21.3791921 89.2587717,20.4625857 87.5344659,21.3893316 C87.3924855,21.3088919 87.1274855,21.178431 86.7825792,21.0975407 C86.1559693,20.9506313 85.5309395,21.0288177 84.9625664,21.3217352 C84.8120085,21.2473792 84.5984736,21.1590533 84.3397939,21.098442 C83.6951261,20.9472515 83.0515869,21.0335495 82.4703475,21.3478725 C80.7990869,20.4943559 79.9341124,21.3922607 79.5614421,22.021808 C79.2921533,22.4774074 79.2808671,23.3444432 79.5273578,24.6727114 C79.7151601,25.684854 80.053069,26.9635516 80.5322811,28.4732033 C81.3457905,31.0362315 82.2985716,33.4153975 82.308052,33.4390562 L82.7348961,33.2682628 C82.7254157,33.2448294 81.7789549,30.8814358 80.9706371,28.3346308 C79.5702453,23.9221667 79.7347981,22.6315271 79.9575877,22.2550154 C80.4286738,21.4587305 81.1336099,21.2595466 82.0563697,21.6599423 C81.9719489,21.7511973 81.8963313,21.868815 81.8322257,22.0114433 C81.6909225,22.324865 81.6132734,22.7365267 81.6132734,23.1704953 C81.6134991,23.6046892 81.6915997,24.0161256 81.8329029,24.3295473 C82.0006158,24.7013272 82.2455264,24.9059188 82.5229412,24.9056935 C82.7999046,24.9056935 83.0448152,24.7008766 83.2123024,24.3290967 C83.3533799,24.0156749 83.4312547,23.6040132 83.431029,23.1700446 C83.431029,22.7360761 83.3529284,22.3244144 83.2116252,22.0109926 C83.1396193,21.8512399 83.053167,21.7228069 82.9563313,21.6277213 C83.6271831,21.3677007 84.227609,21.5087518 84.5892189,21.6549852 C84.5032181,21.7469162 84.4262462,21.8658858 84.3610119,22.0107673 C84.2199344,22.324189 84.1420596,22.7358508 84.1422853,23.1698193 C84.1422853,23.6037879 84.2203859,24.0154496 84.3616891,24.3288713 C84.529402,24.7004259 84.7743126,24.9052429 85.0517274,24.9050175 C85.3286908,24.9050175 85.5736014,24.7002006 85.7410886,24.3284207 C85.8821661,24.014999 85.9600409,23.6033372 85.9598152,23.1693687 C85.9598152,22.7354001 85.8817147,22.3237384 85.7406371,22.0103167 C85.6625366,21.83727 85.5675068,21.7009507 85.4602879,21.6042879 C86.1191763,21.3710806 86.7040273,21.5179899 87.0525451,21.6628714 C86.9697044,21.7534506 86.895667,21.8697163 86.8322385,22.009866 C86.691161,22.3235131 86.6137376,22.7351748 86.6137376,23.1691434 C86.6139634,23.6031119 86.6916124,24.0147737 86.8331414,24.3281954 C87.0008543,24.69975 87.2457649,24.9045669 87.522954,24.9043416 C87.8003688,24.9043416 88.0450537,24.6995246 88.2125409,24.3277447 C88.3538441,24.014323 88.4312675,23.6026613 88.4312675,23.1684674 C88.4310417,22.7344989 88.3533927,22.3230624 88.2118637,22.0096407 C88.1506925,21.8739974 88.079138,21.7611115 87.9996831,21.671659 C88.9373407,21.2532376 89.6528859,21.4472391 90.129615,22.2523116 C90.3524046,22.6285979 90.5178603,23.9185615 89.1206286,28.3298991 C88.3141167,30.87738 87.3678816,33.2434775 87.3584012,33.2669109 L87.7852453,33.437479 C87.7949514,33.4138203 88.7466039,31.0342036 89.5585332,28.4707248 C90.0366167,26.9608477 90.3740741,25.6819249 90.5611993,24.6695569 C90.8067871,23.3410634 90.7950494,22.4740276 90.5253092,22.0184282" id="Fill-113" fill="#FFFFFF" mask="url(#mask-2)"></path>
                <path d="M83.0399847,37.4960537 L83.0402104,38.1988304 C83.0406618,39.3157474 83.9478467,40.2210878 85.0667606,40.2206373 C86.1856746,40.2204118 87.092408,39.3146208 87.0921823,38.1977038 L87.0919566,37.4949271 L83.0399847,37.4960537 Z" id="Fill-114" fill="#373133" mask="url(#mask-2)"></path>
                <polygon id="Fill-115" fill="#AFAFD5" mask="url(#mask-2)" points="80.4525328 33.1366077 80.4536614 37.58287 89.7069919 37.5801661 89.7056376 33.1339038"></polygon>
                <path d="M81.0576312,38.7588661 L89.0464557,38.7566129 C89.6177632,38.7563876 90.0809489,38.2940286 90.0807233,37.7235154 C90.0804974,37.1532276 89.6173118,36.6910939 89.0460043,36.6910939 L81.056954,36.6933471 C80.4856465,36.6935725 80.0224608,37.1561568 80.0226865,37.7264446 C80.0229123,38.2967325 80.4863237,38.7588661 81.0576312,38.7588661" id="Fill-116" fill="#DBDCF1" mask="url(#mask-2)"></path>
                <path d="M80.5244033,33.6529311 L89.5910601,33.6502272 C90.1623675,33.6502272 90.6253275,33.1876429 90.6251019,32.6173551 C90.6251019,32.0470672 90.1616904,31.5847082 89.5903829,31.5849334 L80.5239519,31.5874121 C79.9526444,31.5876374 79.4894587,32.0502217 79.4896843,32.6205095 C79.4896843,33.1907974 79.9530958,33.6529311 80.5244033,33.6529311" id="Fill-117" fill="#DBDCF1" mask="url(#mask-2)"></path>
                <path d="M80.5252836,36.205955 L89.5917147,36.2032511 C90.1630221,36.2032511 90.6259821,35.7406668 90.6259821,35.1703789 C90.6257564,34.6000911 90.162345,34.1377321 89.5910375,34.1379573 L80.5246065,34.1404359 C79.953299,34.1406612 79.4901133,34.6032456 79.4903389,35.1735334 C79.4905647,35.7438213 79.9539761,36.2061803 80.5252836,36.205955" id="Fill-118" fill="#DBDCF1" mask="url(#mask-2)"></path>
                <polygon id="Fill-119" fill="#EE504F" mask="url(#mask-2)" points="61.9376555 52.8214072 61.185543 49.0982005 57.3179876 50.5914038 56.6841546 46.4725331 52.9267526 47.9828608 52.4346742 43.9052238 49.1995975 45.4770642 48.9034476 44.8693731 52.9933411 42.8820405 53.4933198 47.0263725 57.223635 45.5270855 57.8594996 49.6574476 61.6902619 48.1784395 62.6015098 52.6877918"></polygon>
                <polygon id="Fill-120" fill="#197A83" mask="url(#mask-2)" points="205.209589 58.954266 201.306144 57.2438531 201.578141 56.6248959 204.746178 58.0128742 205.664649 54.3239163 209.097686 56.0226125 209.945054 52.4073345 213.688687 54.4142701 213.368384 55.0095685 210.403048 53.4201531 209.562226 57.0070406 206.11858 55.3029367"></polygon>
                <polygon id="Fill-121" fill="#6D68E0" mask="url(#mask-2)" points="129.759575 8.21189705 129.175401 7.86985954 130.903093 4.92806655 127.317918 3.76766261 129.299775 6.75963462e-05 129.899298 0.314165285 128.290789 3.37199867 131.913208 4.54434463"></polygon>
                <polygon id="Fill-122" fill="#F1884F" mask="url(#mask-2)" points="207.002154 83.6624655 207.924237 80.7959298 209.975391 81.4531916 210.731792 80.0393013 217.569198 82.2307749 217.540532 83.727358 228.753824 87.3214557 227.787951 90.324536"></polygon>
                <polygon id="Fill-123" fill="#FFB392" mask="url(#mask-2)" points="206.305796 82.3099978 203.951043 95.2578526 223.506192 101.525386 229.142972 89.6293302"></polygon>
                <path d="M163.806206,70.9286207 C162.190474,63.6703504 156.670618,60.9403593 152.980256,59.638003 C147.769192,57.7991571 145.385997,53.508817 145.385997,53.508817 C144.058514,50.9852201 143.029213,49.2786377 142.112322,48.0558198 C145.473804,47.6612824 146.788647,45.3713435 146.788647,45.3713435 C145.616236,46.1872314 144.357147,46.5693761 143.217467,46.7234958 C144.90498,46.1218883 146.113055,44.5128699 146.113055,42.6217495 C146.113055,40.2164462 144.159865,38.2667422 141.750261,38.2667422 C139.340882,38.2667422 137.387693,40.2164462 137.387693,42.6217495 C137.387693,43.3321871 137.559243,44.0022922 137.861487,44.5946615 C131.754072,41.6035232 125.856129,44.3961536 123.57248,47.2185263 C118.190316,53.8697815 125.996078,62.5412661 125.996078,62.5412661 L125.83446,66.5736135 C117.755346,75.6060626 124.380346,83.1867675 124.380346,83.1867675 C133.684464,89.3396122 147.50848,87.3874297 154.526014,85.8099563 C157.97756,85.0341756 160.912198,82.7532496 162.473757,79.5843329 C163.658357,77.1801561 164.519494,74.1329129 163.806206,70.9286207" id="Fill-124" fill="#373133" mask="url(#mask-2)"></path>
                <path d="M131.886098,69.0073523 L131.89287,68.9127174 C131.89287,68.9127174 123.00589,74.3970343 124.136993,55.2019252 C124.136993,55.2019252 124.865856,51.2497922 127.610885,49.9609552 C127.610885,49.9609552 131.488598,56.4817494 139.084437,57.6106083 C139.084437,57.6106083 141.345966,54.2240314 143.124897,56.9661898 C143.124897,56.9661898 144.416039,59.7060951 141.991763,61.803835 L144.738598,79.6380044 L131.247299,79.71912 L131.723577,71.7404979 L131.886098,69.0073523 Z" id="Fill-125" fill="#FCBB9D" mask="url(#mask-2)"></path>
                <polygon id="Fill-126" fill="#FCBB9D" mask="url(#mask-2)" points="111.426541 199.862612 101.24413 199.862612 99.7789557 194.4166 98.5758467 189.939469 109.002265 189.939469 109.738125 192.947506"></polygon>
                <polygon id="Fill-127" fill="#FCBB9D" mask="url(#mask-2)" points="132.450408 188.64385 131.583402 197.370538 130.883884 204.402811 121.933701 204.943582 121.773662 198.274076 121.541167 188.64385"></polygon>
                <polygon id="Fill-128" fill="#E6A68A" mask="url(#mask-2)" points="109.738035 192.947506 99.7790911 194.4166 98.5759821 189.939469 109.002175 189.939469"></polygon>
                <polygon id="Fill-129" fill="#E6A68A" mask="url(#mask-2)" points="132.450408 188.64385 131.583402 197.370538 121.773662 198.274076 121.541167 188.64385"></polygon>
                <path d="M131.491736,72.8603666 L120.822213,77.0864901 C118.297264,78.465005 116.35852,80.7105556 115.36556,83.4069738 L107.629773,104.41389 L119.451165,104.41389 L116.940663,128.474584 L155.343767,132.663305 L154.851463,100.168164 L166.336076,100.168164 L162.85338,84.9026557 C162.010075,81.2051355 159.448107,78.1322056 155.958414,76.633144 L144.029802,71.5084397 C144.029802,71.5084397 134.305837,81.9791137 131.491736,72.8603666" id="Fill-130" fill="#5CC2AD" mask="url(#mask-2)"></path>
                <path d="M122.095093,146.180073 L101.243837,143.759898 L110.855843,190.867567 L95.0962432,190.867567 L77.4829979,134.562965 C77.4829979,134.562965 75.9986367,131.599541 78.3312687,127.965561 C80.1695652,125.101955 83.3976444,123.429847 86.8047227,123.429847 L128.641316,123.429847 L122.095093,146.180073 Z" id="Fill-131" fill="#311547" mask="url(#mask-2)"></path>
                <path d="M155.459699,131.163747 C155.459699,131.163747 153.600185,120.635616 123.414112,122.693024 C123.414112,122.693024 117.595172,122.451029 117.595172,139.150481 L117.595172,194.115999 L134.08228,194.115999 L137.476718,146.169235 C137.476718,146.169235 154.732417,148.10542 155.459699,131.163747" id="Fill-132" fill="#4F216C" mask="url(#mask-2)"></path>
                <path d="M110.668469,195.231429 C110.668469,195.231429 106.269785,199.407757 100.52398,197.716045 C100.52398,197.716045 90.5973152,205.775332 88.7883629,207.847836 C87.6256584,209.179935 88.8030349,211.227654 90.5417871,210.898234 L112.875373,205.869066 C114.135139,205.630451 114.832175,204.271314 114.289986,203.111811 L110.668469,195.231429 Z" id="Fill-133" fill="#311547" mask="url(#mask-2)"></path>
                <path d="M117.393014,153.157435 C115.822426,126.687607 121.552882,123.156149 121.797566,123.018703 L122.129381,123.607918 L121.963474,123.313423 L122.133444,123.605665 C122.077239,123.639238 116.534811,127.264204 118.068831,153.117328 L117.393014,153.157435 Z" id="Fill-134" fill="#FFFFFF" mask="url(#mask-2)"></path>
                <path d="M131.168793,201.616557 C131.168793,201.616557 133.147038,202.556147 133.556727,209.759889 C133.596454,210.457934 133.038916,211.047825 132.338494,211.048276 L115.231548,211.059091 C113.612204,211.060218 112.842711,209.069505 114.039951,207.981204 C116.587698,205.665353 118.791442,204.499091 121.945032,201.938316 C121.945032,201.938316 127.397621,205.528358 131.168793,201.616557" id="Fill-135" fill="#4F216C" mask="url(#mask-2)"></path>
                <path d="M164.162195,116.788956 L135.558448,119.938721 L133.010023,120.276702 L116.992647,122.394947 C116.134896,122.507607 115.640786,121.453104 116.277102,120.867269 L122.653805,115.004413 C123.308631,114.07609 124.373822,113.524053 125.50944,113.524053 L128.910875,113.521799 L130.570172,113.08017 L154.411144,106.741886 L153.767604,103.645973 L153.605083,102.866362 L152.849133,99.2251723 L166.090104,99.2679833 L166.419436,100.80918 L166.482638,101.106604 L168.53921,110.739083 C169.161983,113.650233 167.128435,116.462241 164.162195,116.788956" id="Fill-136" fill="#FCBB9D" mask="url(#mask-2)"></path>
                <polygon id="Fill-137" fill="#E6A68A" mask="url(#mask-2)" points="166.419436 100.80909 153.605083 102.866272 152.849133 99.2250821 166.090104 99.2678932"></polygon>
                <path d="M133.010091,120.276815 L116.992715,122.394834 C116.134963,122.507494 115.640853,121.452991 116.27717,120.867156 L122.653873,115.0043 C123.308698,114.075977 124.37389,113.52394 125.509508,113.52394 L128.910943,113.521912 L130.570014,113.080057 L133.010091,120.276815 Z" id="Fill-138" fill="#E6A68A" mask="url(#mask-2)"></path>
                <path d="M107.896082,109.468227 C107.896082,110.712676 106.88529,111.721438 105.638842,111.721438 C104.392394,111.721438 103.381601,110.712676 103.381601,109.468227 C103.381601,108.223778 104.392394,107.215015 105.638842,107.215015 C106.88529,107.215015 107.896082,108.223778 107.896082,109.468227" id="Fill-139" fill="#FFFFFF" mask="url(#mask-2)"></path>
                <polygon id="Fill-140" fill="#AFAFD5" mask="url(#mask-2)" points="127.097837 96.5043292 130.204928 123.532728 93.1405928 123.532728 90.0337274 96.5043292"></polygon>
                <polygon id="Fill-141" fill="#AFAFD5" mask="url(#mask-2)" points="125.877032 123.5339 147.849233 123.5339 147.849233 121.540033 125.877032 121.540033"></polygon>
                <polygon id="Fill-142" fill="#DBDCF1" mask="url(#mask-2)" points="125.322247 96.5043292 128.429564 123.532728 91.3652283 123.532728 88.2581371 96.5043292"></polygon>
                <path d="M108.421816,109.39858 C108.421816,110.649113 107.406283,111.662832 106.153515,111.662832 C104.900747,111.662832 103.884989,110.649113 103.884989,109.39858 C103.884989,108.148048 104.900747,107.134328 106.153515,107.134328 C107.406283,107.134328 108.421816,108.148048 108.421816,109.39858" id="Fill-143" fill="#FFFFFF" mask="url(#mask-2)"></path>
                <polygon id="Fill-144" fill="#373133" mask="url(#mask-2)" points="152.760717 100.46045 150.455849 91.5269173 151.111352 91.3583771 153.41622 100.29191"></polygon>
                <path d="M137.465928,65.3052807 C137.465928,65.3052807 136.779727,70.2262947 131.723735,71.7404528 L131.886031,69.0073073 C131.901831,69.0028008 131.919889,68.993788 131.93569,68.9870283 C133.493186,68.2795199 135.176861,67.1326352 137.465928,65.3052807" id="Fill-145" fill="#E6A68A" mask="url(#mask-2)"></path>
                <polygon id="Fill-146" fill="#373133" mask="url(#mask-2)" points="0 237 265 237 265 235.873394 0 235.873394"></polygon>
            </g>
        </g>
    </g>
</svg>