<?xml version="1.0" encoding="UTF-8"?>
<svg width="16px" height="18px" viewBox="0 0 16 18" version="1.1" xmlns="http://www.w3.org/2000/svg" xmlns:xlink="http://www.w3.org/1999/xlink">
    <title>8904CECC-AAAD-4CA9-A87A-4AD9420F132C@1.5x</title>
    <defs>
        <path d="M16.5653245,13.4174376 C16.5633909,13.4140708 16.5614222,13.4107741 16.5594182,13.4074073 L9.85315262,2.23894423 C9.85248465,2.23778689 9.85174637,2.23666462 9.8510784,2.23550728 C9.5310159,1.70909166 9.02455496,1.33849647 8.42510574,1.19207508 C7.82558621,1.04554847 7.20486746,1.14083636 6.67713699,1.46015775 C6.36062528,1.65171552 6.09185574,1.91983326 5.89990262,2.23554235 C5.89923465,2.23666462 5.89853153,2.23778689 5.89786356,2.23894423 L-0.808437224,13.4073372 C-0.810441131,13.410704 -0.812409881,13.4140358 -0.814343474,13.4174026 C-1.12298019,13.9505869 -1.20499972,14.5717643 -1.04528488,15.1664632 C-0.885570037,15.7611971 -0.503316131,16.2582583 0.0311994943,16.5661465 C0.374324494,16.7637716 0.765086213,16.8705277 1.16122684,16.8749817 C1.16389871,16.8749817 1.16657059,16.8749817 1.16924246,16.8749817 L14.5818089,16.8749817 C14.5844807,16.8749817 14.5871526,16.8749817 14.5897893,16.8749817 C15.8637464,16.8609883 16.8888323,15.8156623 16.8749817,14.5447246 C16.8704456,14.1495096 16.7634651,13.7596604 16.5653245,13.4174376 Z" id="path-1"></path>
    </defs>
    <g id="Design" stroke="none" stroke-width="1" fill="none" fill-rule="evenodd">
        <g id="10.2_VirtualLearn_Menu_my-course_ongoing_continue-playing_portrait" transform="translate(-27.000000, -777.000000)">
            <g id="video-controls" transform="translate(0.000000, 722.000000)">
                <g id="icn_play-video" transform="translate(27.124982, 55.000018)">
                    <mask id="mask-2" fill="white">
                        <use xlink:href="#path-1"></use>
                    </mask>
                    <use id="Shape" fill="#FFFFFF" fill-rule="nonzero" transform="translate(7.875000, 8.999982) rotate(90.000000) translate(-7.875000, -8.999982) " xlink:href="#path-1"></use>
                </g>
            </g>
        </g>
    </g>
</svg>