<?xml version="1.0" encoding="UTF-8"?>
<svg width="20px" height="20px" viewBox="0 0 20 20" version="1.1" xmlns="http://www.w3.org/2000/svg" xmlns:xlink="http://www.w3.org/1999/xlink">
    <title>2F2136D9-9F6D-4F97-BF64-1378C27536F4@1.5x</title>
    <g id="Design" stroke="none" stroke-width="1" fill="none" fill-rule="evenodd">
        <g id="10.2_VirtualLearn_Menu_my-course_ongoing_continue-playing_portrait" transform="translate(-326.000000, -743.000000)" fill="#FFFFFF" fill-rule="nonzero" stroke="#FFFFFF" stroke-width="0.5">
            <g id="video-controls" transform="translate(0.000000, 722.000000)">
                <g id="icn_maximise" transform="translate(327.000000, 22.000000)">
                    <path d="M18,0.818181056 L18,5.11364193 C18,5.56364173 17.6318181,5.93182339 17.1818181,5.93182339 C16.731818,5.93182339 16.3636361,5.56364173 16.3636361,5.11364193 L16.3636361,2.80250429 L11.1888809,7.95690434 C11.0252445,8.12054063 10.8205353,8.20258378 10.6159899,8.20258378 C10.4114444,8.20258378 10.2067353,8.12054063 10.0430989,7.95690434 C9.7158261,7.62963175 9.7158261,7.11841152 10.0430989,6.79113893 L15.1978905,1.63636252 L12.8863629,1.63636252 C12.4363628,1.63636252 12.068181,1.26818086 12.068181,0.818181056 C12.068181,0.36818125 12.4363628,0 12.8863629,0 L17.1818181,0 C17.4068181,0 17.6115272,0.0820578737 17.7547091,0.245693348 C17.9183454,0.388875105 18,0.593181153 18,0.818181056 Z M6.72962567,10.1250034 L1.63636336,15.1978717 L1.63636336,12.8863658 C1.63636336,12.436366 1.26818149,12.0681844 0.818181423,12.0681844 C0.368181359,12.0681844 0,12.436366 0,12.8863658 L0,17.1818185 C0,17.4068184 0.0820578185,17.611507 0.245693387,17.7546887 C0.388875226,17.918325 0.593181391,18 0.818181423,18 L5.11363453,18 C5.5636346,18 5.93181647,17.6318183 5.93181647,17.1818185 C5.93181647,16.7318187 5.5636346,16.3636371 5.11363453,16.3636371 L2.80251602,16.3636371 L7.89537129,11.2707643 C8.22264407,10.9434917 8.22264407,10.4319033 7.89537129,10.1046307 C7.56809852,9.79781263 7.0364439,9.79773081 6.72962567,10.1250034 Z" id="Shape"></path>
                </g>
            </g>
        </g>
    </g>
</svg>