<?xml version="1.0" encoding="UTF-8"?>
<svg width="300px" height="180px" viewBox="0 0 300 180" version="1.1" xmlns="http://www.w3.org/2000/svg" xmlns:xlink="http://www.w3.org/1999/xlink">
    <title>D66FC0F0-3493-472C-88A7-5807034DB6FA@1.5x</title>
    <defs>
        <rect id="path-1" x="0" y="0" width="260" height="140" rx="6"></rect>
        <filter x="-12.5%" y="-19.6%" width="125.0%" height="146.4%" filterUnits="objectBoundingBox" id="filter-3">
            <feOffset dx="0" dy="5" in="SourceAlpha" result="shadowOffsetOuter1"></feOffset>
            <feGaussianBlur stdDeviation="10" in="shadowOffsetOuter1" result="shadowBlurOuter1"></feGaussianBlur>
            <feColorMatrix values="0 0 0 0 0.121568627   0 0 0 0 0.156862745   0 0 0 0 0.2  0 0 0 0.05 0" type="matrix" in="shadowBlurOuter1"></feColorMatrix>
        </filter>
    </defs>
    <g id="Design" stroke="none" stroke-width="1" fill="none" fill-rule="evenodd">
        <g id="07.1_VirtualLearn_Home_existing-user" transform="translate(-38.000000, -176.000000)">
            <g id="img_banner3_home" transform="translate(58.000000, 181.000000)">
                <g id="Bitmap" transform="translate(0.000000, 10.000000)">
                    <mask id="mask-2" fill="white">
                        <use xlink:href="#path-1"></use>
                    </mask>
                    <g id="Mask">
                        <use fill="black" fill-opacity="1" filter="url(#filter-3)" xlink:href="#path-1"></use>
                        <use fill="#EE5C4D" fill-rule="evenodd" xlink:href="#path-1"></use>
                    </g>
                    <text id="Top-new-course-to-su" mask="url(#mask-2)" font-family="ProximaNova-Regular, Proxima Nova" font-size="16" font-weight="normal" line-spacing="20" fill="#FFFFFF">
                        <tspan x="14" y="33">Top new course to </tspan>
                        <tspan x="14" y="53">success</tspan>
                    </text>
                    <text id="Build-skills-with-co" mask="url(#mask-2)" font-family="ProximaNova-Regular, Proxima Nova" font-size="12" font-weight="normal" line-spacing="16" fill="#FFFFFF">
                        <tspan x="14" y="83">Build skills with courses, certificates, </tspan>
                        <tspan x="14" y="99">degrees online from world class educators </tspan>
                        <tspan x="14" y="115">and tutors.</tspan>
                    </text>
                </g>
                <g id="owl" transform="translate(176.000000, 0.000000)" fill-rule="nonzero">
                    <path d="M22.3580257,45.4193548 C20.0482723,45.4193548 18.1755841,43.5705806 18.1755841,41.2903226 L18.1755841,37.1612903 C18.1755841,34.8810323 20.0482723,33.0322581 22.3580257,33.0322581 L22.3580257,45.4193548 Z" id="Path" fill="#6FA4D8"></path>
                    <path d="M39.0877921,45.4193548 C41.3975454,45.4193548 43.2702337,43.5705806 43.2702337,41.2903226 L43.2702337,37.1612903 C43.2702337,34.8810323 41.3975454,33.0322581 39.0877921,33.0322581 L39.0877921,45.4193548 Z" id="Path" fill="#5C76B2"></path>
                    <path d="M39.0877921,14.4516129 L22.3580257,14.4516129 C20.0482723,14.4516129 18.1755841,16.3003871 18.1755841,18.5806452 L18.1755841,28.9032258 C18.1755841,31.1834839 20.0482723,33.0322581 22.3580257,33.0322581 L22.3580257,45.4193548 C22.3580257,48.8402581 25.1665352,51.6129032 28.6316881,51.6129032 L32.8141297,51.6129032 C36.2792825,51.6129032 39.0877921,48.8402581 39.0877921,45.4193548 L39.0877921,33.0322581 C41.3975454,33.0322581 43.2702337,31.1834839 43.2702337,28.9032258 L43.2702337,18.5806452 C43.2702337,16.3003871 41.3975454,14.4516129 39.0877921,14.4516129 Z" id="Path" fill="#F68820"></path>
                    <path d="M26.5404673,14.4516129 L16.0843633,14.4516129 C14.9289638,14.4516129 13.9931425,13.5277419 13.9931425,12.3870968 L13.9931425,11.3548387 C13.9931425,10.7850323 13.5247091,10.3225806 12.9475321,10.3225806 C12.3703552,10.3225806 11.9019217,10.7850323 11.9019217,11.3548387 L11.9019217,14.4516129 C11.9019217,16.731871 13.77461,18.5806452 16.0843633,18.5806452 L24.4492465,18.5806452 C27.9143994,18.5806452 30.7229089,21.3532903 30.7229089,24.7741935 L30.7229089,18.5806452 C30.7229089,16.3003871 28.8502207,14.4516129 26.5404673,14.4516129 Z" id="Path" fill="#6FA4D8"></path>
                    <path d="M34.9053505,14.4516129 L45.3614544,14.4516129 C46.5168539,14.4516129 47.4526752,13.5277419 47.4526752,12.3870968 L47.4526752,11.3548387 C47.4526752,10.7850323 47.9211087,10.3225806 48.4982856,10.3225806 C49.0754626,10.3225806 49.543896,10.7850323 49.543896,11.3548387 L49.543896,14.4516129 C49.543896,16.731871 47.6712078,18.5806452 45.3614544,18.5806452 L36.9965713,18.5806452 C33.5314184,18.5806452 30.7229089,21.3532903 30.7229089,24.7741935 L30.7229089,18.5806452 C30.7229089,16.3003871 32.5955971,14.4516129 34.9053505,14.4516129 Z" id="Path" fill="#5C76B2"></path>
                    <g id="Group" transform="translate(0.000000, 51.612903)">
                        <polygon id="Path" fill="#F68820" transform="translate(29.677298, 10.322581) rotate(90.000000) translate(-29.677298, -10.322581) " points="27.6127824 -7.4527961 31.7418146 -7.4527961 31.7418146 28.0979574 27.6127824 28.0979574"></polygon>
                        <polygon id="Path" fill="#FBD301" transform="translate(29.677298, 2.064516) rotate(90.000000) translate(-29.677298, -2.064516) " points="27.6127824 -15.7108606 31.7418146 -15.7108606 31.7418146 19.8398929 27.6127824 19.8398929"></polygon>
                        <polygon id="Path" fill="#FBBE18" points="11.9019217 4.12903226 47.4526752 4.12903226 47.4526752 8.25806452 11.9019217 8.25806452"></polygon>
                        <path d="M11.9019217,0 L0.289372677,5.73212903 C-0.0964575591,5.92206452 -0.0964575591,6.46503226 0.289372677,6.65496774 L11.9019217,12.3870968 L11.9019217,0 Z" id="Path" fill="#DB9E68"></path>
                        <path d="M11.9019217,0 L0.289372677,5.73212903 C0.0969803643,5.82709677 0.000784207798,6.00980645 0.000784207798,6.19354839 L11.9019217,6.19354839 L11.9019217,0 Z" id="Path" fill="#EEC78E"></path>
                        <path d="M1.44581778,5.16129032 L0.289372677,5.73212903 C-0.0964575591,5.92206452 -0.0964575591,6.46503226 0.289372677,6.65496774 L1.44581778,7.22580645 L1.44581778,5.16129032 Z" id="Path" fill="#353744"></path>
                        <polygon id="Path" fill="#B3B4B6" transform="translate(49.543896, 6.193548) rotate(90.000000) translate(-49.543896, -6.193548) " points="43.3503476 4.10232759 55.7374444 4.10232759 55.7374444 8.28476918 43.3503476 8.28476918"></polygon>
                        <polygon id="Path" fill="#DBDEE3" transform="translate(49.543896, 3.096774) rotate(90.000000) translate(-49.543896, -3.096774) " points="46.4471218 1.0055534 52.6406702 1.0055534 52.6406702 5.18799499 46.4471218 5.18799499"></polygon>
                        <path d="M60,9.29032258 L60,3.09677419 C60,1.38632258 58.5957452,0 56.8631688,0 L51.6351168,0 L51.6351168,12.3870968 L55.8175584,12.3870968 L56.8631688,12.3870968 C58.5957452,12.3870968 60,11.0007742 60,9.29032258 Z" id="Path" fill="#353744"></path>
                        <path d="M60,6.19354839 L60,3.09677419 C60,1.38632258 58.5957452,0 56.8631688,0 L51.6351168,0 L51.6351168,6.19354839 L60,6.19354839 Z" id="Path" fill="#55525B"></path>
                    </g>
                    <path d="M53.7263376,6.19354839 L7.71948016,6.19354839 C6.56408067,6.19354839 5.62825936,5.26967742 5.62825936,4.12903226 C5.62825936,2.9883871 6.56408067,2.06451613 7.71948016,2.06451613 L53.7263376,2.06451613 C54.8817371,2.06451613 55.8175584,2.9883871 55.8175584,4.12903226 C55.8175584,5.26967742 54.8817371,6.19354839 53.7263376,6.19354839 Z" id="Path" fill="#353744"></path>
                    <path d="M32.8141297,4.12903226 C32.8141297,2.9883871 31.8783084,2.06451613 30.7229089,2.06451613 L7.71948016,2.06451613 C6.56408067,2.06451613 5.62825936,2.9883871 5.62825936,4.12903226 C5.62825936,5.26864516 6.56408067,6.19354839 7.71948016,6.19354839 L30.7229089,6.19354839 C31.8783084,6.19354839 32.8141297,5.26864516 32.8141297,4.12903226 Z" id="Path" fill="#55525B"></path>
                    <path d="M43.7930388,14.4516129 L17.6527789,14.4516129 C17.075602,14.4516129 16.6071685,13.9891613 16.6071685,13.4193548 L16.6071685,6.19354839 L44.8386492,6.19354839 L44.8386492,13.4193548 C44.8386492,13.9891613 44.3702158,14.4516129 43.7930388,14.4516129 Z" id="Path" fill="#353744"></path>
                    <path d="M30.7229089,14.4516129 L17.6527789,14.4516129 C17.075602,14.4516129 16.6071685,13.9891613 16.6071685,13.4193548 L16.6071685,10.3225806 L28.6316881,10.3225806 C29.7870876,10.3225806 30.7229089,11.2464516 30.7229089,12.3870968 L30.7229089,14.4516129 Z" id="Path" fill="#55525B"></path>
                    <polygon id="Path" fill="#F68820" points="49.543896 2.06451613 51.6351168 2.06451613 51.6351168 14.4516129 49.543896 14.4516129"></polygon>
                    <path d="M28.6316881,2.06451613 L51.6351168,2.06451613 C51.6351168,0.923870968 50.6992955,1.1001952e-14 49.543896,1.1001952e-14 L30.7229089,1.1001952e-14 C29.5675094,1.1001952e-14 28.6316881,0.923870968 28.6316881,2.06451613 Z" id="Path" fill="#FBBE18"></path>
                    <ellipse id="Oval" fill="#FBBE18" cx="50.5895064" cy="14.4516129" rx="2.09122079" ry="2.06451613"></ellipse>
                    <polygon id="Path" fill="#B3B4B6" points="48.4982856 14.4516129 52.6807272 14.4516129 52.6807272 16.516129 48.4982856 16.516129"></polygon>
                    <polygon id="Path" fill="#DBDEE3" points="48.4982856 14.4516129 50.5895064 14.4516129 50.5895064 16.516129 48.4982856 16.516129"></polygon>
                    <path d="M50.5895064,24.7741935 L48.4982856,24.7741935 C47.9211087,24.7741935 47.4526752,24.3117419 47.4526752,23.7419355 L47.4526752,17.5483871 C47.4526752,16.9785806 47.9211087,16.516129 48.4982856,16.516129 L50.5895064,16.516129 L50.5895064,24.7741935 Z" id="Path" fill="#FBBE18"></path>
                    <path d="M50.5895064,24.7741935 L52.6807272,24.7741935 C53.2579042,24.7741935 53.7263376,24.3117419 53.7263376,23.7419355 L53.7263376,17.5483871 C53.7263376,16.9785806 53.2579042,16.516129 52.6807272,16.516129 L50.5895064,16.516129 L50.5895064,24.7741935 Z" id="Path" fill="#F68820"></path>
                    <path d="M49.543896,24.7741935 L49.543896,18.0645161 C49.543896,17.7796129 49.3096793,17.5483871 49.0210908,17.5483871 C48.7325024,17.5483871 48.4982856,17.7796129 48.4982856,18.0645161 L48.4982856,24.7741935 L49.543896,24.7741935 Z" id="Path" fill="#F68820"></path>
                    <path d="M52.6807272,24.7741935 L52.6807272,21.1612903 C52.6807272,20.8763871 52.4465105,20.6451613 52.157922,20.6451613 C51.8693336,20.6451613 51.6351168,20.8763871 51.6351168,21.1612903 L51.6351168,24.7741935 L52.6807272,24.7741935 Z" id="Path" fill="#FBBE18"></path>
                    <ellipse id="Oval" fill="#DBDEE3" cx="24.4492465" cy="24.7741935" rx="6.27366238" ry="6.19354839"></ellipse>
                    <ellipse id="Oval" fill="#DBDEE3" cx="24.4492465" cy="24.7741935" rx="6.27366238" ry="6.19354839"></ellipse>
                    <ellipse id="Oval" fill="#55525B" cx="24.4492465" cy="24.7741935" rx="2.09122079" ry="2.06451613"></ellipse>
                    <ellipse id="Oval" fill="#DBDEE3" cx="36.9965713" cy="24.7741935" rx="6.27366238" ry="6.19354839"></ellipse>
                    <ellipse id="Oval" fill="#55525B" cx="36.9965713" cy="24.7741935" rx="2.09122079" ry="2.06451613"></ellipse>
                    <path d="M30.7229089,24.7741935 C32.0194658,24.7741935 32.9437854,26.016 32.5569095,27.2371613 L31.7204212,29.8787097 C31.415103,30.8449032 30.0296692,30.8449032 29.724351,29.8787097 L28.8878626,27.2371613 C28.5020324,26.016 29.426352,24.7741935 30.7229089,24.7741935 Z" id="Path" fill="#55525B"></path>
                    <path d="M27.5860777,35.0967742 C26.4306782,35.0967742 25.4948569,34.1729032 25.4948569,33.0322581 L29.6772985,33.0322581 C29.6772985,34.1729032 28.7414772,35.0967742 27.5860777,35.0967742 Z" id="Path" fill="#FBBE18"></path>
                    <path d="M33.8597401,35.0967742 C32.7043406,35.0967742 31.7685193,34.1729032 31.7685193,33.0322581 L35.9509609,33.0322581 C35.9509609,34.1729032 35.0151396,35.0967742 33.8597401,35.0967742 Z" id="Path" fill="#FBBE18"></path>
                    <path d="M27.5860777,43.3548387 C26.4306782,43.3548387 25.4948569,42.4309677 25.4948569,41.2903226 L29.6772985,41.2903226 C29.6772985,42.4309677 28.7414772,43.3548387 27.5860777,43.3548387 Z" id="Path" fill="#FBBE18"></path>
                    <path d="M33.6,43.4716981 C32.274,43.4716981 31.2,42.3909434 31.2,41.0566038 L36,41.0566038 C36,42.3909434 34.926,43.4716981 33.6,43.4716981 Z" id="Path" fill="#FBBE18"></path>
                    <path d="M30.7229089,39.2258065 C29.5675094,39.2258065 28.6316881,38.3019355 28.6316881,37.1612903 L32.8141297,37.1612903 C32.8141297,38.3019355 31.8783084,39.2258065 30.7229089,39.2258065 Z" id="Path" fill="#FBBE18"></path>
                    <path d="M30.7229089,47.483871 C29.5675094,47.483871 28.6316881,46.56 28.6316881,45.4193548 L32.8141297,45.4193548 C32.8141297,46.56 31.8783084,47.483871 30.7229089,47.483871 Z" id="Path" fill="#FBBE18"></path>
                    <path d="M23.9264413,53.6774194 C24.5036182,53.6774194 24.9720517,53.2149677 24.9720517,52.6451613 L24.9720517,50.5806452 C24.9720517,50.0108387 24.5036182,49.5483871 23.9264413,49.5483871 C23.3492644,49.5483871 22.8808309,50.0108387 22.8808309,50.5806452 L22.8808309,52.6451613 C22.8808309,53.2149677 23.3492644,53.6774194 23.9264413,53.6774194 Z" id="Path" fill="#6FA4D8"></path>
                    <path d="M26.0176621,53.6774194 C26.594839,53.6774194 27.0632725,53.2149677 27.0632725,52.6451613 L27.0632725,50.5806452 C27.0632725,50.0108387 26.594839,49.5483871 26.0176621,49.5483871 C25.4404852,49.5483871 24.9720517,50.0108387 24.9720517,50.5806452 L24.9720517,52.6451613 C24.9720517,53.2149677 25.4404852,53.6774194 26.0176621,53.6774194 Z" id="Path" fill="#6FA4D8"></path>
                    <path d="M28.1088829,53.6774194 C28.6860598,53.6774194 29.1544933,53.2149677 29.1544933,52.6451613 L29.1544933,50.5806452 C29.1544933,50.0108387 28.6860598,49.5483871 28.1088829,49.5483871 C27.531706,49.5483871 27.0632725,50.0108387 27.0632725,50.5806452 L27.0632725,52.6451613 C27.0632725,53.2149677 27.531706,53.6774194 28.1088829,53.6774194 Z" id="Path" fill="#6FA4D8"></path>
                    <path d="M33.3369349,53.6774194 C33.9141118,53.6774194 34.3825453,53.2149677 34.3825453,52.6451613 L34.3825453,50.5806452 C34.3825453,50.0108387 33.9141118,49.5483871 33.3369349,49.5483871 C32.7597579,49.5483871 32.2913245,50.0108387 32.2913245,50.5806452 L32.2913245,52.6451613 C32.2913245,53.2149677 32.7597579,53.6774194 33.3369349,53.6774194 Z" id="Path" fill="#6FA4D8"></path>
                    <path d="M35.4281557,53.6774194 C36.0053326,53.6774194 36.4737661,53.2149677 36.4737661,52.6451613 L36.4737661,50.5806452 C36.4737661,50.0108387 36.0053326,49.5483871 35.4281557,49.5483871 C34.8509787,49.5483871 34.3825453,50.0108387 34.3825453,50.5806452 L34.3825453,52.6451613 C34.3825453,53.2149677 34.8509787,53.6774194 35.4281557,53.6774194 Z" id="Path" fill="#6FA4D8"></path>
                    <path d="M37.5193765,53.6774194 C38.0965534,53.6774194 38.5649869,53.2149677 38.5649869,52.6451613 L38.5649869,50.5806452 C38.5649869,50.0108387 38.0965534,49.5483871 37.5193765,49.5483871 C36.9421995,49.5483871 36.4737661,50.0108387 36.4737661,50.5806452 L36.4737661,52.6451613 C36.4737661,53.2149677 36.9421995,53.6774194 37.5193765,53.6774194 Z" id="Path" fill="#6FA4D8"></path>
                </g>
            </g>
        </g>
    </g>
</svg>