<?xml version="1.0" encoding="UTF-8"?>
<svg width="22px" height="14px" viewBox="0 0 22 14" version="1.1" xmlns="http://www.w3.org/2000/svg" xmlns:xlink="http://www.w3.org/1999/xlink">
    <title>6510836B-7225-4880-9366-FB266343C526@1.5x</title>
    <g id="Design" stroke="none" stroke-width="1" fill="none" fill-rule="evenodd">
        <g id="10_VirtualLearn_Menu_my-course_ongoing_continue" transform="translate(-24.000000, -74.000000)" fill="#FFFFFF" fill-rule="nonzero">
            <path d="M45.0476295,80.0232014 L27.2513475,80.0232014 L31.4978,75.6674202 C31.8698163,75.2860764 31.8698163,74.6674645 31.4978,74.2861771 C31.1257837,73.9046076 30.5226598,73.9046076 30.1511935,74.2861771 L24.2790122,80.3092656 C23.9069959,80.6906094 23.9069959,81.3092777 24.2790122,81.6905087 L30.1511935,87.7138793 C30.3371466,87.9047205 30.5808492,88 30.8244968,88 C31.0681443,88 31.3118469,87.9047205 31.4978,87.7138793 C31.8698163,87.3325355 31.8698163,86.7139236 31.4978,86.3326927 L27.2513475,81.9766858 L45.0476295,81.9766858 C45.5735343,81.9766858 46,81.5393251 46,80.9999154 C46,80.4605057 45.5735893,80.0232014 45.0476295,80.0232014 Z" id="icn_back_white"></path>
        </g>
    </g>
</svg>