<?xml version="1.0" encoding="UTF-8"?>
<svg width="20px" height="20px" viewBox="0 0 20 20" version="1.1" xmlns="http://www.w3.org/2000/svg" xmlns:xlink="http://www.w3.org/1999/xlink">
    <title>452A9B0B-4AE3-43F3-915D-891B63EC3C26@1.5x</title>
    <g id="Design" stroke="none" stroke-width="1" fill="none" fill-rule="evenodd">
        <g id="13.3_VirtualLearn_Search_filter-empty" transform="translate(-269.000000, -428.000000)">
            <g id="categories" transform="translate(24.000000, 349.000000)">
                <g id="music" transform="translate(235.000000, 74.000000)">
                    <g id="icn_categories-suggestion_music" transform="translate(10.000000, 5.000000)">
                        <path d="M14.2943968,1.95033092 C11.3481309,-0.928927727 5.62793242,-0.21763643 2.32526663,1.50045103 C-2.39488144,3.95590969 0.944213669,14.9969519 4.62701935,18.1461502 C8.30979837,21.2953485 17.5168626,19.9456828 19.3582621,17.6962834 C21.1996616,15.4468839 18.8979289,12.2976856 14.75473,10.048221 C10.6115978,7.79882159 17.9771958,5.54942215 14.2943968,1.95033092 Z" id="Path" fill="#EFEFEF" fill-rule="nonzero"></path>
                        <path d="M6.29999893,10.6457207 C4.85025032,10.6457207 3.67499964,11.8489208 3.67499964,13.3331947 C3.67499964,14.8174687 4.85025032,16.0206687 6.29999893,16.0206687 C7.74976855,16.0206687 8.92499823,14.8174687 8.92499823,13.3331947 C8.92499823,11.8489208 7.74976855,10.6457207 6.29999893,10.6457207 Z" id="Path" fill="#FCBE4B" fill-rule="nonzero"></path>
                        <path d="M3.67499964,13.3331947 C3.67499964,11.8489208 4.85025032,10.6457207 6.29999893,10.6457207 C6.60680885,10.6457207 6.90129877,10.6996135 7.17499964,10.7986559 C6.15544897,11.1675923 5.42499917,12.1630327 5.42499917,13.3331947 C5.42499917,14.5033567 6.15544897,15.4987971 7.17499964,15.8677335 C6.90129877,15.9667759 6.60680885,16.0206687 6.29999893,16.0206687 C4.85025032,16.0206687 3.67499964,14.8174687 3.67499964,13.3331947 Z" id="Path" fill="#E1960A"></path>
                        <path d="M13.2999971,8.49574154 C11.8502275,8.49574154 10.6749978,9.69894156 10.6749978,11.1832155 C10.6749978,12.6674895 11.8502275,13.8706895 13.2999971,13.8706895 C14.7497667,13.8706895 15.9249964,12.6674895 15.9249964,11.1832155 C15.9249964,9.69894156 14.7497667,8.49574154 13.2999971,8.49574154 Z" id="Path" fill="#FCBE4B" fill-rule="nonzero"></path>
                        <g id="Group" transform="translate(2.184952, 2.670222)" fill-rule="nonzero">
                            <path d="M8.49004573,8.51299311 C8.49004573,7.02871914 9.66527542,5.82551912 11.115045,5.82551912 C11.4218549,5.82551912 11.7163449,5.87941193 11.9900457,5.97845431 C10.9704951,6.34739073 10.2400453,7.3428311 10.2400453,8.51299311 C10.2400453,9.68315512 10.9704951,10.6785955 11.9900457,11.0475319 C11.7163449,11.1465743 11.4218549,11.2004671 11.115045,11.2004671 C9.66527542,11.2004671 8.49004573,9.99726708 8.49004573,8.51299311 Z" id="Path" fill="#E1960A"></path>
                            <path d="M13.7105743,3.31885838 C13.8064043,3.59900067 13.6621344,3.90565937 13.3885044,4.00369842 L6.38850629,6.51200747 C6.11480637,6.61011819 5.81534645,6.46241462 5.71951647,6.18227233 C5.6237565,5.90205838 5.76795646,5.59547135 6.04165639,5.49736063 L13.0416545,2.98905157 C13.3152844,2.89101252 13.6148144,3.03864442 13.7105743,3.31885838 L13.7105743,3.31885838 Z" id="Path" fill="#2EDF84"></path>
                            <path d="M13.5188444,0.191369648 C13.6575844,0.292160672 13.7400443,0.455551924 13.7400443,0.629743238 L13.7400443,8.51299311 C13.7400443,8.80983357 13.5049844,9.05048791 13.2150445,9.05048791 C12.9251045,9.05048791 12.6900465,8.80983357 12.6900465,8.51299311 L12.6900465,1.38731707 L6.7400462,3.51937977 L6.7400462,10.3939382 C6.7400462,10.6907787 6.50498626,10.931433 6.21504634,10.931433 C5.92510642,10.931433 5.69004648,10.6907787 5.69004648,10.3939382 L5.69004648,3.13804513 C5.69004648,2.90964567 5.83102644,2.70618598 6.04158639,2.63072171 L13.0415845,0.122419815 C13.2021645,0.0648792054 13.3800344,0.0905786233 13.5188444,0.191369648 Z" id="Path" fill="#2EDF84"></path>
                            <path d="M4.1150469,9.05048791 C3.24522713,9.05048791 2.54004732,9.77245092 2.54004732,10.6629723 C2.54004732,11.5534937 3.24522713,12.2754567 4.1150469,12.2754567 C4.98486667,12.2754567 5.69004648,11.5534937 5.69004648,10.6629723 C5.69004648,9.77245092 4.98486667,9.05048791 4.1150469,9.05048791 Z M1.4900476,10.6629723 C1.4900476,9.17869833 2.66529829,7.97549831 4.1150469,7.97549831 C5.56481651,7.97549831 6.7400462,9.17869833 6.7400462,10.6629723 C6.7400462,12.1472463 5.56481651,13.3504463 4.1150469,13.3504463 C2.66529829,13.3504463 1.4900476,12.1472463 1.4900476,10.6629723 Z" id="Shape" fill="#2B2B2B"></path>
                            <path d="M11.115045,6.90050871 C10.2452253,6.90050871 9.54004545,7.62247173 9.54004545,8.51299311 C9.54004545,9.40351449 10.2452253,10.1254775 11.115045,10.1254775 C11.9848648,10.1254775 12.6900446,9.40351449 12.6900446,8.51299311 C12.6900446,7.62247173 11.9848648,6.90050871 11.115045,6.90050871 Z M8.49004573,8.51299311 C8.49004573,7.02871914 9.66527542,5.82551912 11.115045,5.82551912 C12.5648146,5.82551912 13.7400443,7.02871914 13.7400443,8.51299311 C13.7400443,9.99726708 12.5648146,11.2004671 11.115045,11.2004671 C9.66527542,11.2004671 8.49004573,9.99726708 8.49004573,8.51299311 Z" id="Shape" fill="#2B2B2B"></path>
                            <path d="M13.5188444,0.191369648 C13.6575844,0.292160672 13.7400443,0.455551924 13.7400443,0.629743238 L13.7400443,8.51299311 L12.6900465,8.51299311 L12.6900465,1.38731707 L6.7400462,3.51937977 L6.7400462,10.3939382 L5.69004648,10.3939382 L5.69004648,3.13804513 C5.69004648,2.90964567 5.83102644,2.70618598 6.04158639,2.63072171 L13.0415845,0.122419815 C13.2021645,0.0648792054 13.3800344,0.0905786233 13.5188444,0.191369648 Z" id="Path" fill="#2B2B2B"></path>
                            <polygon id="Path" fill="#2B2B2B" points="13.3885044 4.00369842 6.38850629 6.51200747 6.04165639 5.49736063 13.0416545 2.98905157"></polygon>
                            <polygon id="Path" fill="#90A4AD" points="2.47486334 1.01353602 3.46481707 2.14997919e-05 3.95978694 0.506778762 2.96984721 1.52025745"></polygon>
                            <polygon id="Path" fill="#90A4AD" points="6.21724728e-16 3.5473295 0.989946736 2.53375764 1.4849236 3.04057941 0.494969868 4.0540796"></polygon>
                            <polygon id="Path" fill="#90A4AD" points="2.96984721 2.53382931 3.95978694 3.5473295 3.46481707 4.0540796 2.47487034 3.04057941"></polygon>
                            <polygon id="Path" fill="#90A4AD" points="0.494983868 0 1.4849306 1.01351452 0.989953736 1.52025745 6.99999813e-06 0.506757262"></polygon>
                        </g>
                    </g>
                </g>
            </g>
        </g>
    </g>
</svg>