<?xml version="1.0" encoding="UTF-8"?>
<svg width="16px" height="16px" viewBox="0 0 16 16" version="1.1" xmlns="http://www.w3.org/2000/svg" xmlns:xlink="http://www.w3.org/1999/xlink">
    <title>3DD5CA64-5B91-49DD-B888-807143CE54DA@1.5x</title>
    <defs>
        <path d="M7.33331756,0 C8.50337004,0.0011875 9.5988162,0.45184375 10.4222782,1.26903125 C11.2457087,2.08621875 11.6985844,3.17209375 11.6973877,4.32590625 L11.697,6.62 L12.5295086,6.6203125 C13.6567022,6.6203125 14.5828837,7.48909936 14.6612904,8.58608763 L14.6666667,8.73703125 L14.6666667,13.8832812 C14.6666667,15.0504687 13.7079383,16 12.5295086,16 L12.5295086,16 L2.1372212,16 C0.958759922,16 0,15.0504375 0,13.8832812 L0,13.8832812 L0,8.73703125 C0,7.569875 0.958759922,6.6203125 2.1372212,6.6203125 L2.1372212,6.6203125 L2.969,6.62 L2.96926316,4.32590625 C2.968152,3.25450893 3.3585624,2.24169037 4.0736255,1.44818226 L4.24437269,1.26903125 C5.06783469,0.45184375 6.16328085,0.0011875 7.33331756,0 L7.33331756,0 Z M12.529477,7.91296875 L2.1372212,7.91296875 L2.03299867,7.91940154 C1.62322794,7.97034504 1.30517686,8.31761058 1.30517686,8.7370625 L1.30517686,8.7370625 L1.30517686,13.8833125 C1.30517686,14.3376875 1.67841359,14.707375 2.1372212,14.707375 L2.1372212,14.707375 L12.5295086,14.707375 C12.9882531,14.707375 13.3615214,14.3377188 13.3615214,13.8833125 L13.3615214,13.8833125 L13.3615214,8.73703125 C13.3615214,8.28265625 12.9882531,7.91296875 12.529477,7.91296875 L12.529477,7.91296875 Z M7.33303825,0.178069994 C7.33294671,0.235228263 7.33285672,0.290188138 7.33276828,0.342949617 L7.3320144,0.758446269 C7.3319353,0.798017379 7.33185776,0.835390094 7.33178178,0.870564413 L7.33113994,1.12777663 C7.33107329,1.14976058 7.3310082,1.16954613 7.33094467,1.18713329 L7.33025695,1.29265625 C6.51320014,1.2934375 5.74533397,1.609375 5.16817223,2.18215625 C4.5910105,2.7549375 4.27359047,3.5160625 4.27441084,4.32528125 L4.27441084,4.32528125 L4.274,6.62 L10.392,6.62 L10.39224,4.32528125 C10.3930604,3.5160625 10.0756404,2.7549375 9.49847866,2.18215625 C8.92131692,1.609375 8.15345075,1.2934375 7.33639394,1.29265625 L7.33606876,1.26627551 C7.33601145,1.25748193 7.33595258,1.24648996 7.33589216,1.23329959 L7.3350924,0.969492188 C7.33501952,0.938714658 7.3349451,0.905738733 7.33486911,0.870564413 L7.33414324,0.494638871 C7.33405792,0.446274182 7.33397104,0.395711097 7.33388261,0.342949617 Z" id="path-1"></path>
    </defs>
    <g id="Design" stroke="none" stroke-width="1" fill="none" fill-rule="evenodd">
        <g id="17_VirtualLearn_Menu_settings" transform="translate(-24.000000, -239.000000)">
            <g id="privacy-policy" transform="translate(24.666667, 237.000000)">
                <g id="icn_privacy-policy" transform="translate(0.000000, 2.000000)">
                    <mask id="mask-2" fill="white">
                        <use xlink:href="#path-1"></use>
                    </mask>
                    <use id="Combined-Shape" fill="#373737" fill-rule="nonzero" xlink:href="#path-1"></use>
                </g>
            </g>
        </g>
    </g>
</svg>