<?xml version="1.0" encoding="UTF-8"?>
<svg width="20px" height="20px" viewBox="0 0 20 20" version="1.1" xmlns="http://www.w3.org/2000/svg" xmlns:xlink="http://www.w3.org/1999/xlink">
    <title>62B6A15A-9977-4578-AE83-85B5B08B0ACC@1.5x</title>
    <g id="Design" stroke="none" stroke-width="1" fill="none" fill-rule="evenodd">
        <g id="15.1_VirtualLearn_Profile_change-password-error" transform="translate(-24.000000, -775.000000)" fill="#FFFFFF" fill-rule="nonzero">
            <g id="warning" transform="translate(0.000000, 758.000000)">
                <g id="icn_warning" transform="translate(24.000000, 17.000000)">
                    <path d="M10,20 C15.5228475,20 20,15.5228475 20,10 C20,4.4771525 15.5228475,0 10,0 C4.4771525,0 0,4.4771525 0,10 C0,15.5228475 4.4771525,20 10,20 Z M9,6 C9,5.44768118 9.44578565,5 9.9956819,5 C10.5456113,5 10.9913638,5.44771448 10.9913638,6 L10.9913638,9.99998335 C10.9913638,10.5522256 10.5455781,10.9999734 9.9956819,10.9999734 C9.44578565,10.9999734 9,10.5521923 9,9.99998335 L9,6 L9,6 Z M9.99355601,15 C9.16998815,15 8.5,14.3271496 8.5,13.499985 C8.5,12.6728538 9.16995499,12 9.99355601,12 C10.8171239,12 11.4870789,12.6728538 11.4870789,13.499985 C11.487112,14.3271163 10.817157,15 9.99355601,15 Z" id="Shape"></path>
                </g>
            </g>
        </g>
    </g>
</svg>