<?xml version="1.0" encoding="UTF-8"?>
<svg width="16px" height="16px" viewBox="0 0 16 16" version="1.1" xmlns="http://www.w3.org/2000/svg" xmlns:xlink="http://www.w3.org/1999/xlink">
    <title>001402B8-C538-4C64-8019-7CEC5981A9CC@1.5x</title>
    <defs>
        <path d="M14.4147449,5.28369922 L7.73386559,0.136136719 C7.49828436,-0.045363281 7.16838231,-0.045394531 6.93276953,0.136136719 L0.251890216,5.28369922 C0.0929643666,5.40613672 0,5.59441797 0,5.79385547 L0,13.882918 C0,15.0502617 0.958697002,15.9999805 2.13707634,15.9999805 L12.5295588,15.9999805 C13.7079697,15.9999805 14.6666667,15.0502617 14.6666667,13.882918 L14.6666667,5.79385547 C14.6666667,5.59441797 14.5736708,5.40616797 14.4147449,5.28369922 Z M13.3617586,13.882918 C13.3617586,14.3375117 12.9884185,14.7073242 12.5295588,14.7073242 L2.13707634,14.7073242 C1.67818505,14.7073242 1.30487649,14.3374805 1.30487649,13.882918 L1.30487649,6.10994922 L7.33330179,1.46507422 L13.3617586,6.10994922 L13.3617586,13.882918 Z M9.56028259,7.35363672 L5.10635253,7.35363672 C4.74604069,7.35363672 4.45393006,7.64301172 4.45393006,7.99994922 L4.45393006,15.3536367 C4.45393006,15.7106055 4.74604069,15.9999805 5.10635253,15.9999805 C5.46666437,15.9999805 5.75877501,15.7106055 5.75877501,15.3536367 L5.75877501,8.64629297 L8.90779703,8.64629297 L8.90779703,15.353668 C8.90779703,15.7106367 9.19987611,15.9999805 9.5602195,15.9999805 C9.92056289,15.9999805 10.2126735,15.7106367 10.2126735,15.353668 L10.2126735,7.99998047 C10.2126735,7.64304297 9.92062598,7.35363672 9.56028259,7.35363672 Z" id="path-1"></path>
    </defs>
    <g id="Design" stroke="none" stroke-width="1" fill="none" fill-rule="evenodd">
        <g id="06_VirtualLearn_Menu" transform="translate(-24.000000, -220.000000)">
            <g id="home" transform="translate(24.666667, 218.000000)">
                <g id="icn_home_menu" transform="translate(-0.000000, 2.000000)">
                    <mask id="mask-2" fill="white">
                        <use xlink:href="#path-1"></use>
                    </mask>
                    <use id="Combined-Shape" fill="#EA2626" fill-rule="nonzero" xlink:href="#path-1"></use>
                </g>
            </g>
        </g>
    </g>
</svg>