<?xml version="1.0" encoding="UTF-8"?>
<svg width="28px" height="28px" viewBox="0 0 28 28" version="1.1" xmlns="http://www.w3.org/2000/svg" xmlns:xlink="http://www.w3.org/1999/xlink">
    <title>CD6CA400-504F-45EA-A363-1D516A7E0A8C@1.5x</title>
    <defs>
        <path d="M13.3948927,0 C15.2817763,0.00104134965 17.1123317,0.391821507 18.8358637,1.16148851 C19.4064733,1.41634514 19.6628484,2.08642623 19.4086608,2.65823681 C19.1543638,3.23004738 18.4859182,3.48715113 17.9151992,3.2322945 C16.482933,2.59274139 14.9616355,2.26794992 13.3936349,2.26707299 L13.3936349,2.26707299 C10.4179227,2.26707299 7.62607003,3.4250538 5.52513948,5.52814163 C3.42262299,7.6328737 2.2637944,10.4321312 2.26209908,13.4102267 C2.25859908,19.5581906 7.24642925,24.562643 13.380838,24.5661507 L13.380838,24.5661507 C16.3566049,24.5661507 19.1484029,23.4081699 21.2493334,21.3050821 C23.3517952,19.2004596 24.5106238,16.4012022 24.5123191,13.4230518 L24.5123191,13.4230518 L24.5123191,12.2813489 C24.5123191,11.6553334 25.0186709,11.1478124 25.6433665,11.1478124 C26.268062,11.1478124 26.7744138,11.6553334 26.7744138,12.2814037 L26.7744138,12.2814037 L26.7744138,13.4237095 C26.7723357,17.008035 25.3779132,20.3764722 22.8479591,22.9090894 C20.3199737,25.4397335 16.9600817,26.8333333 13.3874005,26.8333333 L13.3874005,26.8333333 C9.80367248,26.8312506 6.44268673,25.4337594 3.91557632,22.8982374 C1.38846591,20.3627155 -0.00201903258,16.9926888 2.20047394e-06,13.409021 C0.0020825316,9.82524355 1.39650498,6.45680629 3.92645914,3.92424394 C6.45444455,1.39365468 9.81433655,0 13.3870177,0 L13.3870177,0 Z M26.0691635,1.56734084 C26.5108746,1.12471243 27.2270077,1.12471243 27.6687189,1.56734084 C28.11043,2.01002405 28.11043,2.72773319 27.6687189,3.17041641 L27.6687189,3.17041641 L14.1870962,16.6818185 C13.9662133,16.9031875 13.6767522,17.0138446 13.3872911,17.0138446 C13.0978301,17.0138446 12.8083143,16.9031875 12.5874861,16.6818185 L12.5874861,16.6818185 L8.91062524,12.9968657 C8.46891412,12.5541825 8.46891412,11.8364734 8.91062524,11.3937902 C9.35228167,10.9511069 10.0684695,10.9511069 10.5101259,11.3937902 L10.5101259,11.3937902 L13.3871818,14.2771777 Z" id="path-1"></path>
    </defs>
    <g id="Design" stroke="none" stroke-width="1" fill="none" fill-rule="evenodd">
        <g id="16_VirtualLearn_Menu_notification" transform="translate(-24.000000, -431.000000)">
            <g id="3" transform="translate(23.999998, 429.000000)">
                <g id="icn_notification_success-message" transform="translate(0.000000, 2.583333)">
                    <mask id="mask-2" fill="white">
                        <use xlink:href="#path-1"></use>
                    </mask>
                    <use id="Combined-Shape" fill="#1EAB0D" fill-rule="nonzero" xlink:href="#path-1"></use>
                </g>
            </g>
        </g>
    </g>
</svg>