<?xml version="1.0" encoding="UTF-8"?>
<svg width="18px" height="18px" viewBox="0 0 18 18" version="1.1" xmlns="http://www.w3.org/2000/svg" xmlns:xlink="http://www.w3.org/1999/xlink">
    <title>C2C566A3-906B-446A-A746-BD729D9434DA@1.5x</title>
    <defs>
        <path d="M20.7744062,13 C22.5839375,13 24.2850938,13.7046562 25.564625,14.9841875 C26.844125,16.2636875 27.5488125,17.964875 27.5488125,19.774375 C27.5488125,21.3667451 27.0031144,22.8752156 26.0002216,24.0862586 L29.8107188,27.8966562 C30.0630938,28.1490625 30.0630938,28.5582813 29.8107188,28.8106875 C29.6845313,28.9369062 29.5190938,29 29.3536875,29 C29.1882813,29 29.0228438,28.9369062 28.8966563,28.8106875 L28.8966563,28.8106875 L25.0862799,25.0001903 C23.8752161,26.0030832 22.3667488,26.5487812 20.7744062,26.5487812 C18.9649062,26.5487812 17.2636875,25.8440937 15.9841875,24.5645937 C14.7046562,23.2850937 14,21.5839062 14,19.774375 C14,17.964875 14.7046562,16.2636875 15.9841875,14.9841875 C17.2636875,13.7046562 18.964875,13 20.7744062,13 Z M20.7744062,14.292625 C17.75175,14.292625 15.292625,16.7517187 15.292625,19.774375 C15.292625,22.7970312 17.7517187,25.256125 20.774375,25.256125 C23.7970312,25.256125 26.256125,22.7970312 26.256125,19.774375 C26.256125,16.7517187 23.7970625,14.292625 20.7744062,14.292625 Z" id="path-1"></path>
    </defs>
    <g id="Design" stroke="none" stroke-width="1" fill="none" fill-rule="evenodd">
        <g id="13_VirtualLearn_Search" transform="translate(-37.000000, -144.000000)">
            <g id="search-course" transform="translate(24.000000, 132.000000)">
                <mask id="mask-2" fill="white">
                    <use xlink:href="#path-1"></use>
                </mask>
                <use id="icn_search_course" stroke="#373737" stroke-width="0.5" fill="#373737" fill-rule="nonzero" xlink:href="#path-1"></use>
            </g>
        </g>
    </g>
</svg>