<?xml version="1.0" encoding="UTF-8"?>
<svg width="18px" height="18px" viewBox="0 0 18 18" version="1.1" xmlns="http://www.w3.org/2000/svg" xmlns:xlink="http://www.w3.org/1999/xlink">
    <title>BD6AA55E-6614-40F1-96AF-44D9A03C7507@1.5x</title>
    <g id="Design" stroke="none" stroke-width="1" fill="none" fill-rule="evenodd">
        <g id="08.2_VirtualLearn_Home_categories_design_course" transform="translate(-24.000000, -714.000000)">
            <g id="includes" transform="translate(24.000000, 678.000000)">
                <g id="icn_includes_duration" transform="translate(0.000000, 36.000000)">
                    <rect id="Rectangle" fill="#2BB5F4" x="0" y="0" width="18" height="18" rx="2"></rect>
                    <g id="noun_Time_3764855" transform="translate(3.000000, 3.000000)" fill="#FFFFFF">
                        <path d="M6,0 C2.68844444,0 0,2.68844444 0,6 C0,9.31155556 2.68844444,12 6,12 C9.31155556,12 12,9.31155556 12,6 C12,2.68844444 9.31155556,0 6,0 Z M6.44444444,5.55555556 C7.25466667,5.55555556 9.33333333,5.55555556 9.33333333,5.55555556 C9.57866667,5.55555556 9.77777778,5.75466667 9.77777778,6 C9.77777778,6.24533333 9.57866667,6.44444444 9.33333333,6.44444444 C9.33333333,6.44444444 7.25466667,6.44444444 6.44444444,6.44444444 C6.20866667,6.44444444 5.98266667,6.35088889 5.816,6.184 C5.64911111,6.01733333 5.55555556,5.79133333 5.55555556,5.55555556 C5.55555556,4.74533333 5.55555556,2.66666667 5.55555556,2.66666667 C5.55555556,2.42133333 5.75466667,2.22222222 6,2.22222222 C6.24533333,2.22222222 6.44444444,2.42133333 6.44444444,2.66666667 L6.44444444,5.55555556 Z" id="Shape"></path>
                    </g>
                </g>
            </g>
        </g>
    </g>
</svg>