<?xml version="1.0" encoding="UTF-8"?>
<svg width="46px" height="46px" viewBox="0 0 46 46" version="1.1" xmlns="http://www.w3.org/2000/svg" xmlns:xlink="http://www.w3.org/1999/xlink">
    <title>91D519C8-222F-4E78-8861-B167599189F9@1.5x</title>
    <defs>
        <path d="M14.5825,6.5925 C15.1325,6.5925 15.5825,7.0425 15.5825,7.5925 C15.5825,8.1425 15.1325,8.5925 14.5825,8.5925 L3.4125,8.5925 L8.2825,13.4825 C8.6725,13.8725 8.6725,14.5025 8.2825,14.8925 C8.09566847,15.0797527 7.84201764,15.1849856 7.5775,15.1849856 C7.31298236,15.1849856 7.05933153,15.0797527 6.8725,14.8925 L0.2925,8.2925 C-0.0975,7.9025 -0.0975,7.2725 0.2925,6.8825 L6.8825,0.2925 C7.2725,-0.0975 7.9025,-0.0975 8.2925,0.2925 C8.6825,0.6825 8.6825,1.3225 8.2925,1.7125 L3.4125,6.5925 L14.5825,6.5925 Z" id="path-1"></path>
    </defs>
    <g id="Design" stroke="none" stroke-width="1" fill="none" fill-rule="evenodd">
        <g id="02_VirtualLearn_Onboarding-1" transform="translate(-305.000000, -732.000000)">
            <g id="btn_next" transform="translate(305.000000, 732.000000)">
                <circle id="Oval" fill="#EE5C4D" cx="23" cy="23" r="23"></circle>
                <g id="icon-/-action-/-arrow" transform="translate(23.000000, 22.000000) rotate(-180.000000) translate(-23.000000, -22.000000) translate(15.208750, 14.407507)">
                    <mask id="mask-2" fill="white">
                        <use xlink:href="#path-1"></use>
                    </mask>
                    <use id="icon/navigation/arrow_backward_24px" fill="#FFFFFF" fill-rule="nonzero" xlink:href="#path-1"></use>
                </g>
            </g>
        </g>
    </g>
</svg>