<?xml version="1.0" encoding="UTF-8"?>
<svg width="16px" height="16px" viewBox="0 0 16 16" version="1.1" xmlns="http://www.w3.org/2000/svg" xmlns:xlink="http://www.w3.org/1999/xlink">
    <title>95A705EC-FD8D-4D09-B32E-66706447B4E1@1.5x</title>
    <defs>
        <path d="M13.8829375,2.96928258 L2.1170625,2.96928258 C0.94971875,2.96928258 0,3.9279501 0,5.10636351 L0,12.5295857 C0,13.7079991 0.94971875,14.6666667 2.1170625,14.6666667 L13.8829375,14.6666667 C15.0502813,14.6666667 16,13.7079991 16,12.5295857 L16,5.10636351 C16,3.92798164 15.0503125,2.96928258 13.8829375,2.96928258 Z M14.707375,12.5295542 C14.707375,12.9884465 14.3375313,13.3617558 13.8829687,13.3617558 L2.1170625,13.3617558 C1.66246875,13.3617558 1.29265625,12.9884149 1.29265625,12.5295542 L1.29265625,5.10636351 C1.29265625,4.64747123 1.6625,4.27416188 2.1170625,4.27416188 L2.1170625,4.27416188 L13.8829375,4.27416188 C14.3375312,4.27416188 14.707375,4.64750278 14.707375,5.10636351 L14.707375,12.5295542 L14.707375,12.5295542 Z M9.47075,-1.8189894e-12 L6.52928125,-1.8189894e-12 C5.3619375,-1.8189894e-12 4.41221875,0.958699064 4.41221875,2.13708094 L4.41221875,14.0142112 C4.41221875,14.3745554 4.70159375,14.6666351 5.05853125,14.6666351 C5.41546875,14.6666351 5.70484375,14.3745554 5.70484375,14.0142112 L5.70484375,2.13708094 C5.70484375,1.67818866 6.0746875,1.3048793 6.52925,1.3048793 L9.47071875,1.3048793 C9.9253125,1.3048793 10.295125,1.6782202 10.295125,2.13708094 L10.295125,14.0142112 C10.295125,14.3745554 10.5844688,14.6666351 10.9414375,14.6666351 C11.2984063,14.6666351 11.58775,14.3745554 11.58775,14.0142112 L11.58775,2.13708094 C11.58775,0.958699064 10.6380938,-1.8189894e-12 9.47075,-1.8189894e-12 Z" id="path-1"></path>
    </defs>
    <g id="Design" stroke="none" stroke-width="1" fill="none" fill-rule="evenodd">
        <g id="06_VirtualLearn_Menu" transform="translate(-24.000000, -274.000000)">
            <g id="my-course" transform="translate(24.000000, 272.000000)">
                <g id="icn_course_menu" transform="translate(0.000000, 2.666667)">
                    <mask id="mask-2" fill="white">
                        <use xlink:href="#path-1"></use>
                    </mask>
                    <use id="Combined-Shape" fill="#373737" fill-rule="nonzero" xlink:href="#path-1"></use>
                </g>
            </g>
        </g>
    </g>
</svg>