<?xml version="1.0" encoding="UTF-8"?>
<svg width="18px" height="18px" viewBox="0 0 18 18" version="1.1" xmlns="http://www.w3.org/2000/svg" xmlns:xlink="http://www.w3.org/1999/xlink">
    <title>B7F580CB-0BA1-434A-A36C-18B1B5A924D5@1.5x</title>
    <g id="Design" stroke="none" stroke-width="1" fill="none" fill-rule="evenodd">
        <g id="08.2_VirtualLearn_Home_categories_design_course" transform="translate(-24.000000, -864.000000)">
            <g id="includes" transform="translate(24.000000, 678.000000)">
                <g id="icn_includes_certificate" transform="translate(0.000000, 186.000000)">
                    <rect id="Rectangle-Copy-5" fill="#2BB5F4" x="0" y="0" width="18" height="18" rx="2"></rect>
                    <g id="noun_Certificate_3821223" transform="translate(5.000000, 3.000000)" fill="#FFFFFF" fill-rule="nonzero">
                        <path d="M0.111731786,1.65441013 L1.68773804,0.100869578 C1.76005625,0.029608458 1.86879547,0.00829532687 1.96326789,0.0468651119 C2.05774031,0.0854348969 2.11934898,0.176295118 2.11938653,0.277092089 L2.11938653,1.83063264 C2.12000323,1.8971419 2.09363935,1.96114 2.04614945,2.00838841 C1.99865955,2.05563682 1.93398286,2.08221634 1.8665089,2.08221347 L0.295207141,2.08221347 C0.191046433,2.08510753 0.0957503607,2.02472123 0.0551745213,1.93011191 C0.0145986819,1.83550258 0.0370526517,1.72604539 0.111731786,1.65441013 Z M8,0.49505151 L8,10.5026352 C7.99934742,10.7775096 7.77311271,11.0000027 7.49426256,11.0000027 L0.505733349,11.0000027 C0.226883194,11.0000027 0.000648488732,10.7775096 0,10.5026352 L0,2.9668041 C0.000643829474,2.82940418 0.11347982,2.71817664 0.252866675,2.71754199 L2.26051046,2.71754199 C2.39453138,2.71754235 2.52304604,2.66498245 2.61770276,2.57145754 C2.71235948,2.47793264 2.76538009,2.3511279 2.76506768,2.21901778 L2.76506768,0.248108124 C2.76506695,0.182105819 2.79174566,0.11882358 2.83920147,0.072261819 C2.88665729,0.0257000579 2.95097833,-0.000303043957 3.01793436,2.66539423e-06 L7.49426256,2.66539423e-06 C7.62848717,-0.000303400966 7.7573045,0.0521203721 7.85221589,0.145678815 C7.94712728,0.239237259 8.00030915,0.366218327 8,0.498529586 L8,0.49505151 Z M1.89826425,4.66526448 L6.10173166,4.66526448 L6.10173166,4.06819479 L1.89826425,4.06819479 L1.89826425,4.66526448 Z M1.89826425,6.27909168 L6.10173166,6.27909168 L6.10173166,5.68202199 L1.89826425,5.68202199 L1.89826425,6.27909168 Z M3.55542306,7.29932727 L1.89826425,7.29932727 L1.89826425,7.89755632 L3.55542306,7.89755632 L3.55542306,7.29932727 Z M6.63686811,8.80649348 C6.63686811,8.58157791 6.82151959,8.30565056 6.7144923,8.12479061 C6.60746501,7.94393067 6.26638903,7.95784297 6.07585693,7.84886326 C5.88532483,7.73988355 5.74418995,7.44192838 5.51602188,7.44192838 C5.28785381,7.44192838 5.13966218,7.74336163 4.9550107,7.84886326 C4.77035922,7.9543649 4.42693099,7.93697452 4.31637533,8.12479061 C4.20581967,8.31260671 4.39399952,8.58157791 4.39399952,8.80649348 C4.39399952,9.03140906 4.21052416,9.30733641 4.31637533,9.48935571 C4.42222649,9.67137502 4.7644786,9.65630336 4.9550107,9.76412371 C5.1455428,9.87194406 5.28785381,10.1710586 5.51602188,10.1710586 C5.74418995,10.1710586 5.89238158,9.86962534 6.07585693,9.76412371 C6.25933229,9.65862207 6.60393664,9.67601245 6.7144923,9.48935571 C6.82504796,9.30269897 6.63686811,9.03836521 6.63686811,8.80649348 Z" id="Shape"></path>
                    </g>
                </g>
            </g>
        </g>
    </g>
</svg>