<?xml version="1.0" encoding="UTF-8"?>
<svg width="19px" height="20px" viewBox="0 0 19 20" version="1.1" xmlns="http://www.w3.org/2000/svg" xmlns:xlink="http://www.w3.org/1999/xlink">
    <title>E780E8CF-33A0-4FAF-80BE-F440CA8261E1@1.5x</title>
    <g id="Design" stroke="none" stroke-width="1" fill="none" fill-rule="evenodd">
        <g id="09_VirtualLearn_Menu_my-course" transform="translate(-34.000000, -592.000000)" fill-rule="nonzero">
            <g id="categories" transform="translate(24.000000, 551.000000)">
                <g id="design" transform="translate(0.000000, 36.000000)">
                    <g id="icn_categories-suggestion_design" transform="translate(10.000000, 5.000000)">
                        <path d="M15.3191478,2.05730363 C11.1363607,2.05730363 8.26398268,0 6.24848039,0 C4.23297811,0 0,1.1001378 0,9.90411116 C0,18.7080845 5.69456497,20 7.91143608,20 C18.2925125,20.0005742 22.7268594,2.05730363 15.3191478,2.05730363 Z" id="Path" fill="#EFEFEF"></path>
                        <path d="M8.703125,2.88647044 C8.26378125,2.88647044 7.90625,2.5198609 7.90625,2.06936151 C7.90625,1.61886211 8.26378125,1.25225257 8.703125,1.25225257 C9.14246875,1.25225257 9.5,1.61886211 9.5,2.06936151 C9.5,2.5198609 9.14246875,2.88647044 8.703125,2.88647044 Z M8.703125,1.79699186 C8.5565,1.79699186 8.4375,1.91901346 8.4375,2.06936151 C8.4375,2.21970955 8.5565,2.34173115 8.703125,2.34173115 C8.84975,2.34173115 8.96875,2.21970955 8.96875,2.06936151 C8.96875,1.91901346 8.84975,1.79699186 8.703125,1.79699186 Z" id="Shape" fill="#A4AFC1"></path>
                        <g id="Group" transform="translate(3.523438, 4.384503)">
                            <polygon id="Path" fill="#2FDF84" points="0 -9.67651365e-16 1.328125 -9.67651365e-16 1.328125 1.36184823 0 1.36184823"></polygon>
                            <path d="M11.0234375,7.35398042 C10.656875,7.35398042 10.359375,7.04892642 10.359375,6.67305631 C10.359375,6.2971862 10.656875,5.9921322 11.0234375,5.9921322 C11.39,5.9921322 11.6875,6.2971862 11.6875,6.67305631 C11.6875,7.04892642 11.39,7.35398042 11.0234375,7.35398042 Z" id="Path" fill="#2FDF84"></path>
                            <path d="M8.234375,12.256634 L7.76475,8.64392307 C7.7296875,8.37318764 7.5044375,8.17108936 7.23828125,8.17108936 L4.715375,8.17108936 C4.44921875,8.17108936 4.22396875,8.37318764 4.18890625,8.64392307 L3.71875,12.256634 L8.234375,12.256634 Z" id="Path" fill="#FCBE4B"></path>
                            <path d="M0.9296875,7.35398042 C0.563125,7.35398042 0.265625,7.04892642 0.265625,6.67305631 C0.265625,6.2971862 0.563125,5.9921322 0.9296875,5.9921322 C1.29625,5.9921322 1.59375,6.2971862 1.59375,6.67305631 C1.59375,7.04892642 1.29625,7.35398042 0.9296875,7.35398042 Z" id="Path" fill="#2FDF84"></path>
                            <polygon id="Path" fill="#2FDF84" points="10.625 -9.67651365e-16 11.953125 -9.67651365e-16 11.953125 1.36184823 10.625 1.36184823"></polygon>
                        </g>
                        <polygon id="Path" fill="#F3F3F1" points="10.4334063 12.5555929 11.7578125 10.5672944 9.5 5.20161243 7.2421875 10.5672944 8.56659375 12.5555929"></polygon>
                        <polygon id="Path" fill="#FCBE4B" points="3.5234375 4.38450349 4.71875 4.38450349 4.71875 5.74635172 3.5234375 5.74635172"></polygon>
                        <path d="M15.078125,11.0575598 C15.078125,10.9540593 15.1041562,10.85873 15.1445312,10.7710269 C15.0382813,10.5395127 14.8125,10.3766357 14.546875,10.3766357 C14.1803125,10.3766357 13.8828125,10.6816897 13.8828125,11.0575598 C13.8828125,11.4334299 14.1803125,11.7384839 14.546875,11.7384839 C14.8125,11.7384839 15.0382813,11.5756069 15.1445312,11.3440927 C15.1041562,11.2563896 15.078125,11.1610603 15.078125,11.0575598 Z" id="Path" fill="#FCBE4B"></path>
                        <path d="M9.43359375,12.5555929 L8.23828125,12.5555929 C7.972125,12.5555929 7.746875,12.7576911 7.7118125,13.0284266 L7.2421875,16.6411375 L8.4375,16.6411375 L8.907125,13.0284266 C8.94271875,12.7576911 9.1674375,12.5555929 9.43359375,12.5555929 L9.43359375,12.5555929 Z" id="Path" fill="#E1960A"></path>
                        <path d="M4.984375,11.0575598 C4.984375,10.9540593 5.01040625,10.85873 5.05078125,10.7710269 C4.94453125,10.5395127 4.71875,10.3766357 4.453125,10.3766357 C4.0865625,10.3766357 3.7890625,10.6816897 3.7890625,11.0575598 C3.7890625,11.4334299 4.0865625,11.7384839 4.453125,11.7384839 C4.71875,11.7384839 4.94453125,11.5756069 5.05078125,11.3440927 C5.01040625,11.2563896 4.984375,11.1610603 4.984375,11.0575598 Z" id="Path" fill="#FCBE4B"></path>
                        <polygon id="Path" fill="#FCBE4B" points="14.1484375 4.38450349 15.34375 4.38450349 15.34375 5.74635172 14.1484375 5.74635172"></polygon>
                        <polygon id="Path" fill="#D5DBE1" points="10.0976562 6.62174776 9.5 5.20161243 7.2421875 10.5672944 8.56659375 12.5555929 9.76190625 12.5555929 8.4375 10.5672944"></polygon>
                        <path d="M14.9453125,10.2404509 L14.1484375,10.2404509 C14.1484375,7.61208379 12.0632812,5.47398207 9.5,5.47398207 C6.93671875,5.47398207 4.8515625,7.61208379 4.8515625,10.2404509 L4.0546875,10.2404509 C4.0546875,7.1615844 6.497375,4.65687314 9.5,4.65687314 C12.502625,4.65687314 14.9453125,7.1615844 14.9453125,10.2404509 Z" id="Path" fill="#2B2B2B"></path>
                        <path d="M4.8515625,6.15490619 L3.5234375,6.15490619 C3.3035,6.15490619 3.125,5.97187379 3.125,5.74635172 L3.125,4.38450349 C3.125,4.15898143 3.3035,3.97594902 3.5234375,3.97594902 L4.8515625,3.97594902 C5.0715,3.97594902 5.25,4.15898143 5.25,4.38450349 L5.25,5.74635172 C5.25,5.97187379 5.0715,6.15490619 4.8515625,6.15490619 Z M3.921875,5.33779725 L4.453125,5.33779725 L4.453125,4.79305796 L3.921875,4.79305796 L3.921875,5.33779725 Z" id="Shape" fill="#2B2B2B"></path>
                        <path d="M14.546875,12.1470384 C13.9609062,12.1470384 13.484375,11.6584072 13.484375,11.0575598 C13.484375,10.4567124 13.9609062,9.96808122 14.546875,9.96808122 C15.1328437,9.96808122 15.609375,10.4567124 15.609375,11.0575598 C15.609375,11.6584072 15.1328437,12.1470384 14.546875,12.1470384 Z M14.546875,10.7851902 C14.40025,10.7851902 14.28125,10.9072118 14.28125,11.0575598 C14.28125,11.2079078 14.40025,11.3299294 14.546875,11.3299294 C14.6935,11.3299294 14.8125,11.2079078 14.8125,11.0575598 C14.8125,10.9072118 14.6935,10.7851902 14.546875,10.7851902 Z" id="Shape" fill="#2B2B2B"></path>
                        <polygon id="Path" fill="#2B2B2B" points="4.984375 4.65687314 14.015625 4.65687314 14.015625 5.47398207 4.984375 5.47398207"></polygon>
                        <path d="M10.76225,12.7860176 L10.1045625,12.3251681 L11.3051875,10.5226258 L9.5,6.23280391 L7.6948125,10.5226258 L8.8954375,12.3251681 L8.23775,12.7860176 L6.91334375,10.7977192 C6.8363125,10.6822344 6.8225,10.5340653 6.8766875,10.4055069 L9.1345,5.03982486 C9.26040625,4.74076299 9.740125,4.74076299 9.86603125,5.03982486 L12.1238438,10.4055069 C12.1780313,10.5340653 12.1642188,10.6822344 12.0871875,10.7977192 L10.76225,12.7860176 Z" id="Path" fill="#2B2B2B"></path>
                        <path d="M11.4151563,17.1003528 L10.8929375,13.0823557 C10.8844375,13.0148081 10.8275938,12.9641473 10.7611875,12.9641473 L8.23828125,12.9641473 C8.171875,12.9641473 8.1155625,13.0148081 8.10653125,13.0823557 L7.5843125,17.099808 L6.79434375,16.9919496 L7.3165625,12.9739526 C7.37871875,12.5027531 7.7745,12.1470384 8.23828125,12.1470384 L10.7611875,12.1470384 C11.2249688,12.1470384 11.6212813,12.5027531 11.682375,12.9739526 L12.205125,16.9919496 L11.4151563,17.1003528 Z" id="Path" fill="#2B2B2B"></path>
                        <polygon id="Path" fill="#2B2B2B" points="9.1015625 5.47398207 9.8984375 5.47398207 9.8984375 9.96808122 9.1015625 9.96808122"></polygon>
                        <path d="M4.453125,12.1470384 C3.86715625,12.1470384 3.390625,11.6584072 3.390625,11.0575598 C3.390625,10.4567124 3.86715625,9.96808122 4.453125,9.96808122 C5.03909375,9.96808122 5.515625,10.4567124 5.515625,11.0575598 C5.515625,11.6584072 5.03909375,12.1470384 4.453125,12.1470384 Z M4.453125,10.7851902 C4.3065,10.7851902 4.1875,10.9072118 4.1875,11.0575598 C4.1875,11.2079078 4.3065,11.3299294 4.453125,11.3299294 C4.59975,11.3299294 4.71875,11.2079078 4.71875,11.0575598 C4.71875,10.9072118 4.59975,10.7851902 4.453125,10.7851902 Z" id="Shape" fill="#2B2B2B"></path>
                        <path d="M15.4765625,6.15490619 L14.1484375,6.15490619 C13.9285,6.15490619 13.75,5.97187379 13.75,5.74635172 L13.75,4.38450349 C13.75,4.15898143 13.9285,3.97594902 14.1484375,3.97594902 L15.4765625,3.97594902 C15.6965,3.97594902 15.875,4.15898143 15.875,4.38450349 L15.875,5.74635172 C15.875,5.97187379 15.6965,6.15490619 15.4765625,6.15490619 Z M14.546875,5.33779725 L15.078125,5.33779725 L15.078125,4.79305796 L14.546875,4.79305796 L14.546875,5.33779725 Z" id="Shape" fill="#2B2B2B"></path>
                        <polygon id="Path" fill="#2B2B2B" points="1 16.3687679 18 16.3687679 18 17.1858768 1 17.1858768"></polygon>
                    </g>
                </g>
            </g>
        </g>
    </g>
</svg>