<?xml version="1.0" encoding="UTF-8"?>
<svg width="19px" height="20px" viewBox="0 0 19 20" version="1.1" xmlns="http://www.w3.org/2000/svg" xmlns:xlink="http://www.w3.org/1999/xlink">
    <title>56F04E1D-D692-4C33-93A4-9BA27312891F@1.5x</title>
    <g id="Design" stroke="none" stroke-width="1" fill="none" fill-rule="evenodd">
        <g id="09_VirtualLearn_Menu_my-course" transform="translate(-156.000000, -706.000000)" fill-rule="nonzero">
            <g id="categories" transform="translate(24.000000, 551.000000)">
                <g id="teaching" transform="translate(122.000000, 150.000000)">
                    <g id="icn_categories-suggestion_teaching" transform="translate(10.000000, 5.000000)">
                        <path d="M1.95443845,3.8745813 C1.95443845,8.27751507 0,11.3010709 0,13.4226522 C0,15.5442336 1.04513091,20 9.4089056,20 C17.7726803,20 19,14.0057211 19,11.6721725 C19.0005455,0.744723657 1.95443845,-3.92300994 1.95443845,3.8745813 Z" id="Path" fill="#EFEFEF"></path>
                        <polygon id="Path" fill="#A4AFC1" transform="translate(14.115179, 3.529151) rotate(-45.000000) translate(-14.115179, -3.529151) " points="13.8413783 2.9848619 14.3845627 2.9870706 14.3889801 4.0734393 13.8457957 4.07123059"></polygon>
                        <polygon id="Path" fill="#A4AFC1" transform="translate(16.332714, 5.729090) rotate(-45.000000) translate(-16.332714, -5.729090) " points="16.0589127 5.18480109 16.602097 5.18700979 16.6065144 6.27337849 16.0633301 6.27116979"></polygon>
                        <polygon id="Path" fill="#A4AFC1" transform="translate(16.237909, 3.532114) rotate(-45.000000) translate(-16.237909, -3.532114) " points="15.6936207 3.25831309 16.7799894 3.2627305 16.7821981 3.80591485 15.6958294 3.80149744"></polygon>
                        <path d="M11.3338884,12.9503117 L11.9546394,8.14734562 L7.04536059,8.14734562 L7.66611162,12.9503117 C7.70102205,13.2202994 7.9328491,13.4226548 8.20722324,13.4226548 L10.7927768,13.4226548 C11.0671509,13.4226548 11.298978,13.2202994 11.3338884,12.9503117 Z" id="Path" fill="#FCBE4B"></path>
                        <g id="Group" transform="translate(3.908877, 3.413094)" fill="#F3F3F1">
                            <ellipse id="Oval" cx="5.59112311" cy="0.67632169" rx="1" ry="1"></ellipse>
                            <path d="M3.81832797,3.51687279 C3.81832797,3.0688773 4.18488746,2.70528676 4.63654111,2.70528676 L6.5457051,2.70528676 C6.99735875,2.70528676 7.36391824,3.0688773 7.36391824,3.51687279 L7.36391824,4.86951617 L3.81832797,4.86951617 L3.81832797,3.51687279 Z" id="Path"></path>
                            <path d="M6.81844281,12.1737904 C6.81844281,11.7257949 6.45188333,11.3622044 6.00022967,11.3622044 L5.18201654,11.3622044 C4.73036288,11.3622044 4.3638034,11.7257949 4.3638034,12.1737904 L4.3638034,12.5795834 L6.81844281,12.5795834 L6.81844281,12.1737904 Z" id="Path"></path>
                            <path d="M11.1822462,12.1737904 C11.1822462,11.7257949 10.8156867,11.3622044 10.3640331,11.3622044 L9.54581994,11.3622044 C9.09416628,11.3622044 8.7276068,11.7257949 8.7276068,12.1737904 L8.7276068,12.5795834 L11.1822462,12.5795834 L11.1822462,12.1737904 Z" id="Path"></path>
                            <path d="M2.45463941,12.1737904 C2.45463941,11.7257949 2.08807993,11.3622044 1.63642627,11.3622044 L0.818213137,11.3622044 C0.366559486,11.3622044 0,11.7257949 0,12.1737904 L0,12.5795834 L2.45463941,12.5795834 L2.45463941,12.1737904 Z" id="Path"></path>
                        </g>
                        <path d="M8.89343133,12.9503117 L8.27268029,8.14734562 L7.04536059,8.14734562 L7.66611162,12.9503117 C7.70102205,13.2202994 7.9328491,13.4226548 8.20722324,13.4226548 L9.43454295,13.4226548 C9.16016881,13.4226548 8.92834175,13.2202994 8.89343133,12.9503117 Z" id="Path" fill="#E1960A"></path>
                        <path d="M10.0454754,4.08941549 C10.0454754,3.98661459 10.0722037,3.89192955 10.1136599,3.80481932 C10.0045648,3.57486994 9.77273771,3.4130938 9.5,3.4130938 C9.12362196,3.4130938 8.81815572,3.71608591 8.81815572,4.08941549 C8.81815572,4.46274506 9.12362196,4.76573717 9.5,4.76573717 C9.77273771,4.76573717 10.0045648,4.60396103 10.1136599,4.37401165 C10.0722037,4.28690142 10.0454754,4.19221638 10.0454754,4.08941549 Z" id="Path" fill="#D5DBE1"></path>
                        <path d="M9.77273771,6.11838055 L8.54541801,6.11838055 C8.09376435,6.11838055 7.72720487,6.48197109 7.72720487,6.92996658 L7.72720487,8.28260996 L8.95452458,8.28260996 L8.95452458,6.92996658 C8.95452458,6.48197109 9.32108406,6.11838055 9.77273771,6.11838055 Z" id="Path" fill="#D5DBE1"></path>
                        <path d="M10.1136599,14.8039742 C10.0476573,14.7872014 9.98001837,14.7752982 9.90910657,14.7752982 L9.09089343,14.7752982 C8.63923978,14.7752982 8.27268029,15.1388887 8.27268029,15.5868842 L8.27268029,15.9926772 L9.5,15.9926772 L9.5,15.5868842 C9.5,15.2092262 9.76128273,14.8943308 10.1136599,14.8039742 Z" id="Path" fill="#D5DBE1"></path>
                        <path d="M14.4774633,14.8039742 C14.4114607,14.7872014 14.3438218,14.7752982 14.27291,14.7752982 L13.4546968,14.7752982 C13.0030432,14.7752982 12.6364837,15.1388887 12.6364837,15.5868842 L12.6364837,15.9926772 L13.8638034,15.9926772 L13.8638034,15.5868842 C13.8638034,15.2092262 14.1250861,14.8943308 14.4774633,14.8039742 Z" id="Path" fill="#D5DBE1"></path>
                        <path d="M5.74985645,14.8039742 C5.68385393,14.7872014 5.61621497,14.7752982 5.54530317,14.7752982 L4.72709003,14.7752982 C4.27543638,14.7752982 3.90887689,15.1388887 3.90887689,15.5868842 L3.90887689,15.9926772 L5.1361966,15.9926772 L5.1361966,15.5868842 C5.1361966,15.2092262 5.39747933,14.8943308 5.74985645,14.8039742 Z" id="Path" fill="#D5DBE1"></path>
                        <polygon id="Path" fill="#2B2B2B" points="5.68167203 7.87681695 13.318328 7.87681695 13.318328 8.68840298 5.68167203 8.68840298"></polygon>
                        <path d="M9.5,5.17153019 C8.89834061,5.17153019 8.40904915,4.68620174 8.40904915,4.08941549 C8.40904915,3.49262923 8.89834061,3.00730078 9.5,3.00730078 C10.1016594,3.00730078 10.5909508,3.49262923 10.5909508,4.08941549 C10.5909508,4.68620174 10.1016594,5.17153019 9.5,5.17153019 Z M9.5,3.81888681 C9.34999426,3.81888681 9.22726229,3.94008366 9.22726229,4.08941549 C9.22726229,4.23874731 9.34999426,4.35994416 9.5,4.35994416 C9.65000574,4.35994416 9.77273771,4.23874731 9.77273771,4.08941549 C9.77273771,3.94008366 9.65000574,3.81888681 9.5,3.81888681 Z" id="Shape" fill="#2B2B2B"></path>
                        <path d="M11.6819017,7.3357596 L10.8636886,7.3357596 L10.8636886,6.92996658 C10.8636886,6.70596884 10.6798633,6.52417357 10.454582,6.52417357 L8.54541801,6.52417357 C8.32013666,6.52417357 8.13631144,6.70596884 8.13631144,6.92996658 L8.13631144,7.3357596 L7.3180983,7.3357596 L7.3180983,6.92996658 C7.3180983,6.25851441 7.86902848,5.71258754 8.54541801,5.71258754 L10.454582,5.71258754 C11.1309715,5.71258754 11.6819017,6.25851441 11.6819017,6.92996658 L11.6819017,7.3357596 Z" id="Path" fill="#2B2B2B"></path>
                        <ellipse id="Oval" fill="#2B2B2B" cx="13.8638034" cy="13.0168618" rx="1" ry="1"></ellipse>
                        <path d="M15.5002297,15.9926772 L14.6820165,15.9926772 L14.6820165,15.5868842 C14.6820165,15.3628865 14.4981913,15.1810912 14.27291,15.1810912 L13.4546968,15.1810912 C13.2294155,15.1810912 13.0455903,15.3628865 13.0455903,15.5868842 L13.0455903,15.9926772 L12.2273771,15.9926772 L12.2273771,15.5868842 C12.2273771,14.915432 12.7783073,14.3695052 13.4546968,14.3695052 L14.27291,14.3695052 C14.9492995,14.3695052 15.5002297,14.915432 15.5002297,15.5868842 L15.5002297,15.9926772 Z" id="Path" fill="#2B2B2B"></path>
                        <ellipse id="Oval" fill="#2B2B2B" cx="9.5" cy="13.0168618" rx="1" ry="1"></ellipse>
                        <path d="M11.1364263,15.9926772 L10.3182131,15.9926772 L10.3182131,15.5868842 C10.3182131,15.3628865 10.1343879,15.1810912 9.90910657,15.1810912 L9.09089343,15.1810912 C8.86561208,15.1810912 8.68178686,15.3628865 8.68178686,15.5868842 L8.68178686,15.9926772 L7.86357373,15.9926772 L7.86357373,15.5868842 C7.86357373,14.915432 8.4145039,14.3695052 9.09089343,14.3695052 L9.90910657,14.3695052 C10.5854961,14.3695052 11.1364263,14.915432 11.1364263,15.5868842 L11.1364263,15.9926772 Z" id="Path" fill="#2B2B2B"></path>
                        <ellipse id="Oval" fill="#2B2B2B" cx="5.1361966" cy="13.0168618" rx="1" ry="1"></ellipse>
                        <path d="M6.77262288,15.9926772 L5.95440974,15.9926772 L5.95440974,15.5868842 C5.95440974,15.3628865 5.77058452,15.1810912 5.54530317,15.1810912 L4.72709003,15.1810912 C4.50180868,15.1810912 4.31798346,15.3628865 4.31798346,15.5868842 L4.31798346,15.9926772 L3.49977033,15.9926772 L3.49977033,15.5868842 C3.49977033,14.915432 4.05070051,14.3695052 4.72709003,14.3695052 L5.54530317,14.3695052 C6.2216927,14.3695052 6.77262288,14.915432 6.77262288,15.5868842 L6.77262288,15.9926772 Z" id="Path" fill="#2B2B2B"></path>
                        <polygon id="Path" fill="#2B2B2B" transform="translate(11.756320, 9.842205) rotate(-81.837491) translate(-11.756320, -9.842205) " points="9.91490212 9.43099894 13.5968071 9.43522368 13.5977386 10.2534112 9.91583364 10.2491865"></polygon>
                        <polygon id="Path" fill="#2B2B2B" transform="translate(7.246262, 9.841331) rotate(-8.105794) translate(-7.246262, -9.841331) " points="6.83512705 8.00018085 7.65320066 8.00110593 7.65739624 11.6824817 6.83932263 11.6815566"></polygon>
                    </g>
                </g>
            </g>
        </g>
    </g>
</svg>