<?xml version="1.0" encoding="UTF-8"?>
<svg width="19px" height="20px" viewBox="0 0 19 20" version="1.1" xmlns="http://www.w3.org/2000/svg" xmlns:xlink="http://www.w3.org/1999/xlink">
    <title>C2F624C9-AC41-454F-87EF-23F2D73FC0AF@1.5x</title>
    <g id="Design" stroke="none" stroke-width="1" fill="none" fill-rule="evenodd">
        <g id="13.4_VirtualLearn_Search_filter-filled-for-assets" transform="translate(-125.000000, -390.000000)" fill-rule="nonzero">
            <g id="categories" transform="translate(24.000000, 349.000000)">
                <g id="code" transform="translate(91.000000, 36.000000)">
                    <g id="icn_categories-suggestion_code_selected" transform="translate(10.000000, 5.000000)">
                        <path d="M3.68085224,17.9427554 C7.86363932,17.9427554 10.7360173,20 12.7515196,20 C14.7670219,20 19,18.8998938 19,10.0961732 C19,1.29245256 13.305435,0 11.0885639,0 C0.707487474,0 -3.72685945,17.9427554 3.68085224,17.9427554 Z" id="Path" fill="#F0AC2E"></path>
                        <path d="M1.33638708,3.49143054 C0.83629095,3.49143054 0.429320341,3.0856946 0.429320341,2.58711567 C0.429320341,2.08853673 0.83629095,1.68280079 1.33638708,1.68280079 C1.83648321,1.68280079 2.24345381,2.08853673 2.24345381,2.58711567 C2.24345381,3.0856946 1.83648321,3.49143054 1.33638708,3.49143054 Z M1.33638708,2.28567737 C1.1694868,2.28567737 1.0340315,2.42072173 1.0340315,2.58711567 C1.0340315,2.7535096 1.1694868,2.88855396 1.33638708,2.88855396 C1.50328736,2.88855396 1.63874266,2.7535096 1.63874266,2.58711567 C1.63874266,2.42072173 1.50328736,2.28567737 1.33638708,2.28567737 Z" id="Shape" fill="#F6F6F6"></path>
                        <path d="M16.3029882,12.3639652 L16.3029882,13.8711567 C16.3029882,14.2027388 16.0308682,14.4740332 15.6982771,14.4740332 L3.30169834,14.4740332 C2.9691072,14.4740332 2.69698718,14.2027388 2.69698718,13.8711567 L2.69698718,12.3639652 L16.3029882,12.3639652 Z" id="Path" fill="#FCBE4B"></path>
                        <path d="M16.3029882,5.7323228 L16.3029882,12.3639652 L2.69698718,12.3639652 L2.69698718,5.7323228 C2.69698718,5.40074068 2.9691072,5.12944621 3.30169834,5.12944621 L15.6982771,5.12944621 C16.0308682,5.12944621 16.3029882,5.40074068 16.3029882,5.7323228 Z" id="Path" fill="#EFEFEF"></path>
                        <path d="M11.4532047,16.282663 L7.53467645,16.282663 C8.29056539,15.5290673 8.42964896,14.4740332 8.42964896,14.4740332 L10.5582322,14.4740332 C10.5582322,14.4740332 10.7033629,15.535096 11.4532047,16.282663 Z" id="Path" fill="#EFEFEF"></path>
                        <path d="M4.05758729,13.8711567 L4.05758729,12.3639652 L2.69698718,12.3639652 L2.69698718,13.8711567 C2.69698718,14.2027388 2.9691072,14.4740332 3.30169834,14.4740332 L4.66229845,14.4740332 C4.32970731,14.4740332 4.05758729,14.2027388 4.05758729,13.8711567 Z" id="Path" fill="#E1960A"></path>
                        <path d="M4.66229845,5.12944621 L3.30169834,5.12944621 C2.9691072,5.12944621 2.69698718,5.40074068 2.69698718,5.7323228 L2.69698718,12.3639652 L4.05758729,12.3639652 L4.05758729,5.7323228 C4.05758729,5.40074068 4.32970731,5.12944621 4.66229845,5.12944621 Z" id="Path" fill="#D5DBE1"></path>
                        <path d="M8.42964896,14.4740332 C8.42964896,14.4740332 8.29056539,15.5290673 7.53467645,16.282663 L8.89527655,16.282663 C9.6511655,15.5290673 9.79024907,14.4740332 9.79024907,14.4740332 L8.42964896,14.4740332 Z" id="Path" fill="#D5DBE1"></path>
                        <path d="M15.6982771,14.9261907 L3.30169834,14.9261907 C2.71815207,14.9261907 2.24345381,14.4529326 2.24345381,13.8711567 L2.24345381,5.7323228 C2.24345381,5.1505469 2.71815207,4.67728878 3.30169834,4.67728878 L15.6982771,4.67728878 C16.2818233,4.67728878 16.7565216,5.1505469 16.7565216,5.7323228 L16.7565216,13.8711567 C16.7565216,14.4529326 16.2818233,14.9261907 15.6982771,14.9261907 Z M3.30169834,5.58160365 C3.2182482,5.58160365 3.15052055,5.64912583 3.15052055,5.7323228 L3.15052055,13.8711567 C3.15052055,13.9543536 3.2182482,14.0218758 3.30169834,14.0218758 L15.6982771,14.0218758 C15.7817272,14.0218758 15.8494549,13.9543536 15.8494549,13.8711567 L15.8494549,5.7323228 C15.8494549,5.64912583 15.7817272,5.58160365 15.6982771,5.58160365 L3.30169834,5.58160365 Z" id="Shape" fill="#2B2B2B"></path>
                        <path d="M16.3029882,12.8161226 L2.69698718,12.8161226 C2.44663676,12.8161226 2.24345381,12.6135561 2.24345381,12.3639652 C2.24345381,12.1143743 2.44663676,11.9118078 2.69698718,11.9118078 L16.3029882,11.9118078 C16.5533387,11.9118078 16.7565216,12.1143743 16.7565216,12.3639652 C16.7565216,12.6135561 16.5533387,12.8161226 16.3029882,12.8161226 Z" id="Path" fill="#2B2B2B"></path>
                        <path d="M11.465299,16.7348204 L7.53467645,16.7348204 C7.35144897,16.7348204 7.18575811,16.624494 7.11561161,16.4556886 C7.04546512,16.2868831 7.08416663,16.092154 7.21417953,15.9631384 C7.84368385,15.3355439 7.97913915,14.4245974 7.98034857,14.4155542 C8.01300297,14.1677719 8.24158379,13.9941435 8.48891065,14.0260959 C8.73744694,14.0586513 8.91220846,14.2859358 8.87955406,14.5331151 C8.87471637,14.5686849 8.79066152,15.1757816 8.42964896,15.8305056 L10.5600464,15.8305056 C10.2026621,15.178796 10.1137695,14.5716993 10.1089318,14.5361295 C10.0744633,14.2889501 10.2474107,14.0604599 10.495947,14.0260959 C10.7456927,13.9923349 10.9724594,14.1641547 11.0075326,14.4107312 C11.0117656,14.4378606 11.1478256,15.2963569 11.7235106,15.9106881 C11.8414293,15.9926794 11.9188323,16.1283266 11.9188323,16.282663 C11.9188323,16.5322539 11.7156494,16.7348204 11.465299,16.7348204 L11.465299,16.7348204 Z" id="Path" fill="#2B2B2B"></path>
                        <path d="M11.465299,10.4046163 C11.3606839,10.4046163 11.2560689,10.3690466 11.1701999,10.2954957 C10.9803206,10.132719 10.9579463,9.84755835 11.1212183,9.65765223 L11.7749111,8.89742486 L11.1206136,8.13659461 C10.9573416,7.94729136 10.9797159,7.66152786 11.1695952,7.49875118 C11.3600792,7.33597451 11.6467123,7.35888382 11.8093796,7.54758419 L12.7164464,8.60261821 C12.8621817,8.77202653 12.8621817,9.02161743 12.7164464,9.19162863 L11.8093796,10.2466626 C11.7198824,10.3509603 11.592893,10.4046163 11.465299,10.4046163 Z" id="Path" fill="#2B2B2B"></path>
                        <path d="M7.53467645,10.4046163 C7.40708239,10.4046163 7.28009305,10.3509603 7.18999109,10.2466626 L6.28292435,9.19162863 C6.13718896,9.02222031 6.13718896,8.7726294 6.28292435,8.60261821 L7.18999109,7.54758419 C7.3532631,7.35767806 7.63868677,7.33537163 7.82977549,7.49875118 C8.01965479,7.66152786 8.04202911,7.94668849 7.8787571,8.13659461 L7.22506433,8.89742486 L7.87936181,9.6582551 C8.04263382,9.84755835 8.02025951,10.1333218 7.8303802,10.2960985 C7.74451122,10.3684437 7.63929148,10.4046163 7.53467645,10.4046163 Z" id="Path" fill="#2B2B2B"></path>
                        <path d="M9.04645434,11.3089312 C9.01259052,11.3089312 8.97872669,11.3053139 8.94425816,11.2974765 C8.69995485,11.241409 8.54817235,10.9984497 8.60380577,10.7554905 L9.51087251,6.8367927 C9.56711065,6.59323056 9.81141396,6.44432004 10.0545078,6.49737318 C10.2988111,6.5534407 10.4505936,6.79639997 10.3949602,7.03935923 L9.48789349,10.958057 C9.4401213,11.1678581 9.25326556,11.3089312 9.04645434,11.3089312 Z" id="Path" fill="#2B2B2B"></path>
                    </g>
                </g>
            </g>
        </g>
    </g>
</svg>