<?xml version="1.0" encoding="UTF-8"?>
<svg width="19px" height="20px" viewBox="0 0 19 20" version="1.1" xmlns="http://www.w3.org/2000/svg" xmlns:xlink="http://www.w3.org/1999/xlink">
    <title>FA060544-DDDD-473A-8022-958F259A7268@1.5x</title>
    <g id="Design" stroke="none" stroke-width="1" fill="none" fill-rule="evenodd">
        <g id="09_VirtualLearn_Menu_my-course" transform="translate(-250.000000, -592.000000)" fill-rule="nonzero">
            <g id="categories" transform="translate(24.000000, 551.000000)">
                <g id="business" transform="translate(216.000000, 36.000000)">
                    <g id="icn_categories-suggestion_business" transform="translate(10.000000, 5.000000)">
                        <path d="M3.78634375,2.05730363 C7.8933125,2.05730363 10.713625,0 12.6925937,0 C14.6715625,0 18.8278125,1.1001378 18.8278125,9.90411116 C18.8278125,18.7080845 13.2364687,20 11.0597812,20 C0.866875,20.0005742 -3.48709375,2.05730363 3.78634375,2.05730363 Z" id="Path" fill="#EFEFEF"></path>
                        <g id="Group" transform="translate(14.192607, 0.094621)" fill="#A4AFC1">
                            <polygon id="Path" transform="translate(0.629672, 0.645030) rotate(-45.000000) translate(-0.629672, -0.645030) " points="0.335127334 0.0490837612 0.933358926 0.0445125062 0.924216416 1.24097569 0.325984824 1.24554694"></polygon>
                            <polygon id="Path" transform="translate(3.043458, 3.096396) rotate(-45.000000) translate(-3.043458, -3.096396) " points="2.74891346 2.50045032 3.34714505 2.49587907 3.33800254 3.69234225 2.73977095 3.6969135"></polygon>
                            <polygon id="Path" transform="translate(2.938482, 0.645317) rotate(-45.000000) translate(-2.938482, -0.645317) " points="2.34253644 0.350772765 3.53899963 0.341630255 3.53442837 0.939861847 2.33796519 0.949004357"></polygon>
                        </g>
                        <path d="M14.9921875,15.0767685 L4.0078125,15.0767685 C3.35171875,15.0767685 2.8203125,14.5371785 2.8203125,13.8709807 L2.8203125,6.93770096 C2.8203125,6.27150322 3.35171875,5.73191318 4.0078125,5.73191318 L14.9921875,5.73191318 C15.6482813,5.73191318 16.1796875,6.27150322 16.1796875,6.93770096 L16.1796875,13.8709807 C16.1796875,14.5371785 15.6482813,15.0767685 14.9921875,15.0767685 Z" id="Path" fill="#F3F3F1"></path>
                        <path d="M5.1953125,11.4594051 L5.1953125,9.95217042 C5.1953125,9.61937299 5.4613125,9.34927653 5.7890625,9.34927653 L6.6796875,9.34927653 C7.0074375,9.34927653 7.2734375,9.61937299 7.2734375,9.95217042 L7.2734375,11.4594051 C7.2734375,11.7922026 7.0074375,12.062299 6.6796875,12.062299 L5.7890625,12.062299 C5.4613125,12.062299 5.1953125,11.7922026 5.1953125,11.4594051 Z" id="Path" fill="#FCBE4B"></path>
                        <path d="M11.7265625,11.4594051 L11.7265625,9.95217042 C11.7265625,9.61937299 11.9925625,9.34927653 12.3203125,9.34927653 L13.2109375,9.34927653 C13.5386875,9.34927653 13.8046875,9.61937299 13.8046875,9.95217042 L13.8046875,11.4594051 C13.8046875,11.7922026 13.5386875,12.062299 13.2109375,12.062299 L12.3203125,12.062299 C11.9925625,12.062299 11.7265625,11.7922026 11.7265625,11.4594051 Z" id="Path" fill="#FCBE4B"></path>
                        <path d="M4.15625,13.8709807 L4.15625,6.93770096 C4.15625,6.27150322 4.68765625,5.73191318 5.34375,5.73191318 L4.0078125,5.73191318 C3.35171875,5.73191318 2.8203125,6.27150322 2.8203125,6.93770096 L2.8203125,13.8709807 C2.8203125,14.5371785 3.35171875,15.0767685 4.0078125,15.0767685 L5.34375,15.0767685 C4.68765625,15.0767685 4.15625,14.5371785 4.15625,13.8709807 Z" id="Path" fill="#D5DBE1"></path>
                        <path d="M6.53125,11.4594051 L6.53125,9.95217042 C6.53125,9.69955788 6.68503125,9.48432476 6.90234375,9.39509646 C6.83346875,9.36676045 6.75865625,9.34927653 6.6796875,9.34927653 L5.7890625,9.34927653 C5.4613125,9.34927653 5.1953125,9.61937299 5.1953125,9.95217042 L5.1953125,11.4594051 C5.1953125,11.7922026 5.4613125,12.062299 5.7890625,12.062299 L6.6796875,12.062299 C6.75865625,12.062299 6.83346875,12.0448151 6.90234375,12.0164791 C6.68503125,11.9272508 6.53125,11.7120177 6.53125,11.4594051 Z" id="Path" fill="#E1960A"></path>
                        <path d="M13.0625,11.4594051 L13.0625,9.95217042 C13.0625,9.69955788 13.2162812,9.48432476 13.4335937,9.39509646 C13.3647187,9.36676045 13.2899062,9.34927653 13.2109375,9.34927653 L12.3203125,9.34927653 C11.9925625,9.34927653 11.7265625,9.61937299 11.7265625,9.95217042 L11.7265625,11.4594051 C11.7265625,11.7922026 11.9925625,12.062299 12.3203125,12.062299 L13.2109375,12.062299 C13.2899062,12.062299 13.3647187,12.0448151 13.4335937,12.0164791 C13.2162812,11.9272508 13.0625,11.7120177 13.0625,11.4594051 Z" id="Path" fill="#E1960A"></path>
                        <path d="M14.9921875,15.5289389 L4.0078125,15.5289389 C3.10709375,15.5289389 2.375,14.7855707 2.375,13.8709807 L2.375,6.93770096 C2.375,6.02311093 3.10709375,5.27974277 4.0078125,5.27974277 L14.9921875,5.27974277 C15.8929062,5.27974277 16.625,6.02311093 16.625,6.93770096 L16.625,13.8709807 C16.625,14.7855707 15.8929062,15.5289389 14.9921875,15.5289389 Z M4.0078125,6.1840836 C3.59871875,6.1840836 3.265625,6.52230707 3.265625,6.93770096 L3.265625,13.8709807 C3.265625,14.2863746 3.59871875,14.6245981 4.0078125,14.6245981 L14.9921875,14.6245981 C15.4012812,14.6245981 15.734375,14.2863746 15.734375,13.8709807 L15.734375,6.93770096 C15.734375,6.52230707 15.4012812,6.1840836 14.9921875,6.1840836 L4.0078125,6.1840836 Z" id="Shape" fill="#2B2B2B"></path>
                        <path d="M11.875,5.73191318 L10.984375,5.73191318 L10.984375,4.5261254 C10.984375,4.44292605 10.917875,4.37540193 10.8359375,4.37540193 L8.1640625,4.37540193 C8.082125,4.37540193 8.015625,4.44292605 8.015625,4.5261254 L8.015625,5.73191318 L7.125,5.73191318 L7.125,4.5261254 C7.125,3.9443328 7.59109375,3.47106109 8.1640625,3.47106109 L10.8359375,3.47106109 C11.4089063,3.47106109 11.875,3.9443328 11.875,4.5261254 L11.875,5.73191318 Z" id="Path" fill="#2B2B2B"></path>
                        <polygon id="Path" fill="#2B2B2B" points="5.7890625 5.73191318 6.6796875 5.73191318 6.6796875 9.34927653 5.7890625 9.34927653"></polygon>
                        <polygon id="Path" fill="#2B2B2B" points="5.7890625 12.062299 6.6796875 12.062299 6.6796875 15.0767685 5.7890625 15.0767685"></polygon>
                        <path d="M6.6796875,12.5144695 L5.7890625,12.5144695 C5.21609375,12.5144695 4.75,12.0411977 4.75,11.4594051 L4.75,9.95217042 C4.75,9.37037781 5.21609375,8.89710611 5.7890625,8.89710611 L6.6796875,8.89710611 C7.25265625,8.89710611 7.71875,9.37037781 7.71875,9.95217042 L7.71875,11.4594051 C7.71875,12.0411977 7.25265625,12.5144695 6.6796875,12.5144695 Z M5.7890625,9.80144695 C5.707125,9.80144695 5.640625,9.86897106 5.640625,9.95217042 L5.640625,11.4594051 C5.640625,11.5426045 5.707125,11.6101286 5.7890625,11.6101286 L6.6796875,11.6101286 C6.761625,11.6101286 6.828125,11.5426045 6.828125,11.4594051 L6.828125,9.95217042 C6.828125,9.86897106 6.761625,9.80144695 6.6796875,9.80144695 L5.7890625,9.80144695 Z" id="Shape" fill="#2B2B2B"></path>
                        <polygon id="Path" fill="#2B2B2B" points="12.3203125 5.73191318 13.2109375 5.73191318 13.2109375 9.34927653 12.3203125 9.34927653"></polygon>
                        <polygon id="Path" fill="#2B2B2B" points="12.3203125 12.062299 13.2109375 12.062299 13.2109375 15.0767685 12.3203125 15.0767685"></polygon>
                        <path d="M13.2109375,12.5144695 L12.3203125,12.5144695 C11.7473438,12.5144695 11.28125,12.0411977 11.28125,11.4594051 L11.28125,9.95217042 C11.28125,9.37037781 11.7473438,8.89710611 12.3203125,8.89710611 L13.2109375,8.89710611 C13.7839063,8.89710611 14.25,9.37037781 14.25,9.95217042 L14.25,11.4594051 C14.25,12.0411977 13.7839063,12.5144695 13.2109375,12.5144695 Z M12.3203125,9.80144695 C12.238375,9.80144695 12.171875,9.86897106 12.171875,9.95217042 L12.171875,11.4594051 C12.171875,11.5426045 12.238375,11.6101286 12.3203125,11.6101286 L13.2109375,11.6101286 C13.292875,11.6101286 13.359375,11.5426045 13.359375,11.4594051 L13.359375,9.95217042 C13.359375,9.86897106 13.292875,9.80144695 13.2109375,9.80144695 L12.3203125,9.80144695 Z" id="Shape" fill="#2B2B2B"></path>
                        <polygon id="Path" fill="#2B2B2B" points="0 14.6245981 19 14.6245981 19 15.5289389 0 15.5289389"></polygon>
                    </g>
                </g>
            </g>
        </g>
    </g>
</svg>