<?xml version="1.0" encoding="UTF-8"?>
<svg width="18px" height="18px" viewBox="0 0 18 18" version="1.1" xmlns="http://www.w3.org/2000/svg" xmlns:xlink="http://www.w3.org/1999/xlink">
    <title>B9302994-FD5A-40F9-BB63-73C0D67AED89@1.5x</title>
    <g id="Design" stroke="none" stroke-width="1" fill="none" fill-rule="evenodd">
        <g id="08.2_VirtualLearn_Home_categories_design_course" transform="translate(-24.000000, -804.000000)">
            <g id="includes" transform="translate(24.000000, 678.000000)">
                <g id="icn_includes_lifetime" transform="translate(0.000000, 126.000000)">
                    <rect id="Rectangle-Copy-3" fill="#2BB5F4" x="0" y="0" width="18" height="18" rx="2"></rect>
                    <g id="noun_Unlock_3764846" transform="translate(5.000000, 3.000000)" fill="#FFFFFF">
                        <path d="M2.18181818,3.79310345 L2.18181818,1.89655172 C2.18181818,0.849086207 2.99581818,0 4,0 C5.00418182,0 5.81818182,0.849086207 5.81818182,1.89655172 C5.81818182,1.89655172 5.81818182,2.27586207 5.45454545,2.27586207 C5.09090909,2.27586207 5.09090909,1.89655172 5.09090909,1.89655172 C5.09090909,1.26803448 4.60254545,0.75862069 4,0.75862069 C3.39745455,0.75862069 2.90909091,1.26803448 2.90909091,1.89655172 L2.90909091,3.79310345 L6.90909091,3.79310345 C7.19836364,3.79310345 7.47581818,3.91296552 7.68054545,4.12632759 C7.88509091,4.33987931 8,4.6292931 8,4.93103448 L8,8.34482759 C8,9.04901724 7.73181818,9.72437931 7.25436364,10.2222241 C6.77709091,10.7202586 6.12963636,11 5.45454545,11 L2.54545455,11 C1.87036364,11 1.22290909,10.7202586 0.745636364,10.2222241 C0.268181818,9.72437931 0,9.04901724 0,8.34482759 L0,4.93103448 C0,4.6292931 0.114909091,4.33987931 0.319454545,4.12632759 C0.524181818,3.91296552 0.801636364,3.79310345 1.09090909,3.79310345 L2.18181818,3.79310345 Z M3.63636364,7.90065517 C3.21290909,7.74437931 2.90909091,7.32258621 2.90909091,6.82758621 C2.90909091,6.19963793 3.398,5.68965517 4,5.68965517 C4.602,5.68965517 5.09090909,6.19963793 5.09090909,6.82758621 C5.09090909,7.32258621 4.78709091,7.74437931 4.36363636,7.90065517 L4.36363636,8.72413793 C4.36363636,8.93351724 4.20072727,9.10344828 4,9.10344828 C3.79927273,9.10344828 3.63636364,8.93351724 3.63636364,8.72413793 L3.63636364,7.90065517 Z" id="Shape"></path>
                    </g>
                </g>
            </g>
        </g>
    </g>
</svg>