<?xml version="1.0" encoding="UTF-8"?>
<svg width="19px" height="20px" viewBox="0 0 19 20" version="1.1" xmlns="http://www.w3.org/2000/svg" xmlns:xlink="http://www.w3.org/1999/xlink">
    <title>39BD7554-9B6F-4C3C-9724-7489399AB162@1.5x</title>
    <g id="Design" stroke="none" stroke-width="1" fill="none" fill-rule="evenodd">
        <g id="13_VirtualLearn_Search" transform="translate(-159.000000, -443.000000)" fill-rule="nonzero">
            <g id="categories" transform="translate(24.000000, 326.000000)">
                <g id="marketting" transform="translate(125.000000, 112.000000)">
                    <g id="icn_categories-suggestion_marketing" transform="translate(10.000000, 5.000000)">
                        <path d="M1.95443845,3.8745813 C1.95443845,8.27751507 0,11.3010709 0,13.4226522 C0,15.5442336 1.04513091,20 9.4089056,20 C17.7726803,20 19,14.0057211 19,11.6721725 C19.0005455,0.744723657 1.95443845,-3.92300994 1.95443845,3.8745813 Z" id="Path" fill="#EFEFEF"></path>
                        <path d="M12.363746,4.67234488 L12.363746,14.966 C12.363746,15.5780552 11.8728181,16.0788276 11.2727951,16.0788276 L5.54530317,16.0788276 C4.9452802,16.0788276 4.45435232,15.5780552 4.45435232,14.966 L4.45435232,4.67234488 C4.45435232,4.06028971 4.9452802,3.5595173 5.54530317,3.5595173 L5.81804088,3.5595173 C6.27078548,3.5595173 6.63625402,3.93231454 6.63625402,4.39413799 C6.63625402,4.70016557 6.88171796,4.95055178 7.18172944,4.95055178 L9.63636886,4.95055178 C9.93638034,4.95055178 10.1818443,4.70016557 10.1818443,4.39413799 C10.1818443,3.93231454 10.5473128,3.5595173 11.0000574,3.5595173 L11.2727951,3.5595173 C11.8728181,3.5595173 12.363746,4.06028971 12.363746,4.67234488 Z" id="Path" fill="#F3F3F1"></path>
                        <path d="M11.0000574,3.5595173 C10.5473128,3.5595173 10.1818443,3.93231454 10.1818443,4.39413799 C10.1818443,4.70016557 9.93638034,4.95055178 9.63636886,4.95055178 L7.18172944,4.95055178 C6.88171796,4.95055178 6.63625402,4.70016557 6.63625402,4.39413799 C6.63625402,3.93231454 6.27078548,3.5595173 5.81804088,3.5595173 L11.0000574,3.5595173 Z" id="Path" fill="#FCBE4B"></path>
                        <polygon id="Path" fill="#FCBE4B" points="14.5456477 10.8201609 8.81815572 9.10974487 8.81815572 8.27512418 14.5456477 6.60588281"></polygon>
                        <path d="M11.409164,4.39413799 C11.409164,4.10035151 11.5575333,3.84328834 11.7822692,3.69472585 C11.6295361,3.61126378 11.4577113,3.5595173 11.2733406,3.5595173 L11.0006029,3.5595173 C10.5478583,3.5595173 10.1823898,3.93231454 10.1823898,4.39413799 C10.1823898,4.70016557 9.93692582,4.95055178 9.63691433,4.95055178 L10.864234,4.95055178 C11.1637,4.95055178 11.409164,4.70016557 11.409164,4.39413799 Z" id="Path" fill="#D5DBE1"></path>
                        <path d="M5.68167203,14.966 L5.68167203,4.67234488 C5.68167203,4.24891399 5.91949931,3.88279371 6.2636943,3.69472585 C6.13550758,3.61015096 5.98277446,3.5595173 5.81804088,3.5595173 L5.54530317,3.5595173 C4.9452802,3.5595173 4.45435232,4.06028971 4.45435232,4.67234488 L4.45435232,14.966 C4.45435232,15.5780552 4.9452802,16.0788276 5.54530317,16.0788276 L6.77262288,16.0788276 C6.17259991,16.0788276 5.68167203,15.5780552 5.68167203,14.966 Z" id="Path" fill="#D5DBE1"></path>
                        <path d="M7.86357373,4.39413799 C7.86357373,3.93231454 7.49810519,3.5595173 7.04536059,3.5595173 L5.81804088,3.5595173 C6.27078548,3.5595173 6.63625402,3.93231454 6.63625402,4.39413799 C6.63625402,4.70016557 6.88171796,4.95055178 7.18172944,4.95055178 L8.40904915,4.95055178 C8.10903767,4.95055178 7.86357373,4.70016557 7.86357373,4.39413799 Z" id="Path" fill="#E1960A"></path>
                        <polygon id="Path" fill="#E1960A" points="10.0454754 9.10974487 10.0454754 8.27512418 14.5456477 6.96365687 14.5456477 6.60588281 8.81815572 8.27512418 8.81815572 9.10974487 14.5456477 10.8201609 14.5456477 10.4534842"></polygon>
                        <path d="M9.63636886,5.36786212 L7.18172944,5.36786212 C6.65534566,5.36786212 6.22714745,4.9310773 6.22714745,4.39413799 C6.22714745,4.16433909 6.04386771,3.97682765 5.81804088,3.97682765 L5.54530317,3.97682765 L5.54530317,3.14220696 L5.81804088,3.14220696 C6.49497588,3.14220696 7.04536059,3.70418489 7.04536059,4.39413799 C7.04536059,4.47092309 7.10645384,4.53324144 7.18172944,4.53324144 L9.63636886,4.53324144 C9.71164446,4.53324144 9.77273771,4.47092309 9.77273771,4.39413799 C9.77273771,3.70418489 10.3231224,3.14220696 11.0000574,3.14220696 L11.2727951,3.14220696 L11.2727951,3.97682765 L11.0000574,3.97682765 C10.7742306,3.97682765 10.5909508,4.16433909 10.5909508,4.39413799 C10.5909508,4.9310773 10.1627526,5.36786212 9.63636886,5.36786212 Z" id="Path" fill="#2B2B2B"></path>
                        <path d="M11.2727951,16.4961379 L5.54530317,16.4961379 C4.71781695,16.4961379 4.04524575,15.8100797 4.04524575,14.966 L4.04524575,4.67234488 C4.04524575,3.82826516 4.71781695,3.14220696 5.54530317,3.14220696 L11.2727951,3.14220696 C12.1002814,3.14220696 12.7728525,3.82826516 12.7728525,4.67234488 L12.7728525,5.91871178 L11.9546394,5.91871178 L11.9546394,4.67234488 C11.9546394,4.28897578 11.6486277,3.97682765 11.2727951,3.97682765 L5.54530317,3.97682765 C5.1694706,3.97682765 4.86345889,4.28897578 4.86345889,4.67234488 L4.86345889,14.966 C4.86345889,15.3493691 5.1694706,15.6615173 5.54530317,15.6615173 L11.2727951,15.6615173 C11.6486277,15.6615173 11.9546394,15.3493691 11.9546394,14.966 L11.9546394,11.6887228 L12.7728525,11.6887228 L12.7728525,14.966 C12.7728525,15.8100797 12.1002814,16.4961379 11.2727951,16.4961379 Z" id="Path" fill="#2B2B2B"></path>
                        <path d="M14.5456477,11.2374712 C14.5069189,11.2374712 14.4681902,11.2319071 14.4305524,11.2207788 L8.7030604,9.5103628 C8.52905374,9.4580599 8.40904915,9.29503066 8.40904915,9.10974487 L8.40904915,8.27512418 C8.40904915,8.08872556 8.53014469,7.92513991 8.70578778,7.87394984 L14.4332797,6.20470846 C14.5571027,6.16854157 14.6896532,6.19302377 14.7922026,6.27259095 C14.894752,6.3516017 14.9547542,6.47456915 14.9547542,6.60588281 L14.9547542,10.8201609 C14.9547542,10.9514745 14.8942065,11.0755548 14.7911116,11.1545655 C14.7191089,11.2085377 14.6329237,11.2374712 14.5456477,11.2374712 Z M9.22726229,8.79704032 L14.1365411,10.2631907 L14.1365411,7.15895812 L9.22726229,8.58949797 L9.22726229,8.79704032 Z" id="Shape" fill="#2B2B2B"></path>
                        <polygon id="Path" fill="#2B2B2B" points="14.1365411 5.91036557 14.9547542 5.91036557 14.9547542 11.4745035 14.1365411 11.4745035"></polygon>
                        <polygon id="Path" fill="#2B2B2B" points="8.40904915 7.57960694 9.22726229 7.57960694 9.22726229 9.80526211 8.40904915 9.80526211"></polygon>
                        <path d="M10.7273197,11.5023242 C10.0503847,11.5023242 9.5,10.9403462 9.5,10.2503931 C9.5,9.81138266 9.7263723,9.40408776 10.0907499,9.18819921 L10.5020384,9.9098679 C10.386943,9.97830679 10.3182131,10.1057256 10.3182131,10.2503931 C10.3182131,10.480192 10.5014929,10.6677035 10.7273197,10.6677035 C10.9531465,10.6677035 11.1364263,10.480192 11.1364263,10.2503931 C11.1364263,10.189744 11.1249713,10.1396668 11.1015158,10.0934844 L11.8259072,9.70566404 C11.9110014,9.87147535 11.9546394,10.0545355 11.9546394,10.2503931 C11.9546394,10.9409027 11.4042547,11.5023242 10.7273197,11.5023242 Z" id="Path" fill="#2B2B2B"></path>
                        <g id="Group" transform="translate(11.574316, 1.000000)" fill="#A4AFC1">
                            <path d="M1.1985366,18 C0.747428428,18 0.380323467,17.6255335 0.380323467,17.1653793 C0.380323467,16.7052251 0.747428428,16.3307586 1.1985366,16.3307586 C1.64964478,16.3307586 2.01674974,16.7052251 2.01674974,17.1653793 C2.01674974,17.6255335 1.64964478,18 1.1985366,18 Z M1.1985366,16.8871724 C1.04798539,16.8871724 0.925798892,17.0123655 0.925798892,17.1653793 C0.925798892,17.3183931 1.04798539,17.4435862 1.1985366,17.4435862 C1.34908782,17.4435862 1.47127432,17.3183931 1.47127432,17.1653793 C1.47127432,17.0123655 1.34908782,16.8871724 1.1985366,16.8871724 Z" id="Shape"></path>
                            <polygon id="Path" transform="translate(0.578477, 0.596251) rotate(-45.000000) translate(-0.578477, -0.596251) " points="0.308514341 0.0481235159 0.85937575 0.0426551588 0.848439035 1.14437798 0.297577627 1.14984633"></polygon>
                            <polygon id="Path" transform="translate(2.795625, 2.859579) rotate(-45.000000) translate(-2.795625, -2.859579) " points="2.52566303 2.31145179 3.07652443 2.30598343 3.06558772 3.40770625 2.51472631 3.41317461"></polygon>
                            <polygon id="Path" transform="translate(2.698479, 0.594847) rotate(-45.000000) translate(-2.698479, -0.594847) " points="2.15035224 0.324884567 3.25207506 0.313947853 3.2466067 0.864809262 2.14488389 0.875745976"></polygon>
                        </g>
                    </g>
                </g>
            </g>
        </g>
    </g>
</svg>