<?xml version="1.0" encoding="UTF-8"?>
<svg width="12px" height="12px" viewBox="0 0 12 12" version="1.1" xmlns="http://www.w3.org/2000/svg" xmlns:xlink="http://www.w3.org/1999/xlink">
    <title>A3EB3D36-C189-4B90-842B-915D35BFC06C@1.5x</title>
    <g id="Design" stroke="none" stroke-width="1" fill="none" fill-rule="evenodd">
        <g id="04.6_VirtualLearn_Register_Personal-Details_typing" transform="translate(-102.000000, -547.000000)" fill="#FCBE4B" fill-rule="nonzero">
            <g id="btn_info" transform="translate(102.000000, 547.000000)">
                <path d="M10.2429266,1.7572691 C7.89977065,-0.585625929 4.10068588,-0.585886802 1.7572691,1.7572691 C-0.585886802,4.10042501 -0.585625929,7.89950978 1.7572691,10.2429266 C4.10042501,12.5855607 7.89950978,12.5858216 10.2429266,10.2429266 C12.5858216,7.89950978 12.5855607,4.10068588 10.2429266,1.7572691 Z M6.78245416,8.60882183 C6.78245416,9.0410874 6.43210252,9.39143904 5.99983695,9.39143904 C5.56757139,9.39143904 5.21721975,9.0410874 5.21721975,8.60882183 L5.21721975,5.47835303 C5.21721975,5.04608746 5.56757139,4.69573582 5.99983695,4.69573582 C6.43210252,4.69573582 6.78245416,5.04608746 6.78245416,5.47835303 L6.78245416,8.60882183 Z M5.98601072,4.14059935 C5.53522321,4.14059935 5.2346982,3.82129154 5.24408961,3.42711334 C5.2346982,3.01389146 5.53522321,2.70423592 5.99514125,2.70423592 C6.45532017,2.70423592 6.74645377,3.01415233 6.75610604,3.42711334 C6.75584517,3.82129154 6.45558104,4.14059935 5.98601072,4.14059935 Z" id="Shape"></path>
            </g>
        </g>
    </g>
</svg>