<?xml version="1.0" encoding="UTF-8"?>
<svg width="16px" height="18px" viewBox="0 0 16 18" version="1.1" xmlns="http://www.w3.org/2000/svg" xmlns:xlink="http://www.w3.org/1999/xlink">
    <title>8534FF46-3324-4493-82E0-F2D2123D51CB@1.5x</title>
    <defs>
        <path d="M11.5968493,3.60084375 C11.8516762,3.34846875 12.264851,3.3485625 12.5196149,3.601 C13.9044889,4.97315625 14.6669821,6.7973125 14.6666667,8.73753125 C14.6663511,10.6777188 13.90329,12.5016563 12.5179427,13.8733438 C11.132974,15.2447188 9.29167046,16 7.33338061,16 C7.33287581,16 7.33262342,16 7.33215017,16 L7.02389134,15.9936923 C5.18078236,15.9184178 3.45900777,15.171625 2.1470517,13.8716875 C0.762524688,12.4998438 0,10.6760938 0,8.73634375 C0,6.79659375 0.762461589,4.9728125 2.1470517,3.601 C2.40181553,3.3485625 2.81499039,3.34846875 3.06984886,3.60084375 C3.32470734,3.85321875 3.32480199,4.2624375 3.07000661,4.514875 C0.720752886,6.84259375 0.720752886,10.6300938 3.07000661,12.9578125 C4.24516982,14.1221875 5.78943296,14.7044375 7.33334906,14.7045625 C8.87688656,14.7046875 10.4200455,14.1229063 11.5953033,12.9591875 C12.7340897,11.8315625 13.3613609,10.3322188 13.3616132,8.7373125 C13.3618972,7.14240625 12.7350993,5.64284375 11.5966915,4.514875 C11.3418961,4.2624375 11.3419908,3.85321875 11.5968493,3.60084375 Z M7.33700882,0 C7.69740104,0 7.98951971,0.289375 7.98951971,0.6463125 L7.98951971,0.6463125 L7.98951971,7.99890625 C7.98951971,8.355875 7.69740104,8.64521875 7.33700882,8.64521875 C6.97664816,8.64521875 6.68449794,8.355875 6.68449794,7.99890625 L6.68449794,7.99890625 L6.68449794,0.6463125 C6.68449794,0.289375 6.97664816,0 7.33700882,0 Z" id="path-1"></path>
    </defs>
    <g id="Design" stroke="none" stroke-width="1" fill="none" fill-rule="evenodd">
        <g id="06_VirtualLearn_Menu" transform="translate(-24.000000, -493.000000)">
            <g id="logout" transform="translate(24.666667, 492.000000)">
                <g id="icn_logout_menu" transform="translate(-0.000000, 2.000000)">
                    <mask id="mask-2" fill="white">
                        <use xlink:href="#path-1"></use>
                    </mask>
                    <use id="Combined-Shape" stroke="#373737" stroke-width="0.1" fill="#373737" fill-rule="nonzero" xlink:href="#path-1"></use>
                </g>
            </g>
        </g>
    </g>
</svg>