<?xml version="1.0" encoding="UTF-8"?>
<svg width="16px" height="16px" viewBox="0 0 16 16" version="1.1" xmlns="http://www.w3.org/2000/svg" xmlns:xlink="http://www.w3.org/1999/xlink">
    <title>FA00C1A9-8D91-46D3-A4E1-84F64BE26A32@1.5x</title>
    <defs>
        <path d="M13.514729,10.2388124 C13.5863392,10.0717549 13.7501131,9.96329387 13.9293567,9.9626078 L13.9893957,9.9626078 C15.0808889,9.9626078 15.9689045,9.07471142 15.9689045,7.98336477 C15.9689045,6.89204931 15.0808889,6.00415293 13.9893957,6.00415293 L13.8785497,6.00415293 C13.7247251,6.00352923 13.5838441,5.92581646 13.5007251,5.80070266 C13.4915244,5.75526626 13.4774581,5.71082779 13.4586511,5.66816685 C13.3833294,5.49758546 13.4183548,5.30133891 13.547883,5.16739977 L13.5832515,5.1320361 C13.5842495,5.13110055 13.5852164,5.13013382 13.586152,5.12916709 C13.9597973,4.75513544 14.1654581,4.25798581 14.165115,3.72930826 C14.1648343,3.20153506 13.9592982,2.70541454 13.5864327,2.33200658 C13.5854347,2.33100867 13.5844678,2.33004194 13.583501,2.32904402 C13.2096686,1.95566725 12.7129201,1.75012759 12.184577,1.75012759 C12.1842339,1.75012759 12.1838285,1.75012759 12.1834542,1.75012759 C11.6547057,1.75040826 11.1577076,1.95657161 10.7843119,2.33035379 L10.7473528,2.36733907 C10.6134269,2.49678758 10.417154,2.5318394 10.2465185,2.45655906 C10.2443977,2.4556547 10.2422768,2.45471915 10.2401559,2.45381479 C10.073076,2.38221427 9.96460039,2.21846238 9.96391423,2.03927396 L9.96391423,1.97921185 C9.96391423,0.887896382 9.07589864,0 7.98440546,0 C6.89291228,0 6.00492788,0.887896382 6.00492788,1.97921185 L6.00492788,2.09007416 C6.00430409,2.24387807 5.9265809,2.38474025 5.80145029,2.46781681 C5.7560078,2.47701635 5.71156335,2.49111193 5.66889669,2.50991642 C5.49832359,2.58522795 5.30201949,2.55017612 5.16806238,2.42069643 L5.12982456,2.38243256 C4.75596101,2.00905579 4.25927485,1.80351614 3.73093177,1.80351614 C3.7305575,1.80351614 3.73012086,1.80351614 3.72977778,1.80351614 C3.20102924,1.8037968 2.70403119,2.00996016 2.32932554,2.38505209 C1.95564912,2.75905256 1.75001949,3.25620219 1.75033138,3.78487974 C1.75061209,4.3135573 1.95680312,4.81045744 2.33063548,5.18380303 L2.36759454,5.22075713 C2.49709162,5.35469626 2.53214815,5.55091164 2.4568577,5.72152421 C2.45133723,5.73396698 2.4462846,5.74656568 2.44157505,5.7593203 C2.37720078,5.93426757 2.21623392,6.05077435 2.03037817,6.0574791 L1.97944639,6.0574791 C0.888015595,6.0574791 0,6.94537548 0,8.03669095 C0,9.12806878 0.888015595,10.015934 1.97953996,10.0158716 L2.09038596,10.0158716 C2.27221832,10.01662 2.43592982,10.1250187 2.50753996,10.2920762 C2.50844444,10.294228 2.50938012,10.2963486 2.5102846,10.298438 C2.58560624,10.4690193 2.55054971,10.6652659 2.42102144,10.7992362 L2.38406238,10.8361591 C2.38322027,10.8370323 2.38237817,10.8379055 2.38150487,10.8387787 C2.00863938,11.2126232 1.80347758,11.7092739 1.80375828,12.2373277 C1.80403899,12.7660053 2.01023002,13.2629366 2.38431189,13.6365317 C2.38521637,13.6374672 2.38615205,13.6384028 2.38708772,13.6393071 C3.15945419,14.4089192 4.41394152,14.4076406 5.18449903,13.6362822 L5.22148928,13.5992969 C5.3554152,13.4698484 5.55168811,13.4347342 5.7222924,13.5100769 C5.73470565,13.5155343 5.74730604,13.5206174 5.76006238,13.5253263 C5.93506433,13.589692 6.05155556,13.7506684 6.0582924,13.9364992 L6.0582924,13.987393 C6.0582924,15.0787396 6.94630799,15.966636 8.03776998,15.966636 C9.12929435,15.966636 10.0172788,15.0787396 10.0173099,13.9874553 L10.0173099,13.8766554 C10.0180585,13.6948474 10.1264717,13.5311267 10.2935517,13.4595262 C10.2957037,13.4585907 10.2977934,13.4576863 10.299883,13.4567819 C10.4705185,13.3814704 10.6667914,13.4164911 10.8007485,13.5460019 L10.8390175,13.5842346 C11.2128499,13.9576114 11.7095673,14.1631822 12.2379103,14.163151 C12.2382846,14.163151 12.2386901,14.163151 12.2390643,14.163151 C12.7678129,14.1628392 13.2648109,13.956707 13.6395166,13.5816463 C14.4108538,12.8095082 14.4101676,11.5538483 13.6382378,10.782833 L13.6012476,10.7458789 C13.4717817,10.6119397 13.4367251,10.4157244 13.5120156,10.2450806 C13.5129513,10.2430224 13.5138558,10.240933 13.514729,10.2388124 Z M7.98443665,1.29005681 C8.36453801,1.29005681 8.67380897,1.59928625 8.67380897,1.97933659 L8.67380897,2.04195586 C8.67655361,2.73697365 9.09049513,3.3631352 9.72865497,3.6381548 C10.3847485,3.92624088 11.1390565,3.78877786 11.651462,3.28766775 L11.6968421,3.24238728 C11.8009388,3.13817983 11.9325418,3.07139425 12.075283,3.04880042 L12.184577,3.04024678 L12.184577,3.04024678 C12.368,3.04024678 12.5405692,3.11141071 12.6705965,3.24070329 L12.6727797,3.24291742 C12.8030877,3.373052 12.874885,3.54609699 12.8749786,3.73021262 C12.8751033,3.91382929 12.8038674,4.08646888 12.6744639,4.21660345 L12.6325146,4.25854714 C12.6308304,4.26019994 12.6291774,4.26188392 12.6274932,4.26359909 C12.1571618,4.74437665 12.0072047,5.43827179 12.228616,6.06402793 C12.2362261,6.12318568 12.2519766,6.1811584 12.2755867,6.23623093 C12.5498947,6.8761762 13.177076,7.29149665 13.875961,7.29427211 L13.9893645,7.29427211 C14.3694971,7.29427211 14.6787368,7.60347036 14.6787368,7.9835207 C14.6787368,8.36357103 14.3694659,8.67280047 13.9893645,8.67280047 L13.926768,8.67280047 C13.2316569,8.67554474 12.6054425,9.08943069 12.3303548,9.72747368 C12.0422612,10.3832609 12.1796803,11.1376235 12.6808577,11.649929 L12.7261131,11.6952407 C12.9949942,11.9638674 12.9952749,12.401142 12.7255828,12.6710785 C12.6214862,12.7753109 12.4898832,12.8421014 12.347126,12.8646963 L12.2382222,12.8732501 C12.2380663,12.8732501 12.2379727,12.8732501 12.2378168,12.8732501 C12.0538012,12.8732501 11.8807953,12.8016496 11.7498324,12.670829 L11.7047329,12.625798 L11.7047329,12.625798 C11.1922963,12.1246567 10.4378947,11.9872872 9.78186355,12.2753733 C9.14376608,12.5503929 8.72988694,13.1764921 8.72707992,13.874067 L8.72707992,13.9874553 C8.72707992,14.3675369 8.41784016,14.6767351 8.0377076,14.6767351 C7.65760624,14.6767351 7.34836647,14.3675057 7.34836647,13.9874553 L7.34817934,13.9123309 L7.34817934,13.9123309 C7.33146199,13.1977914 6.8911345,12.5756839 6.22449903,12.3219012 C5.57214815,12.0427963 4.82560624,12.1820057 4.31728655,12.6791554 C4.31560234,12.6808082 4.31391813,12.6824921 4.31223392,12.6841449 L4.27193762,12.7244358 C4.00333723,12.993312 3.56597271,12.9935927 3.29702924,12.7249972 C3.29624951,12.7242175 3.2954386,12.7234379 3.29469006,12.7226895 C3.16522417,12.5927108 3.09392593,12.420196 3.09380117,12.236704 C3.09367641,12.0525884 3.16531774,11.879481 3.2954386,11.7492217 L3.33626511,11.7083695 C3.33794932,11.7066855 3.33963353,11.7050015 3.34128655,11.7032864 C3.84246394,11.1910121 3.97985185,10.4367118 3.69182066,9.78076867 C3.41679532,9.1426945 2.79054971,8.72883973 2.0928499,8.72603309 L1.9794152,8.72603309 C1.59931384,8.72603309 1.29007407,8.41680365 1.29007407,8.03675332 C1.29007407,7.65670298 1.59934503,7.34750473 1.9794152,7.34747354 L2.0545809,7.34728643 L2.0545809,7.34728643 C2.76927875,7.33057133 3.3914386,6.89030295 3.64525536,6.22375697 C3.92433528,5.57149367 3.78516959,4.82511435 3.28795322,4.3168629 L3.24266667,4.27152006 C3.11238986,4.14138548 3.04059259,3.96834049 3.04049903,3.78422486 C3.04037427,3.60014041 3.11201559,3.42700187 3.24319688,3.29568227 C3.34731852,3.19147482 3.47890651,3.12468924 3.6216567,3.10209541 L3.73096296,3.09354177 L3.73096296,3.09354177 C3.91497856,3.09354177 4.08798441,3.16514229 4.21894737,3.29596293 L4.25899415,3.33597315 C4.26064717,3.33765714 4.26236257,3.33934112 4.26404678,3.34099392 C4.74488889,3.81126217 5.438846,3.96119915 6.06471735,3.73981757 C6.12385185,3.73223964 6.18183236,3.71649126 6.23691228,3.6928843 C6.87694347,3.41861313 7.29231969,2.79151604 7.29509552,2.09272487 L7.29509552,1.9793054 C7.29509552,1.59925506 7.60433528,1.29005681 7.98443665,1.29005681 Z M7.98440546,5.33701443 C6.52503704,5.33701443 5.33769981,6.52416108 5.33769981,7.98336477 C5.33769981,9.44256846 6.52500585,10.6297151 7.98440546,10.6297151 C9.44380507,10.6297151 10.6311111,9.44256846 10.6311111,7.98336477 C10.6311111,6.52416108 9.44377388,5.33701443 7.98440546,5.33701443 Z M7.98440546,6.6269465 C8.73244444,6.6269465 9.34097466,7.23542621 9.34097466,7.98333359 C9.34097466,8.73124097 8.73244444,9.33972068 7.98440546,9.33972068 C7.23639766,9.33972068 6.62783626,8.73127215 6.62783626,7.98333359 C6.62783626,7.23542621 7.23639766,6.6269465 7.98440546,6.6269465 Z" id="path-1"></path>
    </defs>
    <g id="Design" stroke="none" stroke-width="1" fill="none" fill-rule="evenodd">
        <g id="17.1_VirtualLearn_Menu_settings_notification-settings" transform="translate(-24.000000, -185.000000)">
            <g id="notification-setting" transform="translate(24.000000, 183.000000)">
                <g id="icn_notification-settings" transform="translate(-0.000000, 2.000000)">
                    <mask id="mask-2" fill="white">
                        <use xlink:href="#path-1"></use>
                    </mask>
                    <use id="Combined-Shape" fill="#373737" fill-rule="nonzero" xlink:href="#path-1"></use>
                </g>
            </g>
        </g>
    </g>
</svg>